<svg preserveAspectRatio="none" width="100%" height="100%" overflow="visible" style="display: block;" viewBox="0 0 146.412 152" fill="none" xmlns="http://www.w3.org/2000/svg">
<g id="Group">
<path id="Vector" d="M130.078 115.532L130.075 115.601L133.512 152H108.43L105.179 129.645L103.748 151.427L77.9891 151.141L80.7252 122.543L83.0521 109.287V109.284L83.4012 107.289H129.394L129.454 108.011L130.078 115.532Z" fill="var(--fill-0, #2F2E41)"/>
<path id="Vector_2" d="M63.7902 136.633C66.4464 137.118 69.2165 134.122 69.9773 129.942C70.304 128.275 70.2274 126.555 69.754 124.924L70.1614 122.514L76.9968 90.0962C76.9968 90.0962 89.5842 64.8817 89.5838 60.5043C89.5834 56.1269 85.9427 53.9802 85.9427 53.9802L81.0159 54.0264L65.5659 91.8148L62.7833 119.739L62.333 123.57C61.3158 124.929 60.6383 126.512 60.3574 128.187C59.5967 132.367 61.1337 136.149 63.7902 136.634V136.633Z" fill="var(--fill-0, #ED9DA0)"/>
<path id="Vector_3" d="M94.4529 40.7152L95.3603 32.3244C92.5338 31.2227 90.1525 29.2125 88.59 26.6093C87.0274 24.006 86.3721 20.9569 86.7267 17.9404C87.0814 14.9239 88.4259 12.1107 90.5495 9.94198C92.6731 7.7733 95.4555 6.37194 98.4602 5.95773C101.465 5.54352 104.522 6.13991 107.152 7.65334C109.781 9.16676 111.835 11.5116 112.99 14.3199C114.146 17.1283 114.337 20.2413 113.535 23.1705C112.733 26.0997 110.983 28.6795 108.559 30.505L112.409 42.8343L94.4529 40.7152Z" fill="var(--fill-0, #ED9DA0)"/>
<path id="Vector_4" d="M146.248 60.4286C146.248 60.4286 135.659 40.6525 133.655 38.6463C132.763 37.7533 131.361 37.7407 130.079 38.0003C130.079 38.0003 114.525 33.7488 110.341 35.8231C106.158 37.8973 97.5715 38.7871 93.6082 38.3991C90.6634 38.1105 89.6931 39.1287 88.1485 40.9384L76.4141 46.6704L76.4206 46.722C75.5011 47.0262 74.6988 47.6091 74.1248 48.3901C71.8352 51.5427 65.5387 89.9486 65.5387 89.9486L78.9907 92.8147L80.8214 81.3104L82.1389 91.6685L83.1407 111.015C83.1407 111.015 101.458 126.778 110.33 121.047C119.203 115.315 130.078 115.601 130.078 115.601L130.35 106.633C130.543 106.324 130.651 106.142 130.651 106.142L130.364 74.3344V65.8695C132.544 68.9114 135.175 71.5275 138.235 72.7528C148.252 76.7654 146.248 60.4286 146.248 60.4286Z" fill="var(--fill-0, #70A5FF)"/>
<g id="Group_2">
<path id="Vector_5" d="M109.316 131.059H5.33297C3.91911 131.058 2.56361 130.495 1.56383 129.494C0.56406 128.492 0.00165714 127.135 0 125.719L0 70.4053C0.00160693 68.9894 0.563988 67.632 1.56377 66.6308C2.56354 65.6296 3.91907 65.0664 5.33297 65.0648H109.316C110.73 65.0664 112.085 65.6296 113.085 66.6308C114.085 67.632 114.647 68.9894 114.649 70.4053V125.719C114.647 127.135 114.085 128.492 113.085 129.494C112.085 130.495 110.73 131.058 109.316 131.059Z" fill="var(--fill-0, white)"/>
<path id="Vector_6" d="M109.316 131.059H5.33297C3.91911 131.058 2.56361 130.495 1.56383 129.494C0.56406 128.492 0.00165714 127.135 0 125.719L0 70.4053C0.00160693 68.9894 0.563988 67.632 1.56377 66.6308C2.56354 65.6296 3.91907 65.0664 5.33297 65.0648H109.316C110.73 65.0664 112.085 65.6296 113.085 66.6308C114.085 67.632 114.647 68.9894 114.649 70.4053V125.719C114.647 127.135 114.085 128.492 113.085 129.494C112.085 130.495 110.73 131.058 109.316 131.059ZM5.33297 65.9567C4.1552 65.958 3.02605 66.4272 2.19324 67.2612C1.36042 68.0952 0.891955 69.2259 0.890599 70.4053V125.719C0.891955 126.899 1.36042 128.029 2.19324 128.863C3.02605 129.697 4.1552 130.166 5.33297 130.168H109.316C110.494 130.166 111.623 129.697 112.456 128.863C113.288 128.029 113.757 126.899 113.758 125.719V70.4053C113.757 69.2259 113.288 68.0952 112.456 67.2612C111.623 66.4272 110.494 65.958 109.316 65.9567H5.33297Z" fill="var(--fill-0, #3F3D56)"/>
<path id="Vector_7" d="M101.29 71.7536C102.028 71.7536 102.626 71.1546 102.626 70.4158C102.626 69.677 102.028 69.078 101.29 69.078C100.553 69.078 99.9545 69.677 99.9545 70.4158C99.9545 71.1546 100.553 71.7536 101.29 71.7536Z" fill="var(--fill-0, #3F3D56)"/>
<path id="Vector_8" d="M104.853 71.7536C105.59 71.7536 106.189 71.1546 106.189 70.4158C106.189 69.677 105.59 69.078 104.853 69.078C104.115 69.078 103.517 69.677 103.517 70.4158C103.517 71.1546 104.115 71.7536 104.853 71.7536Z" fill="var(--fill-0, #3F3D56)"/>
<path id="Vector_9" d="M108.415 71.7536C109.153 71.7536 109.751 71.1546 109.751 70.4158C109.751 69.677 109.153 69.078 108.415 69.078C107.677 69.078 107.079 69.677 107.079 70.4158C107.079 71.1546 107.677 71.7536 108.415 71.7536Z" fill="var(--fill-0, #3F3D56)"/>
<path id="Vector_10" d="M7.56972 92.0424C7.39265 92.0426 7.2229 92.1131 7.09769 92.2385C6.97249 92.3638 6.90206 92.5338 6.90186 92.7112C6.90349 92.888 6.97438 93.0572 7.09928 93.1823C7.22417 93.3073 7.3931 93.3783 7.56972 93.38H107.524C107.701 93.3798 107.871 93.3092 107.996 93.1838C108.122 93.0585 108.192 92.8885 108.192 92.7112C108.191 92.5343 108.12 92.3651 107.995 92.2401C107.87 92.115 107.701 92.044 107.524 92.0424H7.56972Z" fill="var(--fill-0, #70A5FF)"/>
<path id="Vector_11" d="M95.0564 91.8195V93.6032H7.56971C7.33403 93.6015 7.10849 93.507 6.94183 93.3401C6.77518 93.1732 6.6808 92.9474 6.67912 92.7113C6.67982 92.475 6.77387 92.2486 6.94074 92.0815C7.10761 91.9144 7.33373 91.8202 7.56971 91.8195H95.0564Z" fill="var(--fill-0, #70A5FF)"/>
<path id="Vector_12" d="M106.411 88.4751H97.5055C97.0363 88.4703 96.5879 88.2802 96.2579 87.9462C95.9278 87.6123 95.7426 87.1614 95.7426 86.6915C95.7426 86.2216 95.9278 85.7707 96.2579 85.4367C96.5879 85.1028 97.0363 84.9127 97.5055 84.9079H106.411C106.647 84.9054 106.88 84.9498 107.098 85.0383C107.317 85.1269 107.515 85.2579 107.682 85.4237C107.85 85.5896 107.983 85.787 108.073 86.0046C108.164 86.2222 108.211 86.4557 108.211 86.6915C108.211 86.9273 108.164 87.1607 108.073 87.3783C107.983 87.5959 107.85 87.7934 107.682 87.9593C107.515 88.1251 107.317 88.2561 107.098 88.3447C106.88 88.4332 106.647 88.4775 106.411 88.4751Z" fill="var(--fill-0, #70A5FF)"/>
<path id="Vector_13" d="M48.0795 79.111H8.23776C7.76857 79.1061 7.32023 78.9161 6.99016 78.5821C6.66009 78.2481 6.47494 77.7972 6.47494 77.3273C6.47494 76.8575 6.66009 76.4065 6.99016 76.0726C7.32023 75.7386 7.76857 75.5486 8.23776 75.5437H48.0795C48.3149 75.5413 48.5485 75.5856 48.7667 75.6742C48.985 75.7627 49.1835 75.8937 49.3508 76.0596C49.5182 76.2254 49.651 76.4229 49.7417 76.6405C49.8324 76.8581 49.879 77.0915 49.879 77.3273C49.879 77.5631 49.8324 77.7966 49.7417 78.0142C49.651 78.2318 49.5182 78.4292 49.3508 78.5951C49.1835 78.761 48.985 78.892 48.7667 78.9805C48.5485 79.0691 48.3149 79.1134 48.0795 79.111Z" fill="var(--fill-0, #70A5FF)"/>
<path id="Vector_14" d="M7.56972 112.108C7.39265 112.108 7.2229 112.179 7.09769 112.304C6.97249 112.43 6.90206 112.6 6.90186 112.777C6.90349 112.954 6.97438 113.123 7.09928 113.248C7.22417 113.373 7.3931 113.444 7.56972 113.446H107.524C107.701 113.446 107.871 113.375 107.996 113.25C108.122 113.124 108.192 112.954 108.192 112.777C108.191 112.6 108.12 112.431 107.995 112.306C107.87 112.181 107.701 112.11 107.524 112.108H7.56972Z" fill="var(--fill-0, #70A5FF)"/>
<path id="Vector_15" d="M60.7698 111.885V113.669H7.56971C7.33403 113.667 7.10849 113.573 6.94183 113.406C6.77518 113.239 6.6808 113.013 6.67912 112.777C6.67982 112.541 6.77387 112.314 6.94074 112.147C7.10761 111.98 7.33373 111.886 7.56971 111.885H60.7698Z" fill="var(--fill-0, #70A5FF)"/>
<path id="Vector_16" d="M106.411 108.541H97.5055C97.0363 108.536 96.5879 108.346 96.2579 108.012C95.9278 107.678 95.7426 107.227 95.7426 106.758C95.7426 106.288 95.9278 105.837 96.2579 105.503C96.5879 105.169 97.0363 104.979 97.5055 104.974H106.411C106.647 104.972 106.88 105.016 107.098 105.104C107.317 105.193 107.515 105.324 107.682 105.49C107.85 105.656 107.983 105.853 108.073 106.071C108.164 106.288 108.211 106.522 108.211 106.758C108.211 106.993 108.164 107.227 108.073 107.444C107.983 107.662 107.85 107.859 107.682 108.025C107.515 108.191 107.317 108.322 107.098 108.411C106.88 108.499 106.647 108.544 106.411 108.541Z" fill="var(--fill-0, #70A5FF)"/>
</g>
<path id="Vector_17" d="M141.253 55.6201L127.359 48.964C127.359 48.964 126.801 44.5091 124.195 42.9199C123.752 41.8616 123.242 40.699 122.779 39.7777C121.635 37.4994 123.352 33.2003 121.921 33.2003C120.49 33.2003 118.374 37.7223 118.487 38.9324C118.572 39.8619 119.34 41.4847 119.498 42.9051C117.752 43.5642 116.345 44.6938 115.419 45.5932C115.027 45.9764 114.746 46.4594 114.608 46.9902C114.47 47.521 114.478 48.0795 114.633 48.6057C115.54 51.7145 117.808 58.1353 121.061 58.1353C125.354 58.1353 126.499 57.2756 126.499 57.2756C126.499 57.2756 135.372 68.4533 141.954 69.3132C148.537 70.1732 141.252 55.6199 141.252 55.6199L141.253 55.6201Z" fill="var(--fill-0, #ED9DA0)"/>
<path id="Vector_18" d="M112.946 22.5717L112.735 22.1499C112.41 21.4976 109.713 16.075 109.375 14.6808L105.981 15.0798L97.1438 15.0812L98.3718 13.2366L95.1253 13.6607C93.9384 13.8051 92.8037 14.2334 91.8169 14.9094C91.2116 15.3122 90.6998 15.8406 90.3163 16.4588C89.1567 18.4476 87.3848 21.7004 87.367 21.7331L87.1975 22.0443L85.7252 19.5642C85.7062 19.4679 83.8812 9.93747 89.9877 6.70519C90.3027 6.06451 92.9866 1.0259 99.3293 1.36619C100.027 0.570231 101.009 0.0812914 102.063 0.00522138C103.512 -0.0707786 105.016 0.691502 106.526 2.27952C108.531 4.38852 111.279 7.27652 112.94 10.4841L113.399 11.139C114.05 12.0761 114.372 13.2029 114.316 14.343C114.668 16.1629 114.543 18.0434 113.952 19.8002L112.946 22.5717Z" fill="var(--fill-0, #090814)"/>
<g id="Group_3">
<path id="Vector_19" d="M130.764 33.2007C138.466 33.2007 144.71 27.0799 144.71 19.5294C144.71 11.979 138.466 5.85817 130.764 5.85817C123.062 5.85817 116.818 11.979 116.818 19.5294C116.818 27.0799 123.062 33.2007 130.764 33.2007Z" fill="var(--fill-0, #70A5FF)"/>
<path id="Vector_20" d="M128.55 27.9884C128.269 27.9885 127.993 27.9231 127.742 27.7976C127.491 27.672 127.273 27.4897 127.105 27.2651L122.678 21.3529C122.39 20.9693 122.267 20.4871 122.335 20.0125C122.402 19.5378 122.656 19.1095 123.039 18.8219C123.422 18.5342 123.903 18.4107 124.377 18.4785C124.851 18.5463 125.279 18.7999 125.566 19.1834L128.463 23.0511L135.903 11.8753C136.17 11.4802 136.583 11.2069 137.05 11.115C137.518 11.0232 138.003 11.1202 138.399 11.3849C138.796 11.6496 139.072 12.0606 139.167 12.5282C139.262 12.9958 139.169 13.4821 138.907 13.8811L130.052 27.1832C129.892 27.4238 129.676 27.6223 129.424 27.7623C129.171 27.9023 128.888 27.9796 128.6 27.9877C128.583 27.988 128.566 27.9884 128.55 27.9884Z" fill="var(--fill-0, white)"/>
</g>
</g>
</svg>
