<svg preserveAspectRatio="none" width="100%" height="100%" overflow="visible" style="display: block;" viewBox="0 0 176 152" fill="none" xmlns="http://www.w3.org/2000/svg">
<g id="undraw_calendar_8r6s 1" clip-path="url(#clip0_59_736)">
<path id="Vector" d="M69.852 42.2549C69.895 42.415 69.7808 42.5259 69.6134 42.4946C66.3713 41.152 55.0788 35.7335 54.8803 32.4935C66.8632 37.5065 75.4229 18.277 74.028 11.5698C73.2799 15.3053 66.0624 19.9713 62.8125 19.2411C62.4479 19.1592 58.3484 23.9945 59.591 24.8747C57.9853 27.3633 56.3804 39.5709 54.3412 40.3371C54.2737 40.3625 54.1777 40.3153 54.1026 40.3371C45.9189 37.7245 39.0763 38.706 34.0578 30.1487C30.7283 24.4712 33.3834 25.984 37.0407 23.5562C44.292 18.7426 41.7755 15.6645 45.512 9.05268C53.8501 -5.702 71.0662 0.254983 75.3405 8.09377C80.4123 17.3953 73.2514 30.1558 81.3062 40.2172C77.6677 41.7723 70.6376 41.5074 69.7327 41.7754C69.2632 41.9145 69.8456 42.231 69.852 42.2549Z" fill="var(--fill-0, #090814)"/>
<path id="Vector_2" d="M43.1726 18.7671C43.1726 9.65263 50.5275 2.26389 59.6002 2.26389C68.673 2.26389 76.0278 9.65263 76.0278 18.7671C76.0278 26.1589 71.19 32.4149 64.5219 34.5159L62.0727 36.4984L66.4698 51.9591L61.3462 55.6004L45.1566 42.047C45.1566 42.047 48.6541 37.5717 50.5297 32.5254C46.0967 29.5699 43.1726 24.5125 43.1726 18.7671Z" fill="var(--fill-0, #FFB6B6)"/>
<path id="Vector_3" d="M116.562 61.0509L104.792 102.14L92.8894 93.841L106.916 57.9918C105.692 55.716 105.388 52.7246 106.318 49.7678C107.943 44.5942 112.716 41.4958 116.978 42.8474C121.24 44.199 123.377 49.4887 121.752 54.6624C120.822 57.6192 118.864 59.893 116.562 61.0509Z" fill="var(--fill-0, #FFB6B6)"/>
<path id="Vector_4" d="M77.2815 77.2749H34.8253V126.952H77.2815V77.2749Z" fill="var(--fill-0, #FFB6B6)"/>
<path id="Vector_5" d="M106.9 152H8.04594C7.72565 151.975 7.489 151.696 7.50974 151.374C7.489 151.056 7.72565 150.776 8.04594 150.751H106.9C107.182 150.786 107.405 151.01 107.44 151.293C107.485 151.64 107.245 151.954 106.9 152Z" fill="var(--fill-0, #CCCCCC)"/>
<path id="Vector_6" d="M49.0768 37.6625L38.9842 60.8169L39.9828 100.611H74.0938L75.1645 58.3865L62.5004 38.7767L49.0768 37.6625Z" fill="var(--fill-0, #70A5FF)"/>
<path id="Vector_7" d="M28.7998 46.876C28.7998 46.876 25.8451 132.022 17.9116 146.073C17.9116 146.073 28.8757 147.993 31.6642 144.023C34.4527 140.053 45.2083 113.624 45.3248 107.771C45.4414 101.917 48.8109 37.6339 48.8109 37.6339L28.7998 46.876Z" fill="var(--fill-0, #090814)"/>
<path id="Vector_8" d="M61.6095 41.1165L62.5004 38.7767L85.122 47.8017C85.122 47.8017 84.0665 132.892 93.2245 141.491C93.2245 141.491 77.9251 140.758 77.417 140.405C76.9089 140.053 65.8017 96.0529 65.8017 96.0529C65.8017 96.0529 71.0965 75.6693 71.5053 66.9658C71.9141 58.2622 61.6095 41.1165 61.6095 41.1165Z" fill="var(--fill-0, #090814)"/>
<path id="Vector_9" d="M32.2187 108.302L22.5889 137.7L22.0152 151.756H93.2184L79.4858 108.302H32.2187Z" fill="var(--fill-0, #090814)"/>
<path id="Vector_10" d="M79.3822 49.4652L85.122 47.8017L98.3201 74.6537L103.976 59.9464L117.951 63.9574C117.951 63.9574 111.599 105.369 101.996 103.141C92.3929 100.914 79.3822 78.1726 79.3822 78.1726L79.3822 49.4652Z" fill="var(--fill-0, #090814)"/>
<path id="Vector_11" d="M22.8005 131.466L3.53809 103.335L12.3932 95.5079L30.4939 126.125C32.8416 126.518 35.188 127.992 36.8101 130.35C39.6483 134.476 39.1936 139.734 35.7944 142.094C32.3953 144.453 27.3389 143.021 24.5007 138.895C22.8786 136.537 22.3366 133.811 22.8005 131.466Z" fill="var(--fill-0, #FFB6B6)"/>
<path id="Vector_12" d="M32.2187 49.2501L28.7998 46.876L0.831667 99.9459C0.831667 99.9459 -1.43851 103.146 1.52258 108.302C4.48366 113.459 19.6861 129.249 19.6861 129.249L31.6642 122.453L19.4643 99.6116L30.9639 79.6287L32.2187 49.2501Z" fill="var(--fill-0, #090814)"/>
<path id="Vector_13" d="M74.028 11.5698C73.2799 15.3053 58.3484 23.9945 59.591 24.8747C57.9853 27.3633 56.3804 39.5709 54.3412 40.3371C54.2737 40.3625 54.1777 40.3153 54.1026 40.3371C45.9189 37.7245 39.0763 38.706 34.0578 30.1487C30.7283 24.4712 33.3834 25.984 37.0407 23.5562C44.292 18.7426 41.7755 15.6645 45.512 9.05268C53.8501 -5.70201 71.0662 0.254981 75.3405 8.09377C80.4123 17.3953 75.4229 18.277 74.028 11.5698Z" fill="var(--fill-0, #090814)"/>
<path id="Vector_14" d="M176 51.5738H68.5979V149.609H176V51.5738Z" fill="var(--fill-0, #D6D6E3)"/>
<path id="Vector_15" d="M168.452 142.606H74.9909V74.2388H168.452V142.606ZM75.4858 142.109H167.957V74.736H75.4858V142.109Z" fill="var(--fill-0, #090814)"/>
<path id="Vector_16" d="M168.205 85.6426H75.8157V86.1399H168.205V85.6426Z" fill="var(--fill-0, #090814)"/>
<path id="Vector_17" d="M88.7668 74.1975H88.2718V142.068H88.7668V74.1975Z" fill="var(--fill-0, #090814)"/>
<path id="Vector_18" d="M101.47 74.1972H100.975V142.068H101.47V74.1972Z" fill="var(--fill-0, #090814)"/>
<path id="Vector_19" d="M114.174 74.1972H113.679V142.068H114.174V74.1972Z" fill="var(--fill-0, #090814)"/>
<path id="Vector_20" d="M128.032 74.197H127.537V142.068H128.032V74.197Z" fill="var(--fill-0, #090814)"/>
<path id="Vector_21" d="M141.312 74.197H140.818V142.067H141.312V74.197Z" fill="var(--fill-0, #090814)"/>
<path id="Vector_22" d="M155.171 74.1968H154.676V142.067H155.171V74.1968Z" fill="var(--fill-0, #090814)"/>
<path id="Vector_23" d="M168.493 96.8622H76.1045V97.3595H168.493V96.8622Z" fill="var(--fill-0, #090814)"/>
<path id="Vector_24" d="M167.627 108.082H75.2383V108.579H167.627V108.082Z" fill="var(--fill-0, #090814)"/>
<path id="Vector_25" d="M167.339 119.301H74.9495V119.799H167.339V119.301Z" fill="var(--fill-0, #090814)"/>
<path id="Vector_26" d="M167.627 130.521H75.2383V131.018H167.627V130.521Z" fill="var(--fill-0, #090814)"/>
<path id="Vector_27" d="M98.6615 123.264H89.7521V125.75H98.6615V123.264Z" fill="var(--fill-0, #70A5FF)"/>
<path id="Vector_28" d="M112.149 112.946H103.24V115.432H112.149V112.946Z" fill="var(--fill-0, #70A5FF)"/>
<path id="Vector_29" d="M138.383 88.8296H129.473V91.3158H138.383V88.8296Z" fill="var(--fill-0, #70A5FF)"/>
<path id="Vector_30" d="M111.902 123.388H102.992V125.874H111.902V123.388Z" fill="var(--fill-0, #70A5FF)"/>
</g>
<defs>
<clipPath id="clip0_59_736">
<rect width="176" height="152" fill="white"/>
</clipPath>
</defs>
</svg>
