<svg preserveAspectRatio="none" width="100%" height="100%" overflow="visible" style="display: block;" viewBox="0 0 176 193" fill="none" xmlns="http://www.w3.org/2000/svg">
<g id="Group">
<path id="Vector" opacity="0.1" d="M128.981 147.039C100.919 159.767 64.7777 158.865 64.7777 158.865H25.6665V151.416C41.6043 146.978 63.6411 144.235 88 144.235C101.71 144.187 115.406 145.125 128.981 147.039Z" fill="var(--fill-0, black)"/>
<path id="Vector_2" opacity="0.1" d="M176 168.617C176 182.089 136.596 193 88 193C39.4045 193 5.07547e-05 182.089 5.07547e-05 168.617C5.07547e-05 161.901 9.80239 155.816 25.6677 151.416V158.864H64.7777C64.7777 158.864 100.919 159.766 128.981 147.039C156.933 151.111 176 159.242 176 168.617Z" fill="var(--fill-0, black)"/>
<path id="Vector_3" d="M99.2392 16.8002H61.7964V54.2144H99.2392V16.8002Z" fill="var(--fill-0, #090814)"/>
<path id="Vector_4" d="M75.7209 43.2593C75.7209 43.2593 78.8201 54.0788 73.3957 54.8517C70.03 55.3749 66.8405 56.7005 64.098 58.7159L74.1706 71.8541H92.7664L104.388 60.2617C104.388 60.2617 88.8924 48.6692 91.9915 41.7135C95.0907 34.7578 75.7209 43.2593 75.7209 43.2593Z" fill="var(--fill-0, #ED9DA0)"/>
<path id="Vector_5" d="M80.3692 177.732L98.1904 183.915L110.586 184.688L109.811 173.868L84.2435 166.325L80.3692 177.732Z" fill="var(--fill-0, #ED9DA0)"/>
<path id="Vector_6" d="M103.227 175.413C103.227 175.413 103.227 186.232 104.777 186.232C106.326 186.232 127.246 183.913 133.445 186.232C139.643 188.552 148.941 180.051 144.292 175.413C139.643 170.774 132.06 163.82 127.328 165.366C122.597 166.911 103.227 170.776 103.227 170.776L103.227 175.413Z" fill="var(--fill-0, #2F2E41)"/>
<path id="Vector_7" d="M46.2786 165.367C46.2786 165.367 36.9809 183.916 43.1795 185.461C49.3781 187.007 56.3512 184.688 57.1261 183.915C57.9009 183.142 68.7481 180.051 70.2978 181.596C71.8475 183.141 71.8472 175.413 71.8472 175.413L46.2786 165.367Z" fill="var(--fill-0, #2F2E41)"/>
<path id="Vector_8" d="M54.0266 139.864C54.0266 139.864 39.3051 159.958 50.1526 165.367C61.0001 170.777 112.912 170.777 116.786 165.367C120.66 159.957 122.21 142.955 116.786 141.409C111.362 139.863 54.0266 139.864 54.0266 139.864Z" fill="var(--fill-0, #2F2E41)"/>
<path id="Vector_9" opacity="0.2" d="M54.0266 139.864C54.0266 139.864 39.3051 159.958 50.1526 165.367C61.0001 170.777 112.912 170.777 116.786 165.367C120.66 159.957 122.21 142.955 116.786 141.409C111.362 139.863 54.0266 139.864 54.0266 139.864Z" fill="var(--fill-0, black)"/>
<path id="Vector_10" d="M81.9192 48.6674C91.7613 48.6674 99.7398 40.7091 99.7398 30.8921C99.7398 21.0751 91.7613 13.1168 81.9192 13.1168C72.0772 13.1168 64.0986 21.0751 64.0986 30.8921C64.0986 40.7091 72.0772 48.6674 81.9192 48.6674Z" fill="var(--fill-0, #ED9DA0)"/>
<path id="Vector_11" d="M54.0266 58.7156L69.5226 55.6243C69.5226 55.6243 73.3967 67.9897 85.7936 65.6713C98.1904 63.3529 101.29 55.6243 101.29 55.6243C101.29 55.6243 110.587 59.4885 111.362 59.4885C112.137 59.4885 122.21 63.3526 122.21 65.6713C122.21 67.99 110.588 91.1749 110.588 91.1749L112.137 132.908L54.8012 131.363L58.6755 90.4023L54.0266 58.7156Z" fill="var(--fill-0, #70A5FF)"/>
<path id="Vector_12" d="M45.5034 78.8102C45.5034 78.8102 40.8545 119.771 43.9537 122.862C47.0528 125.953 59.4497 134.454 59.4497 134.454V125.18L53.2514 113.588L59.45 86.5397L45.5034 78.8102Z" fill="var(--fill-0, #ED9DA0)"/>
<path id="Vector_13" d="M125.696 77.6499C125.696 77.6499 122.984 119.77 122.984 121.315C122.984 122.861 116.011 128.271 113.688 128.271C111.364 128.271 109.814 124.407 109.814 124.407L115.237 118.224L111.362 86.5376L125.696 77.6499Z" fill="var(--fill-0, #ED9DA0)"/>
<path id="Vector_14" d="M118.336 136.773C118.336 136.773 153.202 117.451 153.977 136.773C154.751 156.094 136.156 163.821 136.156 163.821C136.156 163.821 88.1178 178.188 86.1794 172.937C84.2411 167.686 80.3683 159.184 83.4677 158.411C86.5672 157.638 90.4409 156.092 91.9906 157.638C93.5403 159.185 112.912 146.047 112.912 146.047L118.336 136.773Z" fill="var(--fill-0, #2F2E41)"/>
<path id="Vector_15" opacity="0.2" d="M134.606 134.454C134.606 134.454 127.633 137.545 125.309 139.863C122.984 142.18 112.911 146.046 112.911 146.046" stroke="var(--stroke-0, black)" stroke-width="2" stroke-miterlimit="10"/>
<path id="Vector_16" d="M58.6755 60.2614L54.0251 58.7156C54.0251 58.7156 36.9794 76.4909 42.4031 81.1279C47.8268 85.765 50.926 87.3108 52.4757 88.8563C54.0254 90.4017 61.7734 91.1755 61.7734 91.1755L58.6755 60.2614Z" fill="var(--fill-0, #70A5FF)"/>
<path id="Vector_17" d="M115.236 64.1258L122.21 65.6716C122.21 65.6716 127.633 77.2641 129.183 78.8099C130.732 80.3556 126.858 79.5828 124.534 82.674C122.21 85.7653 119.884 91.1752 115.236 91.1752C110.589 91.1752 104.389 83.4469 104.389 83.4469L115.236 64.1258Z" fill="var(--fill-0, #70A5FF)"/>
<path id="Vector_18" d="M55.576 143.729C55.576 143.729 26.1337 122.862 16.0608 138.319C5.98786 153.775 59.45 174.642 67.198 177.733C74.9461 180.825 81.9195 183.916 81.9195 183.916C81.9195 183.916 88.8927 166.914 88.8927 163.823C88.8927 160.731 83.469 160.731 81.9195 160.731C80.3701 160.731 73.3966 159.185 71.8469 156.867C70.2972 154.549 55.576 143.729 55.576 143.729Z" fill="var(--fill-0, #2F2E41)"/>
<path id="Vector_19" opacity="0.2" d="M39.3051 138.318C39.3051 138.318 47.0531 144.501 54.0266 146.046C61.0001 147.592 63.3243 151.456 63.3243 151.456" stroke="var(--stroke-0, black)" stroke-width="2" stroke-miterlimit="10"/>
<path id="Vector_20" d="M50.2311 109.26L50.8502 141.982C50.8706 143.063 51.3185 144.092 52.0962 144.845C52.874 145.598 53.9186 146.013 55.0023 146.001L116.052 145.317C117.092 145.305 118.089 144.9 118.842 144.184C119.594 143.467 120.046 142.492 120.106 141.456L121.959 109.418C121.991 108.861 121.909 108.303 121.717 107.779C121.526 107.255 121.229 106.776 120.845 106.37C120.461 105.964 119.998 105.641 119.485 105.42C118.971 105.199 118.418 105.085 117.859 105.085H54.3373C53.7915 105.085 53.251 105.194 52.7477 105.404C52.2443 105.615 51.7881 105.924 51.4057 106.312C51.0233 106.701 50.7224 107.162 50.5207 107.668C50.3189 108.174 50.2202 108.715 50.2305 109.259L50.2311 109.26Z" fill="var(--fill-0, #090814)"/>
<g id="Group_2">
<path id="Vector_21" d="M48.8221 55.4086C50.4848 51.7487 52.7194 48.3144 53.7841 44.4391C55.0603 39.7945 54.5632 34.88 54.4113 30.0665C54.1688 25.8093 54.5325 21.5393 55.4915 17.3839C56.4655 13.2088 58.6515 9.41262 61.7764 6.46979C69.8962 -0.759122 77.8646 -1.2796 87.7793 1.73034C91.688 2.91709 95.8516 5.17641 96.821 9.13545C96.9671 9.73334 97.0324 10.349 97.1963 10.9427C98.008 13.8903 101.031 15.7556 102.122 18.6123C103.533 22.3071 101.358 26.3252 101.073 30.2689C100.741 34.8731 103.01 39.2225 105.247 43.2638C106.575 45.6662 107.959 48.2252 107.827 50.9662C107.717 52.4657 107.26 53.9194 106.492 55.2132C105.067 57.5581 103.068 59.5036 100.683 60.8672C98.2982 62.2309 95.6051 62.968 92.8564 63.0095C91.0697 63.1523 89.2832 62.7316 87.7491 61.8068C85.3294 60.1451 84.6207 56.7987 85.1247 53.9117C85.6287 51.0246 87.0978 48.4138 88.2492 45.7189C88.6025 44.8915 88.9211 44.0502 89.2155 43.2005C92.7851 41.213 95.5358 38.0313 96.9819 34.2172C98.428 30.4032 98.4764 26.2021 97.1186 22.3559C95.7608 18.5097 93.0841 15.2657 89.5612 13.1969C86.0383 11.1281 81.8958 10.3675 77.8653 11.0494C73.8348 11.7314 70.1755 13.8119 67.5336 16.9237C64.8917 20.0356 63.4371 23.9784 63.4268 28.0561C63.4164 32.1338 64.851 36.084 67.4771 39.2091C70.1032 42.3342 73.7519 44.4332 77.7789 45.1355C78.647 49.4972 78.2525 54.0153 76.6416 58.1617C75.1768 61.5352 73.3373 64.7343 71.1578 67.699C70.2665 69.2189 69.0785 70.5449 67.6643 71.5987C66.732 72.1492 65.7314 72.5755 64.6881 72.8665C60.3116 74.2704 62.5948 75.3999 58.0416 74.7686C53.4885 74.1373 48.9788 71.3978 47.4273 67.0812C46.0672 63.2954 47.1594 59.0683 48.8221 55.4086Z" fill="var(--fill-0, #090814)"/>
<path id="Vector_22" d="M79.8163 28.1008C90.2612 28.1008 98.7285 23.3149 98.7285 17.4111C98.7285 11.5073 90.2612 6.72131 79.8163 6.72131C69.3713 6.72131 60.904 11.5073 60.904 17.4111C60.904 23.3149 69.3713 28.1008 79.8163 28.1008Z" fill="var(--fill-0, #090814)"/>
</g>
</g>
</svg>
