<svg preserveAspectRatio="none" width="100%" height="100%" overflow="visible" style="display: block;" viewBox="0 0 59.4933 129.716" fill="none" xmlns="http://www.w3.org/2000/svg">
<g id="Group">
<path id="Vector" d="M34.1624 14.905H39.9871L40.6757 23.1157H33.5646L34.1624 14.905Z" fill="var(--fill-0, #ED9DA0)"/>
<path id="Vector_2" d="M24.261 122.337H20.4731L18.6708 107.878H24.2628L24.261 122.337Z" fill="var(--fill-0, #ED9DA0)"/>
<path id="Vector_3" d="M43.3321 122.83L39.5606 122.455L39.2324 107.882L44.7983 108.437L43.3321 122.83Z" fill="var(--fill-0, #ED9DA0)"/>
<path id="Vector_4" d="M59.4051 126.821H0V126.341H59.4933L59.4051 126.821Z" fill="var(--fill-0, #F2F2F2)"/>
<path id="Vector_5" d="M45.4472 57.9422L47.8133 60.6632L44.7532 115.958H38.2141L34.9186 73.4097L24.6967 117.099L17.899 115.449L24.0798 59.959L45.4472 57.9422Z" fill="var(--fill-0, #090814)"/>
<path id="Vector_6" d="M25.6602 22.2426L32.1706 19.0103L42.1823 19.1845L50.798 23.547L45.8959 47.772L48.0133 60.4027C39.8292 62.468 31.2609 62.5379 23.0435 60.6063L22.9781 60.5907C22.9781 60.5907 27.8447 43.5042 25.7729 38.2898L25.6602 22.2426Z" fill="var(--fill-0, #70A5FF)"/>
<path id="Vector_7" d="M44.4947 9.33192C44.4874 7.39915 43.7055 5.54819 42.3205 4.18531C40.9355 2.82242 39.0607 2.05898 37.1074 2.06256C35.1542 2.06614 33.2822 2.83645 31.9023 4.2044C30.5224 5.57235 29.7475 7.42617 29.7475 9.35896C29.7475 11.2917 30.5224 13.1456 31.9023 14.5135C33.2822 15.8815 35.1542 16.6518 37.1074 16.6553C39.0607 16.6589 40.9355 15.8955 42.3205 14.5326C43.7055 13.1697 44.4874 11.3188 44.4947 9.38598V9.33192Z" fill="var(--fill-0, #ED9DA0)"/>
<path id="Vector_8" d="M24.7617 39.905C24.9018 40.2611 25.1191 40.5825 25.3983 40.8465C25.6775 41.1105 26.0119 41.3108 26.3777 41.4331C26.7436 41.5555 27.1322 41.597 27.516 41.5547C27.8998 41.5124 28.2696 41.3873 28.5993 41.1883L41.8179 48.103L42.245 44.9166L29.3999 37.4213C29.0253 36.8953 28.4687 36.5235 27.8356 36.3764C27.2025 36.2293 26.5369 36.3172 25.9649 36.6233C25.3929 36.9295 24.9543 37.4326 24.7322 38.0374C24.5101 38.6422 24.5199 39.3067 24.7599 39.9048L24.7617 39.905Z" fill="var(--fill-0, #ED9DA0)"/>
<path id="Vector_9" d="M42.3777 40.456C42.1622 40.7732 41.8791 41.0397 41.5483 41.237C41.2175 41.4342 40.847 41.5572 40.4629 41.5974C40.0788 41.6376 39.6905 41.5939 39.3253 41.4696C38.9601 41.3452 38.6269 41.1431 38.3492 40.8775L23.9207 44.7629L24.0464 40.7174L38.3991 37.0287C38.8808 36.5957 39.5063 36.3529 40.157 36.3461C40.8076 36.3393 41.4382 36.5691 41.929 36.9919C42.4197 37.4147 42.7366 38.0011 42.8194 38.6398C42.9022 39.2784 42.7452 39.925 42.3781 40.4566L42.3777 40.456Z" fill="var(--fill-0, #ED9DA0)"/>
<path id="Vector_10" d="M47.9846 23.7225L50.7978 23.5481C50.7978 23.5481 54.0914 27.8486 52.2646 32.5151C52.2646 32.5151 52.5812 49.2786 45.2864 48.5899C37.9917 47.9012 35.6872 47.9003 35.6872 47.9003L37.8768 41.8563L42.7754 40.3597C42.7754 40.3597 41.2656 33.7698 44.1242 31.0278L47.9846 23.7225Z" fill="var(--fill-0, #70A5FF)"/>
<path id="Vector_11" d="M27.6702 23.5753L27.2725 21.5583C27.2725 21.5583 21.4089 21.4215 20.2496 30.2139C20.2496 30.2139 14.9768 43.3719 20.1451 45.0663C25.3133 46.7607 30.9985 45.0663 30.9985 45.0663L30.5713 39.2632L24.8851 38.1153C24.8851 38.1153 27.8226 34.3546 26.2231 31.0926L27.6702 23.5753Z" fill="var(--fill-0, #70A5FF)"/>
<path id="Vector_12" d="M39.6735 12.9152C39.1313 12.7045 38.5306 12.715 37.9573 12.6115C35.9075 12.2378 34.3265 10.1697 34.5212 8.11623C34.5701 7.85018 34.5745 7.57799 34.5344 7.31051C34.3924 6.72457 33.7343 6.41003 33.1296 6.33996C32.5249 6.26989 31.9004 6.35953 31.3123 6.20382C30.4043 5.96313 29.7258 5.14361 29.4959 4.2418C29.3 3.32453 29.4023 2.36947 29.7881 1.51321L30.0702 2.09536C30.3637 1.78723 30.5639 1.4038 30.648 0.988669C30.8945 1.00169 31.1336 1.07716 31.3422 1.20784C31.5509 1.33852 31.7221 1.52004 31.8395 1.73499C32.2039 1.89604 32.1594 1.07209 32.5226 0.909031C32.6862 0.870005 32.8586 0.892189 33.0066 0.971317C33.8072 1.23715 34.656 0.837842 35.4492 0.552659C36.8231 0.0594294 38.295 -0.106998 39.7459 0.0668276C40.7098 0.18317 41.683 0.465239 42.4334 1.07476C43.0263 1.60617 43.5083 2.24723 43.8524 2.96181C44.7782 4.67469 45.4757 6.56352 45.4568 8.50618C45.4381 10.0964 44.9437 11.6456 44.0361 12.9581C43.564 13.639 42.0353 16.0012 41.0201 15.7412C39.7436 15.4153 41.2006 13.5078 39.6735 12.9152Z" fill="var(--fill-0, #2F2E41)"/>
<path id="Vector_13" d="M40.9386 121.486C40.9386 121.486 39.0445 119.065 38.7693 120.014C38.4941 120.964 34.6735 123.991 34.6735 123.991C34.6735 123.991 29.2778 125.885 32.9569 126.929C36.6359 127.973 38.4185 127.794 38.4185 127.794L42.9902 126.351C42.9902 126.351 44.2709 125.515 44.3179 124.159C44.3648 122.802 43.7501 120.742 43.7501 120.742C43.7501 120.742 41.9667 122.121 40.9386 121.486Z" fill="var(--fill-0, #090814)"/>
<path id="Vector_14" d="M20.514 120.585C20.514 120.585 20.1696 118.881 18.9644 119.733C17.7592 120.585 14.4876 123.141 14.4876 123.141C14.4876 123.141 8.461 124.504 12.2492 126.208C16.0374 127.912 24.6466 125.526 24.6466 125.526C24.6466 125.526 24.991 120.074 24.6466 120.244C24.3022 120.415 20.6862 120.926 20.514 120.585Z" fill="var(--fill-0, #090814)"/>
</g>
</svg>
