<svg preserveAspectRatio="none" width="100%" height="100%" overflow="visible" style="display: block;" viewBox="0 0 150 133" fill="none" xmlns="http://www.w3.org/2000/svg">
<g id="Group">
<g id="Group_2">
<g id="Group_3">
<path id="Vector" d="M150 31.3313H149.245V11.486C149.245 9.97762 148.935 8.48401 148.334 7.09045C147.732 5.6969 146.851 4.43068 145.739 3.36411C144.628 2.29753 143.309 1.45148 141.857 0.874269C140.405 0.297054 138.848 -2.11687e-05 137.277 2.44281e-06H93.4693C90.2953 2.44281e-06 87.2512 1.21013 85.0068 3.36417C82.7624 5.51821 81.5016 8.43972 81.5016 11.486V120.357C81.5016 123.403 82.7624 126.325 85.0068 128.479C87.2512 130.633 90.2953 131.843 93.4693 131.843H137.277C140.451 131.843 143.495 130.633 145.739 128.479C147.984 126.325 149.244 123.403 149.244 120.357V45.4556H150V31.3313Z" fill="var(--fill-0, #090814)"/>
<path id="Vector_2" d="M137.761 2.98877H132.044C132.307 3.60762 132.408 4.27907 132.337 4.94395C132.265 5.60882 132.025 6.24671 131.637 6.80141C131.248 7.3561 130.723 7.81057 130.109 8.12477C129.494 8.43896 128.808 8.60324 128.112 8.60312H103.013C102.317 8.60327 101.631 8.43901 101.017 8.12483C100.402 7.81065 99.8772 7.35618 99.4887 6.80148C99.1002 6.24678 98.8598 5.60888 98.7887 4.94399C98.7176 4.2791 98.818 3.60764 99.081 2.98877H93.7419C91.3716 2.98877 89.0983 3.89248 87.4222 5.50109C85.7462 7.1097 84.8045 9.29144 84.8045 11.5664V120.278C84.8045 121.404 85.0357 122.52 85.4848 123.561C85.934 124.601 86.5923 125.547 87.4222 126.343C88.2521 127.14 89.2373 127.772 90.3216 128.203C91.4059 128.634 92.5681 128.856 93.7417 128.856H137.761C140.131 128.856 142.404 127.952 144.08 126.343C145.756 124.735 146.698 122.553 146.698 120.278V11.5664C146.698 9.29165 145.757 7.11006 144.081 5.50148C142.405 3.8929 140.132 2.98906 137.762 2.98877H137.761Z" fill="var(--fill-0, white)"/>
</g>
<path id="Vector_3" d="M134.207 17.917H95.555C94.7272 17.917 94.0562 18.561 94.0562 19.3554V34.2656C94.0562 35.06 94.7272 35.704 95.555 35.704H134.207C135.035 35.704 135.706 35.06 135.706 34.2656V19.3554C135.706 18.561 135.035 17.917 134.207 17.917Z" fill="var(--fill-0, #E6E6E6)"/>
<g id="Group_4">
<path id="Vector_4" d="M96.2282 80.399C96.9639 80.399 97.5602 79.8267 97.5602 79.1207C97.5602 78.4147 96.9639 77.8423 96.2282 77.8423C95.4926 77.8423 94.8963 78.4147 94.8963 79.1207C94.8963 79.8267 95.4926 80.399 96.2282 80.399Z" fill="var(--fill-0, #E6E6E6)"/>
<path id="Vector_5" d="M101.717 78.4587C101.626 78.4572 101.535 78.4733 101.45 78.5059C101.365 78.5385 101.287 78.587 101.222 78.6486C101.157 78.7103 101.105 78.7837 101.07 78.8647C101.034 78.9458 101.016 79.0328 101.016 79.1206C101.016 79.2085 101.034 79.2954 101.07 79.3765C101.105 79.4575 101.157 79.531 101.222 79.5926C101.287 79.6542 101.365 79.7027 101.45 79.7353C101.535 79.7679 101.626 79.784 101.717 79.7825H134.231C134.322 79.7841 134.412 79.7684 134.496 79.7366C134.58 79.7047 134.657 79.6571 134.723 79.5967C134.788 79.5362 134.84 79.464 134.876 79.3842C134.912 79.3044 134.931 79.2185 134.933 79.1315C134.934 79.0445 134.918 78.9581 134.885 78.8772C134.851 78.7963 134.802 78.7225 134.739 78.66C134.675 78.5975 134.6 78.5475 134.517 78.513C134.434 78.4785 134.344 78.46 134.254 78.4587H101.717Z" fill="var(--fill-0, #E6E6E6)"/>
<path id="Vector_6" d="M96.2282 86.608C96.9639 86.608 97.5602 86.0356 97.5602 85.3296C97.5602 84.6236 96.9639 84.0513 96.2282 84.0513C95.4926 84.0513 94.8963 84.6236 94.8963 85.3296C94.8963 86.0356 95.4926 86.608 96.2282 86.608Z" fill="var(--fill-0, #E6E6E6)"/>
<path id="Vector_7" d="M101.717 84.6676C101.626 84.6662 101.535 84.6822 101.45 84.7148C101.365 84.7475 101.287 84.796 101.222 84.8576C101.157 84.9192 101.105 84.9927 101.07 85.0737C101.034 85.1547 101.016 85.2417 101.016 85.3295C101.016 85.4174 101.034 85.5044 101.07 85.5854C101.105 85.6664 101.157 85.7399 101.222 85.8015C101.287 85.8631 101.365 85.9116 101.45 85.9443C101.535 85.9769 101.626 85.9929 101.717 85.9915H134.231C134.322 85.993 134.412 85.9774 134.496 85.9455C134.58 85.9136 134.657 85.8661 134.723 85.8056C134.788 85.7451 134.84 85.6729 134.876 85.5931C134.912 85.5133 134.931 85.4274 134.933 85.3404C134.934 85.2534 134.918 85.167 134.885 85.0861C134.851 85.0052 134.802 84.9314 134.739 84.8689C134.675 84.8064 134.6 84.7565 134.517 84.7219C134.434 84.6874 134.344 84.6689 134.254 84.6676H101.717Z" fill="var(--fill-0, #E6E6E6)"/>
<path id="Vector_8" d="M96.2282 92.8169C96.9639 92.8169 97.5602 92.2446 97.5602 91.5386C97.5602 90.8326 96.9639 90.2602 96.2282 90.2602C95.4926 90.2602 94.8963 90.8326 94.8963 91.5386C94.8963 92.2446 95.4926 92.8169 96.2282 92.8169Z" fill="var(--fill-0, #E6E6E6)"/>
<path id="Vector_9" d="M101.717 90.8766C101.626 90.8751 101.535 90.8912 101.45 90.9238C101.365 90.9564 101.287 91.0049 101.222 91.0665C101.157 91.1281 101.105 91.2016 101.07 91.2826C101.034 91.3637 101.016 91.4506 101.016 91.5385C101.016 91.6263 101.034 91.7133 101.07 91.7943C101.105 91.8754 101.157 91.9488 101.222 92.0104C101.287 92.072 101.365 92.1206 101.45 92.1532C101.535 92.1858 101.626 92.2018 101.717 92.2004H134.231C134.322 92.2019 134.412 92.1863 134.496 92.1544C134.58 92.1225 134.657 92.075 134.723 92.0145C134.788 91.9541 134.84 91.8819 134.876 91.802C134.912 91.7222 134.931 91.6364 134.933 91.5494C134.934 91.4624 134.918 91.3759 134.885 91.295C134.851 91.2141 134.802 91.1403 134.739 91.0778C134.675 91.0153 134.6 90.9654 134.517 90.9309C134.434 90.8963 134.344 90.8779 134.254 90.8766H101.717Z" fill="var(--fill-0, #E6E6E6)"/>
<path id="Vector_10" d="M96.2282 99.0259C96.9639 99.0259 97.5602 98.4535 97.5602 97.7475C97.5602 97.0415 96.9639 96.4692 96.2282 96.4692C95.4926 96.4692 94.8963 97.0415 94.8963 97.7475C94.8963 98.4535 95.4926 99.0259 96.2282 99.0259Z" fill="var(--fill-0, #E6E6E6)"/>
<path id="Vector_11" d="M101.717 97.0855C101.626 97.0841 101.535 97.1001 101.45 97.1327C101.365 97.1653 101.287 97.2139 101.222 97.2755C101.157 97.3371 101.105 97.4105 101.07 97.4916C101.034 97.5726 101.016 97.6596 101.016 97.7474C101.016 97.8353 101.034 97.9223 101.07 98.0033C101.105 98.0843 101.157 98.1578 101.222 98.2194C101.287 98.281 101.365 98.3295 101.45 98.3621C101.535 98.3947 101.626 98.4108 101.717 98.4094H134.231C134.414 98.412 134.59 98.3449 134.721 98.2229C134.853 98.1008 134.928 97.9337 134.931 97.7583C134.934 97.5829 134.864 97.4135 134.737 97.2874C134.61 97.1612 134.436 97.0886 134.254 97.0855H101.717Z" fill="var(--fill-0, #E6E6E6)"/>
<path id="Vector_12" d="M96.2282 105.235C96.9639 105.235 97.5602 104.662 97.5602 103.956C97.5602 103.25 96.9639 102.678 96.2282 102.678C95.4926 102.678 94.8963 103.25 94.8963 103.956C94.8963 104.662 95.4926 105.235 96.2282 105.235Z" fill="var(--fill-0, #E6E6E6)"/>
<path id="Vector_13" d="M101.717 103.294C101.626 103.293 101.535 103.309 101.45 103.342C101.365 103.374 101.287 103.423 101.222 103.484C101.157 103.546 101.105 103.619 101.07 103.701C101.034 103.782 101.016 103.869 101.016 103.956C101.016 104.044 101.034 104.131 101.07 104.212C101.105 104.293 101.157 104.367 101.222 104.428C101.287 104.49 101.365 104.538 101.45 104.571C101.535 104.604 101.626 104.62 101.717 104.618H134.231C134.322 104.62 134.412 104.604 134.496 104.572C134.58 104.54 134.657 104.493 134.723 104.432C134.788 104.372 134.84 104.3 134.876 104.22C134.912 104.14 134.931 104.054 134.933 103.967C134.934 103.88 134.918 103.794 134.885 103.713C134.851 103.632 134.802 103.558 134.739 103.496C134.675 103.433 134.6 103.383 134.517 103.349C134.434 103.314 134.344 103.296 134.254 103.294H101.717Z" fill="var(--fill-0, #E6E6E6)"/>
<path id="Vector_14" d="M96.2282 111.444C96.9639 111.444 97.5602 110.871 97.5602 110.165C97.5602 109.459 96.9639 108.887 96.2282 108.887C95.4926 108.887 94.8963 109.459 94.8963 110.165C94.8963 110.871 95.4926 111.444 96.2282 111.444Z" fill="var(--fill-0, #E6E6E6)"/>
<path id="Vector_15" d="M101.717 109.503C101.626 109.502 101.535 109.518 101.45 109.551C101.365 109.583 101.287 109.632 101.222 109.693C101.157 109.755 101.105 109.828 101.07 109.909C101.034 109.99 101.016 110.077 101.016 110.165C101.016 110.253 101.034 110.34 101.07 110.421C101.105 110.502 101.157 110.576 101.222 110.637C101.287 110.699 101.365 110.747 101.45 110.78C101.535 110.813 101.626 110.829 101.717 110.827H134.231C134.322 110.829 134.412 110.813 134.496 110.781C134.58 110.749 134.657 110.702 134.723 110.641C134.788 110.581 134.84 110.509 134.876 110.429C134.912 110.349 134.931 110.263 134.933 110.176C134.934 110.089 134.918 110.003 134.885 109.922C134.851 109.841 134.802 109.767 134.739 109.705C134.675 109.642 134.6 109.592 134.517 109.558C134.434 109.523 134.344 109.505 134.254 109.503H101.717Z" fill="var(--fill-0, #E6E6E6)"/>
<path id="Vector_16" d="M96.2282 117.653C96.9639 117.653 97.5602 117.08 97.5602 116.374C97.5602 115.668 96.9639 115.096 96.2282 115.096C95.4926 115.096 94.8963 115.668 94.8963 116.374C94.8963 117.08 95.4926 117.653 96.2282 117.653Z" fill="var(--fill-0, #E6E6E6)"/>
<path id="Vector_17" d="M101.717 115.712C101.626 115.711 101.535 115.727 101.45 115.76C101.365 115.792 101.287 115.841 101.222 115.902C101.157 115.964 101.105 116.037 101.07 116.118C101.034 116.199 101.016 116.286 101.016 116.374C101.016 116.462 101.034 116.549 101.07 116.63C101.105 116.711 101.157 116.785 101.222 116.846C101.287 116.908 101.365 116.956 101.45 116.989C101.535 117.022 101.626 117.038 101.717 117.036H134.231C134.322 117.038 134.412 117.022 134.496 116.99C134.58 116.958 134.657 116.911 134.723 116.85C134.788 116.79 134.84 116.718 134.876 116.638C134.912 116.558 134.931 116.472 134.933 116.385C134.934 116.298 134.918 116.212 134.885 116.131C134.851 116.05 134.802 115.976 134.739 115.914C134.675 115.851 134.6 115.801 134.517 115.767C134.434 115.732 134.344 115.714 134.254 115.712H101.717Z" fill="var(--fill-0, #E6E6E6)"/>
</g>
</g>
<path id="Vector_18" d="M13.9496 131.087C21.6537 131.087 27.8992 130.63 27.8992 130.066C27.8992 129.502 21.6537 129.045 13.9496 129.045C6.24545 129.045 0 129.502 0 130.066C0 130.63 6.24545 131.087 13.9496 131.087Z" fill="var(--fill-0, #E6E6E6)"/>
<path id="Vector_19" d="M44.0408 133C51.745 133 57.9904 132.543 57.9904 131.979C57.9904 131.415 51.745 130.958 44.0408 130.958C36.3367 130.958 30.0912 131.415 30.0912 131.979C30.0912 132.543 36.3367 133 44.0408 133Z" fill="var(--fill-0, #E6E6E6)"/>
<path id="Vector_20" d="M116.67 43.9281H61.4781C60.6504 43.9281 59.9794 44.5721 59.9794 45.3665V67.3531C59.9794 68.1475 60.6504 68.7915 61.4781 68.7915H116.67C117.498 68.7915 118.169 68.1475 118.169 67.3531V45.3665C118.169 44.5721 117.498 43.9281 116.67 43.9281Z" fill="var(--fill-0, #70A5FF)"/>
<path id="Vector_21" d="M75.9921 61.9542C79.1972 61.9542 81.7953 59.4606 81.7953 56.3846C81.7953 53.3086 79.1972 50.815 75.9921 50.815C72.7871 50.815 70.189 53.3086 70.189 56.3846C70.189 59.4606 72.7871 61.9542 75.9921 61.9542Z" fill="var(--fill-0, white)"/>
<path id="Vector_22" d="M89.0909 55.6442C88.9109 55.6442 88.7383 55.7128 88.6111 55.8349C88.4838 55.9571 88.4123 56.1227 88.4123 56.2954C88.4123 56.4681 88.4838 56.6338 88.6111 56.7559C88.7383 56.878 88.9109 56.9467 89.0909 56.9467H107.413C107.593 56.9495 107.766 56.8836 107.896 56.7635C108.025 56.6434 108.099 56.4788 108.102 56.3061C108.105 56.1334 108.037 55.9666 107.911 55.8425C107.786 55.7184 107.615 55.647 107.435 55.6442H89.0909Z" fill="var(--fill-0, white)"/>
<path id="Vector_23" d="M89.0909 51.8706C88.9109 51.8706 88.7383 51.9392 88.6111 52.0614C88.4838 52.1835 88.4123 52.3491 88.4123 52.5218C88.4123 52.6946 88.4838 52.8602 88.6111 52.9823C88.7383 53.1045 88.9109 53.1731 89.0909 53.1731H98.2408C98.4208 53.1759 98.5946 53.11 98.7239 52.9899C98.8533 52.8698 98.9276 52.7053 98.9305 52.5325C98.9335 52.3598 98.8648 52.193 98.7397 52.0689C98.6145 51.9448 98.4431 51.8735 98.2631 51.8706H89.0909Z" fill="var(--fill-0, white)"/>
<path id="Vector_24" d="M89.0909 59.5963C88.9109 59.5963 88.7383 59.6649 88.6111 59.7871C88.4838 59.9092 88.4123 60.0748 88.4123 60.2476C88.4123 60.4203 88.4838 60.5859 88.6111 60.708C88.7383 60.8302 88.9109 60.8988 89.0909 60.8988H107.413C107.593 60.9016 107.766 60.8357 107.896 60.7156C108.025 60.5955 108.099 60.431 108.102 60.2583C108.105 60.0855 108.037 59.9188 107.911 59.7946C107.786 59.6705 107.615 59.5992 107.435 59.5963H89.0909Z" fill="var(--fill-0, white)"/>
<g id="Group_5">
<path id="Vector_25" d="M31.438 99.0385C31.5129 100.815 30.331 102.389 29.2242 103.804C28.7195 104.467 24.0284 108.959 22.6112 110.922C22.268 111.398 13.8437 120.73 13.4129 121.595C13.3114 121.799 13.2277 122.012 13.1628 122.23C12.9104 123.058 12.8994 123.951 12.9215 124.835V125.453C12.9657 126.801 13.03 128.158 13.3642 129.464C13.4129 129.656 13.4681 129.849 13.497 130.042C13.4076 129.986 13.3232 129.923 13.2446 129.853L8.66572 126.593L8.38022 126.389C8.08797 125.577 7.81127 124.757 7.49972 123.956C7.3137 123.48 7.51302 122.936 7.84068 122.539C8.19564 122.162 8.58706 121.819 9.00967 121.514C9.33407 121.192 9.62338 120.839 9.87311 120.46C13.032 116.047 21.9293 100.212 22.578 97.0247C23.4331 96.8718 24.3093 96.8611 25.1682 96.9929L29.7353 97.5751C30.2289 97.6389 30.7692 97.7259 31.0901 98.0893C31.3093 98.3616 31.4313 98.6944 31.438 99.0385Z" fill="var(--fill-0, #ED9DA0)"/>
<path id="Vector_26" d="M50.9332 102.66C50.8359 103.322 50.5921 103.956 50.2181 104.521C49.7488 105.207 44.358 118.514 42.6823 124.009C42.3745 125.018 42.5361 125.993 42.503 126.331C42.4764 126.612 42.452 126.892 42.4299 127.17C42.399 127.517 42.3737 127.863 42.348 128.207C42.2795 129.119 42.2197 130.077 42.6204 130.906C42.7776 131.233 43.0138 131.516 43.1186 131.843C42.9622 131.766 42.8176 131.668 42.6886 131.554L38.1104 128.292C37.7369 127.277 37.4488 126.235 37.2487 125.175C37.1335 124.574 37.0782 123.884 37.4701 123.423C37.4926 123.394 37.517 123.367 37.5432 123.342C37.671 123.227 37.8139 123.128 37.9683 123.049C38.1098 122.974 38.2459 122.89 38.3755 122.798C38.4728 122.725 38.5605 122.64 38.6367 122.547C39.013 122.101 39.1481 121.474 39.2611 120.886C39.7038 118.476 43.4541 103.692 43.3825 103.327C43.305 102.967 41.1753 99.5236 39.7142 98.7587C41.2307 97.5399 42.9604 96.5888 44.823 95.9499C45.1511 95.8032 45.5143 95.7438 45.8745 95.7778C46.0673 95.8186 46.2514 95.8904 46.4191 95.9904C47.4219 96.5298 48.1902 97.38 48.9251 98.2299C50.021 99.5086 51.117 101.013 50.9332 102.66Z" fill="var(--fill-0, #ED9DA0)"/>
<path id="Vector_27" d="M40.7176 114.557C40.1584 114.831 43.8496 103.69 43.0315 103.812C41.8031 103.995 36.0284 93.7172 34.7123 93.8376C33.1299 93.9825 32.4534 102.083 30.8884 102.123C30.2544 102.139 24.3139 110.708 23.5647 110.98C18.401 112.848 17.0242 111.883 16.0437 110.548C15.4416 110.408 22.1029 98.2549 22.1007 97.9235C22.1007 97.3457 22.5353 90.568 23.5647 87.5658C23.8216 86.82 24.0074 86.0555 24.2976 85.3183C25.5507 81.9953 26.0886 79.4456 28.3777 76.6792C28.728 76.2909 29.016 75.8546 29.2323 75.3847C29.4288 74.8208 29.5312 74.2306 29.5356 73.636L29.6619 71.5559C33.0557 71.4029 36.3521 71.4646 39.6729 72.153C39.7621 72.1505 39.8509 72.1648 39.9344 72.1952C40.0178 72.2257 40.0942 72.2716 40.1592 72.3303C40.2241 72.3891 40.2764 72.4595 40.313 72.5377C40.3495 72.6158 40.3697 72.7001 40.3724 72.7857V72.7904C40.5008 73.551 40.5908 74.3152 40.6425 75.083C40.644 75.2526 40.6692 75.4213 40.7175 75.5844C40.8046 75.7907 40.9256 75.9822 41.076 76.1517C42.9975 78.5696 44.1753 81.4634 45.1053 84.3616C46.0352 87.2598 46.7745 90.2386 47.9435 93.073C48.3464 94.0503 50.9988 101.076 51.105 102.124C51.2033 102.194 48.6057 113.564 47.9435 114.558C45.8871 117.643 43.0099 113.433 40.7176 114.557Z" fill="var(--fill-0, #090814)"/>
<path id="Vector_28" d="M52.161 62.6993C52.7455 62.2255 53.33 61.7496 53.8658 61.2269C54.6218 60.4579 55.3202 59.6386 55.9557 58.775C56.6332 57.889 57.3063 56.9817 57.7268 55.9576C58.2029 54.7848 58.349 53.4505 59.1768 52.4772C59.2706 52.3507 59.4008 52.2532 59.5515 52.1968C60.023 52.0544 60.3758 52.6216 60.4659 53.0913C60.9088 55.3901 59.8528 57.6849 58.8254 59.8054C58.4867 60.5045 58.1322 61.2226 57.5459 61.7517C57.224 62.0158 56.8877 62.2633 56.5385 62.4932C56.0199 62.8978 55.5426 63.3489 55.1129 63.8403C54.3749 64.6448 53.6731 65.4784 53.0076 66.3411C52.1818 67.4035 51.407 68.5166 50.4285 69.4539C49.45 70.3912 48.2258 71.1537 46.8554 71.3385C47.2473 71.2875 47.1188 69.0799 47.0768 68.8016C47.0171 68.3979 46.7293 67.922 46.7209 67.5268C46.7098 67.0424 46.9157 66.9723 47.332 66.6323L52.161 62.6993Z" fill="var(--fill-0, #ED9DA0)"/>
<path id="Vector_29" d="M35.7298 48.795C35.7298 48.795 34.4015 55.1692 32.8517 56.2316C31.3018 57.294 41.2643 58.569 41.2643 58.569C41.2643 58.569 41.4857 53.4695 44.1424 51.1324C46.799 48.7952 35.7298 48.795 35.7298 48.795Z" fill="var(--fill-0, #ED9DA0)"/>
<path id="Vector_30" d="M44.6559 74.1069C44.9843 74.2056 45.3281 74.2487 45.672 74.2343C46.8343 74.2222 47.9798 73.9662 49.0282 73.4842C49.1264 73.4477 49.2132 73.3878 49.2805 73.31C49.3197 73.2285 49.341 73.1401 49.3429 73.0504C49.3448 72.9607 49.3273 72.8715 49.2916 72.7886C48.6672 70.3664 49.8723 67.6191 48.6761 65.4052C47.3766 65.811 45.9509 66.2551 44.6514 66.6503C44.4521 66.728 44.2375 66.7628 44.0227 66.7523C43.7653 66.7009 43.5295 66.5775 43.3452 66.3975C41.9372 65.2288 41.0494 63.6013 40.2459 61.9925C39.4424 60.3836 38.6535 58.7247 37.3879 57.4157C36.1222 56.1068 34.9371 55.4142 33.0864 55.6034C32.4294 55.6896 31.8263 55.9986 31.3861 56.4745C30.3411 57.5533 30.133 59.1963 30.5006 60.6278C30.8681 62.0594 31.7115 63.3284 32.5883 64.5373C33.731 66.1138 34.9592 67.6671 36.5465 68.8377C37.4052 69.4346 38.2965 69.9871 39.2165 70.4929" fill="var(--fill-0, #E6E6E6)"/>
<path id="Vector_31" d="M40.9321 53.5754C44.6001 53.5754 47.5737 50.7216 47.5737 47.2013C47.5737 43.6809 44.6001 40.8271 40.9321 40.8271C37.2641 40.8271 34.2906 43.6809 34.2906 47.2013C34.2906 50.7216 37.2641 53.5754 40.9321 53.5754Z" fill="var(--fill-0, #ED9DA0)"/>
<path id="Vector_32" d="M43.5888 65.5464C41.5921 67.8059 41.1702 70.6927 40.7617 73.5418C38.7558 72.8894 36.5332 73.9837 34.4566 73.5842C33.4137 73.251 32.3103 73.128 31.2156 73.2232C30.4476 73.1529 29.6858 72.6897 28.9532 72.9256C27.7355 73.6662 28.9213 69.0779 28.8488 67.7454C28.2104 45.2548 47.2175 56.1958 43.5888 65.5464Z" fill="var(--fill-0, #70A5FF)"/>
<path id="Vector_33" d="M54.8177 63.549C55.4022 63.0752 55.9867 62.5993 56.5224 62.0766C57.2784 61.3076 57.9768 60.4883 58.6124 59.6247C59.2898 58.7387 59.9629 57.8314 60.3835 56.8073C60.8595 55.6345 61.0056 54.3002 61.8335 53.327C61.9272 53.2004 62.0575 53.1029 62.2082 53.0465C62.6797 52.9041 63.0325 53.4713 63.1226 53.941C63.5654 56.2399 62.5094 58.5346 61.482 60.6551C61.1433 61.3542 60.7889 62.0723 60.2025 62.6014C59.8806 62.8655 59.5444 63.113 59.1952 63.3429C58.6766 63.7476 58.1992 64.1986 57.7696 64.69C57.0316 65.4945 56.3298 66.3281 55.6642 67.1908C54.8385 68.2532 54.0636 69.3663 53.0852 70.3034C52.1067 71.2405 50.8824 72.0032 49.5121 72.1881C49.904 72.137 49.7754 69.9294 49.7335 69.6511C49.6737 69.2475 49.386 68.7716 49.3775 68.3764C49.3665 67.892 49.5724 67.8219 49.9886 67.4819L54.8177 63.549Z" fill="var(--fill-0, #ED9DA0)"/>
<path id="Vector_34" d="M35.743 56.4545C35.0861 56.5407 34.4829 56.8497 34.0428 57.3257C32.9978 58.4044 32.7897 60.0474 33.1572 61.479C33.5248 62.9105 34.3682 64.1795 35.2449 65.3885C36.3877 66.965 37.6159 68.5182 39.2034 69.6889C40.0621 70.2858 40.9533 70.8383 41.8733 71.3441C43.402 72.2478 44.8707 71.9664 46.2722 73.0439C46.5794 73.3108 46.9311 73.5263 47.3127 73.6813C47.6411 73.78 47.985 73.8232 48.3288 73.8088C49.4903 73.7967 50.6366 73.1156 51.685 72.6338C51.7832 72.5973 51.87 72.5373 51.9373 72.4596C51.9766 72.3781 51.9978 72.2897 51.9997 72.2C52.0016 72.1102 51.9841 72.0211 51.9484 71.9381C51.3242 69.5159 52.5291 68.4681 51.333 66.2544C50.0334 66.6602 48.6078 67.1043 47.3082 67.4995C47.1089 67.5771 46.8943 67.6119 46.6795 67.6014C46.4221 67.5501 46.1863 67.4267 46.0021 67.2467C44.594 66.078 43.7062 64.4505 42.9027 62.8417C42.0993 61.2328 41.3104 59.5738 40.0447 58.2649C38.7791 56.956 37.5938 56.2663 35.743 56.4545Z" fill="var(--fill-0, #70A5FF)"/>
<path id="Vector_35" d="M44.9912 131.919C44.6953 132.208 44.3103 132.398 43.8933 132.461C43.4763 132.523 43.0494 132.456 42.6755 132.268C42.5194 132.191 42.3749 132.093 42.2461 131.979L37.668 128.717L35.8526 127.423C35.6617 127.252 35.5089 127.046 35.4035 126.817C35.2981 126.588 35.2423 126.341 35.2397 126.091C35.237 125.841 35.2874 125.593 35.3878 125.362C35.4882 125.131 35.6365 124.922 35.8238 124.748L37.0282 123.847L37.5263 123.473L38.1949 122.971L38.7794 122.534L42.5298 124.552L42.594 124.671L45.4322 129.923C45.5649 130.262 45.5939 130.63 45.5158 130.983C45.4378 131.337 45.2558 131.662 44.9916 131.919H44.9912Z" fill="var(--fill-0, #090814)"/>
<path id="Vector_36" d="M15.547 130.22C15.2511 130.508 14.8662 130.698 14.4492 130.761C14.0322 130.824 13.6052 130.756 13.2313 130.568C13.1706 130.538 13.1115 130.504 13.0543 130.468C12.9649 130.412 12.8805 130.349 12.802 130.279L8.22379 127.018L7.93828 126.814L6.40848 125.724C6.21752 125.553 6.06469 125.347 5.95931 125.119C5.85392 124.89 5.79818 124.642 5.79549 124.392C5.79279 124.142 5.84318 123.894 5.94361 123.663C6.04403 123.432 6.19238 123.223 6.37963 123.049L7.58402 122.148L8.08216 121.774L8.75077 121.272L9.33527 120.835L9.43043 120.886L12.7203 122.656L13.0856 122.854L13.1499 122.973L15.988 128.225C16.1205 128.563 16.1494 128.931 16.0712 129.284C15.9931 129.638 15.8112 129.962 15.547 130.22Z" fill="var(--fill-0, #090814)"/>
<path id="Vector_37" d="M47.48 46.2766C47.0898 44.4441 46.2332 44.0309 44.8147 42.7346C44.4775 42.7802 44.9035 44.4558 43.0478 46.7897C40.3501 50.1825 40.6189 47.0718 39.8212 48.1168C39.6481 48.3437 39.6107 49.1623 39.6676 49.4439C39.8924 50.5567 41.2225 49.4701 39.8212 53.2779C39.6127 53.574 39.3667 53.5021 39.0531 53.499C39.0288 53.499 39.188 53.4697 38.5923 53.3516C38.3079 53.2953 37.91 53.2286 37.4328 53.1515C31.8901 52.2552 29.9327 45.5428 34.217 42.0506C35.1912 41.2561 36.1484 40.654 36.9789 40.3749C39.4804 39.5345 45.1802 40.0808 46.2747 42.8081C46.7966 44.1091 47.6402 44.9166 47.4802 46.2762L47.48 46.2766Z" fill="var(--fill-0, #090814)"/>
<path id="Vector_38" d="M35.3946 57.5768C37.5779 57.5768 39.3478 55.8782 39.3478 53.7828C39.3478 51.6873 37.5779 49.9887 35.3946 49.9887C33.2113 49.9887 31.4414 51.6873 31.4414 53.7828C31.4414 55.8782 33.2113 57.5768 35.3946 57.5768Z" fill="var(--fill-0, #090814)"/>
</g>
</g>
</svg>
