<svg preserveAspectRatio="none" width="100%" height="100%" overflow="visible" style="display: block;" viewBox="0 0 169.997 151.999" fill="none" xmlns="http://www.w3.org/2000/svg">
<g id="Group">
<path id="Vector" d="M0.000127439 145.141C-0.00154003 145.22 0.0131718 145.299 0.043335 145.372C0.0711371 145.433 0.108856 145.467 0.148169 145.467H35.0639C35.1457 145.467 35.2121 145.321 35.2121 145.142C35.2121 144.963 35.1457 144.817 35.0639 144.817H0.148346C0.109033 144.817 0.0713141 144.851 0.043512 144.912C0.0133487 144.985 -0.00136304 145.063 0.000304425 145.142L0.000127439 145.141Z" fill="var(--fill-0, #E6E6E6)"/>
<g id="Group_2">
<path id="Vector_2" d="M135.695 0H38.2615C37.453 0.000844526 36.6779 0.322672 36.1062 0.89486C35.5345 1.46705 35.2129 2.24286 35.2121 3.05206V54.4996C35.2129 55.3088 35.5345 56.0846 36.1062 56.6568C36.6779 57.229 37.453 57.5508 38.2615 57.5516H135.695C136.504 57.5508 137.279 57.229 137.851 56.6568C138.422 56.0846 138.744 55.3088 138.745 54.4996V3.05046C138.743 2.24155 138.422 1.46618 137.85 0.894346C137.278 0.322513 136.503 0.000890472 135.695 0ZM138.454 54.501C138.453 55.2332 138.163 55.9351 137.645 56.4529C137.128 56.9706 136.427 57.2617 135.695 57.2624H38.2615C37.53 57.2617 36.8286 56.9706 36.3113 56.4529C35.7941 55.9351 35.5032 55.2332 35.5025 54.501V3.05046C35.5032 2.3183 35.7941 1.61631 36.3113 1.09859C36.8286 0.580874 37.53 0.289733 38.2615 0.289076H135.695C136.427 0.289733 137.128 0.580874 137.645 1.09859C138.163 1.61631 138.453 2.3183 138.454 3.05046V54.501Z" fill="var(--fill-0, #3F3D56)"/>
<path id="Vector_3" d="M130.903 8.33608H43.053C43.0339 8.33608 43.015 8.33233 42.9974 8.32502C42.9798 8.31772 42.9638 8.30701 42.9503 8.29351C42.9368 8.28002 42.9261 8.264 42.9188 8.24637C42.9115 8.22873 42.9078 8.20983 42.9078 8.19075C42.9078 8.17166 42.9115 8.15276 42.9188 8.13513C42.9261 8.1175 42.9368 8.10147 42.9503 8.08798C42.9638 8.07448 42.9798 8.06378 42.9974 8.05647C43.015 8.04917 43.0339 8.04541 43.053 8.04541H130.903C130.942 8.04541 130.979 8.06072 131.006 8.08798C131.033 8.11523 131.048 8.1522 131.048 8.19075C131.048 8.22929 131.033 8.26626 131.006 8.29351C130.979 8.32077 130.942 8.33608 130.903 8.33608Z" fill="var(--fill-0, #3F3D56)"/>
<path id="Vector_4" d="M67.8834 51.3024C67.8449 51.3024 67.808 51.2871 67.7808 51.2598C67.7535 51.2325 67.7382 51.1956 67.7382 51.157V3.34202C67.7382 3.30347 67.7535 3.26651 67.7808 3.23925C67.808 3.21199 67.8449 3.19668 67.8834 3.19668C67.9219 3.19668 67.9589 3.21199 67.9861 3.23925C68.0133 3.26651 68.0286 3.30347 68.0286 3.34202V51.157C68.0286 51.1956 68.0133 51.2325 67.9861 51.2598C67.9589 51.2871 67.9219 51.3024 67.8834 51.3024Z" fill="var(--fill-0, #3F3D56)"/>
<path id="Vector_5" d="M89.8097 51.3024C89.7712 51.3024 89.7343 51.2871 89.707 51.2598C89.6798 51.2325 89.6645 51.1956 89.6645 51.157V3.34202C89.6645 3.30347 89.6798 3.26651 89.707 3.23925C89.7343 3.21199 89.7712 3.19668 89.8097 3.19668C89.8482 3.19668 89.8852 3.21199 89.9124 3.23925C89.9396 3.26651 89.9549 3.30347 89.9549 3.34202V51.157C89.9549 51.1761 89.9512 51.195 89.9439 51.2126C89.9366 51.2303 89.9259 51.2463 89.9124 51.2598C89.8989 51.2733 89.8829 51.284 89.8653 51.2913C89.8477 51.2986 89.8288 51.3024 89.8097 51.3024Z" fill="var(--fill-0, #3F3D56)"/>
<path id="Vector_6" d="M111.736 51.3024C111.698 51.3024 111.661 51.2871 111.633 51.2598C111.606 51.2325 111.591 51.1956 111.591 51.157V3.34202C111.591 3.30347 111.606 3.26651 111.633 3.23925C111.661 3.21199 111.698 3.19668 111.736 3.19668C111.775 3.19668 111.812 3.21199 111.839 3.23925C111.866 3.26651 111.881 3.30347 111.881 3.34202V51.157C111.881 51.1956 111.866 51.2325 111.839 51.2598C111.812 51.2871 111.775 51.3024 111.736 51.3024Z" fill="var(--fill-0, #3F3D56)"/>
<path id="Vector_7" d="M53.7864 23.3379H48.4797C48.3066 23.3377 48.1406 23.2687 48.0182 23.1462C47.8958 23.0237 47.8269 22.8576 47.8266 22.6843V16.4173C47.8269 16.244 47.8958 16.0779 48.0182 15.9554C48.1406 15.8329 48.3066 15.7639 48.4797 15.7636H53.7855C53.9586 15.7639 54.1245 15.8329 54.247 15.9554C54.3694 16.0779 54.4383 16.244 54.4386 16.4173V22.6841C54.4383 22.8574 54.3694 23.0235 54.247 23.146C54.1245 23.2685 53.9586 23.3375 53.7855 23.3378L53.7864 23.3379Z" fill="var(--fill-0, #70A5FF)"/>
<path id="Vector_8" d="M78.4714 27.1167H73.1648C72.9916 27.1164 72.8257 27.0474 72.7033 26.9249C72.5809 26.8024 72.512 26.6363 72.5117 26.463V20.196C72.512 20.0228 72.5809 19.8567 72.7033 19.7341C72.8257 19.6116 72.9916 19.5427 73.1648 19.5424H78.4707C78.6438 19.5427 78.8098 19.6116 78.9322 19.7341C79.0546 19.8567 79.1235 20.0228 79.1238 20.196V26.4628C79.1236 26.6362 79.0548 26.8024 78.9323 26.925C78.8099 27.0476 78.6439 27.1166 78.4707 27.1169L78.4714 27.1167Z" fill="var(--fill-0, #70A5FF)"/>
<path id="Vector_9" d="M100.688 20.2859H95.3815C95.2083 20.2856 95.0424 20.2167 94.92 20.0941C94.7976 19.9716 94.7287 19.8055 94.7284 19.6322V13.3652C94.7287 13.192 94.7976 13.0259 94.92 12.9033C95.0424 12.7808 95.2083 12.7119 95.3815 12.7116H100.687C100.86 12.7119 101.026 12.7808 101.149 12.9033C101.271 13.0259 101.34 13.192 101.34 13.3652V19.6321C101.34 19.8054 101.271 19.9716 101.149 20.0942C101.026 20.2168 100.86 20.2858 100.687 20.2861L100.688 20.2859Z" fill="var(--fill-0, #70A5FF)"/>
<path id="Vector_10" d="M121.162 20.2859H115.856C115.683 20.2856 115.517 20.2167 115.394 20.0941C115.272 19.9716 115.203 19.8055 115.203 19.6322V13.3652C115.203 13.192 115.272 13.0259 115.394 12.9033C115.517 12.7808 115.683 12.7119 115.856 12.7116H121.161C121.335 12.7119 121.501 12.7808 121.623 12.9033C121.745 13.0259 121.814 13.192 121.815 13.3652V19.6321C121.814 19.8053 121.745 19.9714 121.623 20.094C121.501 20.2165 121.335 20.2854 121.161 20.2857L121.162 20.2859Z" fill="var(--fill-0, #70A5FF)"/>
<path id="Vector_11" d="M130.601 22.0299H125.294C125.121 22.0296 124.955 21.9607 124.833 21.8382C124.71 21.7156 124.641 21.5495 124.641 21.3763V15.1093C124.641 14.936 124.71 14.7699 124.833 14.6474C124.955 14.5249 125.121 14.4559 125.294 14.4556H130.6C130.773 14.4559 130.939 14.5249 131.061 14.6474C131.184 14.7699 131.253 14.936 131.253 15.1093V21.3761C131.253 21.5492 131.184 21.7152 131.062 21.8378C130.939 21.9603 130.774 22.0294 130.601 22.0299Z" fill="var(--fill-0, #E6E6E6)"/>
<path id="Vector_12" d="M126.39 33.2206H121.083C120.91 33.2203 120.744 33.1514 120.621 33.0289C120.499 32.9063 120.43 32.7402 120.43 32.567V26.3C120.43 26.1267 120.499 25.9606 120.621 25.8381C120.744 25.7155 120.91 25.6466 121.083 25.6463H126.389C126.562 25.6466 126.728 25.7155 126.85 25.8381C126.973 25.9606 127.042 26.1267 127.042 26.3V32.5668C127.042 32.7399 126.973 32.9059 126.851 33.0285C126.728 33.151 126.563 33.2201 126.39 33.2206Z" fill="var(--fill-0, #E6E6E6)"/>
<path id="Vector_13" d="M108.384 30.8954H103.078C102.904 30.8951 102.738 30.8262 102.616 30.7037C102.494 30.5811 102.425 30.415 102.424 30.2418V23.9748C102.425 23.8015 102.494 23.6354 102.616 23.5129C102.738 23.3903 102.904 23.3214 103.078 23.3211H108.383C108.556 23.3214 108.722 23.3903 108.845 23.5129C108.967 23.6354 109.036 23.8015 109.036 23.9748V30.2416C109.036 30.4149 108.967 30.5811 108.845 30.7037C108.722 30.8263 108.556 30.8953 108.383 30.8956L108.384 30.8954Z" fill="var(--fill-0, #FF6584)"/>
<path id="Vector_14" d="M98.0744 33.2206H92.7677C92.5946 33.2203 92.4286 33.1514 92.3062 33.0289C92.1838 32.9063 92.1149 32.7402 92.1146 32.567V26.3C92.1149 26.1267 92.1838 25.9606 92.3062 25.8381C92.4286 25.7155 92.5946 25.6466 92.7677 25.6463H98.0735C98.2466 25.6466 98.4126 25.7155 98.535 25.8381C98.6574 25.9606 98.7263 26.1267 98.7266 26.3V32.5668C98.7263 32.7399 98.6576 32.9059 98.5353 33.0285C98.4131 33.151 98.2474 33.2201 98.0744 33.2206Z" fill="var(--fill-0, #E6E6E6)"/>
<path id="Vector_15" d="M75.8579 43.1033H70.5512C70.3781 43.103 70.2121 43.0341 70.0897 42.9115C69.9673 42.789 69.8984 42.6229 69.8981 42.4496V36.1826C69.8984 36.0094 69.9673 35.8433 70.0897 35.7207C70.2121 35.5982 70.3781 35.5293 70.5512 35.529H75.857C76.0301 35.5293 76.196 35.5982 76.3185 35.7207C76.4409 35.8433 76.5098 36.0094 76.51 36.1826V42.4494C76.5098 42.6227 76.4409 42.7888 76.3185 42.9113C76.196 43.0339 76.0301 43.1028 75.857 43.1031L75.8579 43.1033Z" fill="var(--fill-0, #E6E6E6)"/>
<path id="Vector_16" d="M58.5357 34.8195H53.2291C53.056 34.8192 52.89 34.7503 52.7676 34.6277C52.6452 34.5052 52.5763 34.3391 52.576 34.1658V27.8988C52.5763 27.7256 52.6452 27.5595 52.7676 27.4369C52.89 27.3144 53.056 27.2455 53.2291 27.2452H58.5348C58.708 27.2455 58.8739 27.3144 58.9963 27.4369C59.1188 27.5595 59.1876 27.7256 59.1879 27.8988V34.1657C59.1876 34.3389 59.1188 34.505 58.9963 34.6276C58.8739 34.7501 58.708 34.819 58.5348 34.8193L58.5357 34.8195Z" fill="var(--fill-0, #FF6584)"/>
<path id="Vector_17" d="M63.9508 23.3379H58.6441C58.471 23.3377 58.305 23.2687 58.1826 23.1462C58.0602 23.0237 57.9913 22.8576 57.991 22.6843V16.4173C57.9913 16.244 58.0602 16.0779 58.1826 15.9554C58.305 15.8329 58.471 15.7639 58.6441 15.7636H63.9501C64.1232 15.7639 64.2891 15.8329 64.4115 15.9554C64.534 16.0779 64.6029 16.244 64.6031 16.4173V22.6841C64.6029 22.8574 64.534 23.0235 64.4115 23.146C64.2891 23.2685 64.1232 23.3375 63.9501 23.3378L63.9508 23.3379Z" fill="var(--fill-0, #E6E6E6)"/>
<path id="Vector_18" d="M59.6069 5.95824H51.33C51.176 5.95824 51.0283 5.89699 50.9193 5.78797C50.8104 5.67895 50.7492 5.53108 50.7492 5.3769C50.7492 5.22272 50.8104 5.07485 50.9193 4.96583C51.0283 4.85681 51.176 4.79556 51.33 4.79556H59.6069C59.761 4.79556 59.9087 4.85681 60.0176 4.96583C60.1265 5.07485 60.1877 5.22272 60.1877 5.3769C60.1877 5.53108 60.1265 5.67895 60.0176 5.78797C59.9087 5.89699 59.761 5.95824 59.6069 5.95824Z" fill="var(--fill-0, #CCCCCC)"/>
<path id="Vector_19" d="M82.9849 5.95824H74.708C74.554 5.95824 74.4063 5.89699 74.2973 5.78797C74.1884 5.67895 74.1272 5.53108 74.1272 5.3769C74.1272 5.22272 74.1884 5.07485 74.2973 4.96583C74.4063 4.85681 74.554 4.79556 74.708 4.79556H82.9849C83.139 4.79556 83.2867 4.85681 83.3956 4.96583C83.5046 5.07485 83.5658 5.22272 83.5658 5.3769C83.5658 5.53108 83.5046 5.67895 83.3956 5.78797C83.2867 5.89699 83.139 5.95824 82.9849 5.95824Z" fill="var(--fill-0, #CCCCCC)"/>
<path id="Vector_20" d="M104.911 5.95824H96.6343C96.4803 5.95824 96.3325 5.89699 96.2236 5.78797C96.1147 5.67895 96.0535 5.53108 96.0535 5.3769C96.0535 5.22272 96.1147 5.07485 96.2236 4.96583C96.3325 4.85681 96.4803 4.79556 96.6343 4.79556H104.911C105.065 4.79556 105.213 4.85681 105.322 4.96583C105.431 5.07485 105.492 5.22272 105.492 5.3769C105.492 5.53108 105.431 5.67895 105.322 5.78797C105.213 5.89699 105.065 5.95824 104.911 5.95824Z" fill="var(--fill-0, #CCCCCC)"/>
<path id="Vector_21" d="M125.385 5.95824H117.109C116.954 5.95824 116.807 5.89699 116.698 5.78797C116.589 5.67895 116.528 5.53108 116.528 5.3769C116.528 5.22272 116.589 5.07485 116.698 4.96583C116.807 4.85681 116.954 4.79556 117.109 4.79556H125.385C125.539 4.79556 125.687 4.85681 125.796 4.96583C125.905 5.07485 125.966 5.22272 125.966 5.3769C125.966 5.53108 125.905 5.67895 125.796 5.78797C125.687 5.89699 125.539 5.95824 125.385 5.95824Z" fill="var(--fill-0, #CCCCCC)"/>
</g>
<g id="Group_3">
<path id="Vector_22" d="M58.6986 110.386H61.2664L61.8846 101.972L58.6986 101.297V110.386Z" fill="var(--fill-0, #ED9DA0)"/>
<path id="Vector_23" d="M67.4954 110.328C67.5765 110.561 67.6177 110.807 67.6175 111.054C67.6175 111.286 67.5256 111.508 67.3622 111.671C67.1988 111.835 66.9772 111.927 66.746 111.927H58.7945C58.6368 111.927 58.4856 111.864 58.3741 111.753C58.2626 111.641 58.2 111.49 58.2 111.332V111C58.2 111 57.8067 110.004 58.6165 108.777C58.6165 108.777 59.6236 109.738 61.1273 108.233L61.5701 107.429L64.7816 109.778L66.5613 109.998C66.9509 110.046 67.2959 109.99 67.496 110.328L67.4954 110.328Z" fill="var(--fill-0, #090814)"/>
<path id="Vector_24" d="M72.2753 110.386H74.843L75.3043 102.173L71.6144 99.672L72.2753 110.386Z" fill="var(--fill-0, #ED9DA0)"/>
<path id="Vector_25" d="M81.0722 110.328C81.1533 110.561 81.1945 110.807 81.1943 111.054C81.1943 111.286 81.1024 111.508 80.939 111.671C80.7756 111.835 80.554 111.927 80.3228 111.927H72.3713C72.2136 111.927 72.0624 111.864 71.9509 111.753C71.8394 111.641 71.7768 111.49 71.7768 111.332V111C71.7768 111 71.3835 110.004 72.1933 108.777C72.1933 108.777 73.2004 109.738 74.7042 108.233L75.1469 107.429L78.3584 109.778L80.1381 109.998C80.5277 110.046 80.8727 109.99 81.0728 110.328L81.0722 110.328Z" fill="var(--fill-0, #090814)"/>
<path id="Vector_26" d="M69.3608 51.4174V48.5638C70.1691 48.2709 70.8595 47.7214 71.3267 46.9991C71.7939 46.2769 72.0123 45.4215 71.9486 44.5634C71.8849 43.7054 71.5425 42.8918 70.9738 42.2466C70.405 41.6014 69.6411 41.1601 68.7984 40.9899C67.9557 40.8198 67.0805 40.9301 66.3064 41.3041C65.5322 41.6781 64.9014 42.2953 64.5103 43.0615C64.1192 43.8277 63.9892 44.7009 64.14 45.5479C64.2909 46.395 64.7144 47.1694 65.346 47.7532L64.7312 51.4174H69.3608Z" fill="var(--fill-0, #ED9DA0)"/>
<path id="Vector_27" d="M80.7847 37.8414C80.9169 38.0065 81.0114 38.1985 81.0614 38.404C81.1115 38.6096 81.1159 38.8236 81.0744 39.031C81.0328 39.2384 80.9463 39.4342 80.821 39.6046C80.6957 39.775 80.5346 39.9157 80.349 40.017L81.1944 45.0891L78.7542 44.0051L78.3264 39.3549C78.1771 39.0316 78.1514 38.6648 78.2542 38.3239C78.357 37.983 78.5812 37.6916 78.8843 37.5051C79.1874 37.3186 79.5483 37.2498 79.8987 37.3117C80.2491 37.3737 80.5645 37.5622 80.7854 37.8414H80.7847Z" fill="var(--fill-0, #ED9DA0)"/>
<path id="Vector_28" d="M73.0523 72.0664L73.7984 73.0485C73.7984 73.0485 73.8658 73.507 74.997 77.2422L75.6306 107.734L71.8765 108.034L66.8455 82.8541L61.9255 107.734L58.2829 108.034L58.5375 79.9162C58.5375 79.9162 58.1265 74.5584 59.5834 73.5631C61.0402 72.5677 73.0523 72.0664 73.0523 72.0664Z" fill="var(--fill-0, #090814)"/>
<path id="Vector_29" d="M64.0549 45.4742L64.1201 45.3439C64.2206 45.1426 65.0535 43.4684 65.1581 43.0379L66.2066 43.162H68.9364L68.5569 42.592L69.5597 42.7229C69.9263 42.7675 70.2768 42.8997 70.5817 43.1084C70.7687 43.2328 70.9268 43.396 71.0453 43.587C71.404 44.2009 71.9507 45.2052 71.9558 45.2153L72.0089 45.3119L72.4642 44.5462C72.4702 44.5164 73.0337 41.5742 71.1474 40.576C70.8786 40.0503 70.4625 39.6143 69.95 39.3216C69.4375 39.0288 68.8509 38.8919 68.2619 38.9277C68.0465 38.6819 67.7431 38.5309 67.4174 38.5075C66.9699 38.4841 66.5054 38.7202 66.0389 39.2097C65.4191 39.8609 64.5707 40.7517 64.0575 41.7426L63.9159 41.9449C63.7147 42.2341 63.6151 42.582 63.6326 42.934C63.5237 43.4956 63.5625 44.0758 63.745 44.6178L64.0549 45.4742Z" fill="var(--fill-0, #090814)"/>
<path id="Vector_30" d="M65.0166 49.2156L62.8367 50.4208L58.5552 51.6207L59.8332 62.8353L59.6007 73.8821C59.6007 73.8821 66.8482 78.8513 73.7971 73.048V59.1438L73.3859 51.6209C73.3859 51.6209 71.723 51.148 70.8855 51.9636L69.2974 49.8988L65.0166 49.2156Z" fill="var(--fill-0, #E6E6E6)"/>
<path id="Vector_31" d="M72.4265 52.6545L73.3868 51.6214L78.679 51.0214L78.1831 42.8862L81.0676 40.8258C81.0676 40.8258 83.6734 50.6937 83.1875 52.2788C82.7016 53.8638 73.3948 59.1436 73.3948 59.1436L72.4265 52.6545Z" fill="var(--fill-0, #E6E6E6)"/>
<path id="Vector_32" d="M61.6991 77.5329C61.7387 77.325 61.7322 77.111 61.6801 76.9059C61.628 76.7009 61.5317 76.5097 61.3978 76.346C61.2639 76.1822 61.0958 76.0498 60.9053 75.9582C60.7147 75.8665 60.5064 75.8178 60.2951 75.8154L58.6659 70.9389L57.019 73.0414L58.8176 77.3496C58.837 77.7053 58.9861 78.0416 59.2367 78.2946C59.4873 78.5476 59.8219 78.6998 60.1772 78.7224C60.5324 78.7449 60.8836 78.6361 61.164 78.4167C61.4445 78.1974 61.6348 77.8826 61.6988 77.5321L61.6991 77.5329Z" fill="var(--fill-0, #ED9DA0)"/>
<path id="Vector_33" d="M60.164 52.905L58.5556 51.6207C58.5556 51.6207 56.9108 52.5287 56.4104 54.1568C55.9099 55.7849 55.0339 65.0526 55.0339 65.0526L57.4112 76.9503L60.07 75.1052L58.7875 65.6793L61.0399 58.7912L60.164 52.905Z" fill="var(--fill-0, #E6E6E6)"/>
</g>
<g id="Group_4">
<path id="Vector_34" d="M21.2096 70.084C20.9797 70.8271 20.7988 71.5844 20.6679 72.3511C20.5703 72.9257 20.5135 73.5641 20.8425 74.0439C19.5885 72.156 18.2792 70.2113 16.3741 68.9926C16.762 68.5715 17.0571 68.0735 17.2401 67.5309C17.4232 66.9882 17.4901 66.4131 17.4366 65.8429C17.4258 65.7291 19.0006 66.3241 19.121 66.3923C19.6735 66.7 20.18 67.0821 20.7189 67.4114C20.9978 67.5809 22.1596 67.9825 22.171 68.2246C22.171 68.3804 21.7091 68.8575 21.622 69.0222C21.4519 69.3632 21.3136 69.7192 21.2089 70.0856L21.2096 70.084Z" fill="var(--fill-0, #ED9DA0)"/>
<path id="Vector_35" d="M15.3828 141.287C15.6924 141.068 16.0552 140.938 16.4328 140.909C16.8104 140.881 17.1888 140.955 17.5277 141.124C18.1411 141.441 18.5547 142.042 19.1118 142.448C20.0706 143.145 21.3365 143.2 22.4587 143.577C22.7566 143.678 23.0736 143.827 23.1993 144.119C23.2416 144.243 23.2585 144.373 23.2489 144.503C23.2394 144.633 23.2036 144.76 23.1437 144.875C22.956 145.294 22.6272 145.633 22.2149 145.833C21.7116 146.075 21.1317 146.085 20.5737 146.092L15.726 146.149C14.2335 146.138 12.7417 146.212 11.2575 146.37C10.9122 146.413 10.5385 146.461 10.2339 146.291C9.73812 146.02 9.68145 145.334 9.71934 144.769C9.81911 143.337 10.1388 141.929 10.6671 140.595C10.7254 140.447 10.8026 140.279 10.9664 140.252C11.0826 140.247 11.1969 140.283 11.2887 140.355C12.6563 141.168 14.3876 141.628 15.8423 140.976" fill="var(--fill-0, #D6D6E3)"/>
<path id="Vector_36" d="M12.9557 110.333C13.4974 113.481 13.144 116.716 12.5346 119.851C12.4225 120.475 12.2747 121.092 12.0919 121.699C11.8737 122.39 11.58 123.054 11.3756 123.75C10.8555 125.511 10.9288 127.395 11.0066 129.235L11.362 137.603C11.3919 138.305 11.4188 139.023 11.2075 139.693C11.1224 139.964 11.0179 140.303 11.2332 140.486C11.3173 140.546 11.4156 140.584 11.5185 140.596C12.4873 140.775 13.488 140.625 14.3621 140.17L14.4583 131.716C14.4882 129.111 14.5192 126.493 14.9201 123.919C15.2389 121.873 15.7908 119.853 15.8273 117.782C15.8652 115.614 15.3343 113.474 14.7928 111.372C14.6763 110.922 14.2511 110.592 13.9019 110.288C13.78 110.168 13.6317 110.077 13.4687 110.025C13.3056 109.979 13.0563 110.196 12.9557 110.333Z" fill="var(--fill-0, #090814)"/>
<path id="Vector_37" opacity="0.1" d="M12.9552 110.333C13.4969 113.481 13.1434 116.716 12.5341 119.851C12.4219 120.475 12.2741 121.092 12.0914 121.699C11.8732 122.39 11.5794 123.054 11.3751 123.75C10.855 125.511 10.9283 127.395 11.006 129.235L11.3614 137.603C11.3914 138.305 11.4183 139.023 11.207 139.693C11.1218 139.964 11.0174 140.303 11.2327 140.486C11.3168 140.546 11.415 140.584 11.518 140.596C12.4867 140.775 13.4875 140.625 14.3616 140.17L14.4577 131.716C14.4877 129.111 14.5187 126.493 14.9196 123.919C15.2383 121.873 15.7903 119.853 15.8268 117.782C15.8647 115.614 15.3338 113.474 14.7922 111.372C14.6757 110.922 14.2506 110.592 13.9013 110.288C13.7795 110.168 13.6311 110.077 13.4682 110.025C13.3051 109.979 13.0558 110.196 12.9552 110.333Z" fill="var(--fill-0, black)"/>
<path id="Vector_38" d="M23.1244 100.495C23.3247 101.32 22.8995 102.175 22.9473 103.024C22.9744 103.538 23.1763 104.049 23.0828 104.554C22.9893 105.058 22.6298 105.437 22.4368 105.899C22.2966 106.285 22.2225 106.692 22.2175 107.103C22.1619 108.117 22.2065 109.136 22.2446 110.146C22.3082 111.84 22.3557 113.543 22.1322 115.222C21.9374 116.677 19.9186 124.067 19.4138 125.168C19.0685 125.924 17.0917 143.153 16.8507 143.398C16.5935 143.627 16.2946 143.804 15.9704 143.919C14.9723 144.346 13.9392 144.779 12.856 144.769C12.7245 144.776 12.5932 144.752 12.4728 144.698C12.2908 144.572 12.1586 144.386 12.0992 144.173L11.544 142.798C11.4769 142.632 11.4085 142.436 11.502 142.282C11.5671 142.197 11.6458 142.124 11.7349 142.065C12.1831 141.687 12.0816 140.981 11.9625 140.413C11.6582 138.955 11.4897 137.471 11.459 135.982C11.3995 133.011 11.8883 130.058 12.3758 127.127C12.5166 126.104 12.7431 125.094 13.0528 124.109C13.3892 123.133 13.8868 122.194 13.8057 121.18C13.7191 120.085 14.0033 118.937 13.8057 117.857C13.6081 116.777 13.2954 115.719 13.0935 114.641C12.8321 113.24 12.7671 111.814 12.6873 110.393C12.6538 109.813 12.61 109.214 12.3393 108.699C12.181 108.398 11.9508 108.141 11.7726 107.849C11.3149 107.092 11.2414 106.153 10.8045 105.383C10.5973 105.018 10.3115 104.697 10.1601 104.306C10.0536 103.998 9.99791 103.675 9.99506 103.349C9.95218 102.532 9.99759 101.711 10.1305 100.903C12.4355 99.7293 14.9919 99.1356 17.5779 99.1737C18.5702 99.1615 19.5573 99.3166 20.498 99.6326C21.3835 99.961 22.1901 100.423 23.1244 100.495Z" fill="var(--fill-0, #090814)"/>
<path id="Vector_39" d="M17.5725 143.431C17.9705 143.927 17.9434 144.636 18.1979 145.22C18.5066 145.929 19.1945 146.383 19.8471 146.796L23.9092 149.371C24.1493 149.486 24.3411 149.683 24.4509 149.925C24.4895 150.086 24.4825 150.255 24.4305 150.412C24.3336 150.753 24.1528 151.063 23.9048 151.315C23.6569 151.567 23.3497 151.752 23.0114 151.854C22.652 151.94 22.2828 151.978 21.9135 151.967L20.0867 151.991C19.5303 152.013 18.973 151.991 18.42 151.926C17.9135 151.853 17.4205 151.708 16.9169 151.616C16.0001 151.449 15.0575 151.465 14.1397 151.303C13.5775 151.192 13.0223 151.049 12.4769 150.873C11.8135 150.674 11.1378 150.467 10.569 150.072C10.4125 149.977 10.2854 149.84 10.2021 149.677C10.1306 149.442 10.1344 149.192 10.213 148.96L11.0855 145.124C11.1348 144.805 11.2511 144.5 11.4268 144.228C11.5174 144.095 11.6471 143.992 11.7981 143.935C11.9491 143.878 12.1141 143.869 12.2704 143.909C12.395 143.966 12.5126 144.037 12.621 144.121C13.0871 144.396 13.6397 144.486 14.1687 144.372C14.51 144.311 14.9608 144.217 15.2357 143.991C15.4443 143.819 15.5064 143.552 15.6839 143.356C15.8082 143.229 15.9581 143.128 16.1236 143.062C16.2892 142.996 16.4668 142.966 16.6449 142.973C16.8231 142.98 16.9977 143.024 17.1576 143.103C17.3174 143.182 17.4589 143.294 17.5728 143.431H17.5725Z" fill="var(--fill-0, #D6D6E3)"/>
<path id="Vector_40" d="M20.2062 69.5559C22.9082 69.5559 25.0987 67.3635 25.0987 64.6591C25.0987 61.9547 22.9082 59.7623 20.2062 59.7623C17.5042 59.7623 15.3138 61.9547 15.3138 64.6591C15.3138 67.3635 17.5042 69.5559 20.2062 69.5559Z" fill="var(--fill-0, #ED9DA0)"/>
<path id="Vector_41" d="M24.2689 65.2172C23.8005 64.9542 23.8005 64.1967 23.3209 63.9446C22.8414 63.6926 22.2974 64.1304 21.9898 64.5723C21.5418 65.2193 21.2308 65.9512 21.0759 66.723C21.0588 66.9483 20.9716 67.1626 20.8267 67.3358C20.6561 67.4647 20.4474 67.5329 20.2337 67.5295C19.6153 67.5909 18.996 67.6469 18.3759 67.6975C17.6853 67.7532 16.9569 67.7984 16.3299 67.5009C16.0824 67.3903 15.8698 67.2141 15.715 66.9914C15.5909 66.7776 15.5021 66.545 15.4522 66.3028C15.1285 65.0708 14.8022 63.8241 14.7752 62.5501C14.7363 62.0232 14.8358 61.4953 15.0637 61.0188C15.2114 60.7478 15.428 60.5119 15.4887 60.2138C15.5211 60.0553 17.0106 58.4169 18.7173 57.8177C20.424 57.2184 22.1527 57.8209 22.316 57.8177C22.6654 57.8109 23.0256 57.6821 23.3563 57.7987C23.3085 57.8863 23.2805 57.9834 23.2745 58.0831C23.2685 58.1827 23.2846 58.2825 23.3216 58.3752C23.3586 58.4679 23.4156 58.5513 23.4886 58.6194C23.5615 58.6875 23.6486 58.7386 23.7436 58.7691L23.5796 59.1269C23.7485 59.1607 23.9046 59.241 24.0303 59.3588C24.1559 59.4767 24.2461 59.6274 24.2906 59.7939C24.4707 60.5055 24.4261 61.5165 24.3827 62.2483C24.3609 62.5691 24.0482 65.0969 24.2689 65.2172Z" fill="var(--fill-0, #192534)"/>
<path id="Vector_42" d="M19.8053 70.9706C22.2629 73.7366 22.8887 77.6305 23.4128 81.2965L24.1846 86.7094C24.3848 88.1135 24.5908 89.5174 24.7654 90.9256C24.8872 91.8892 25.0004 92.8678 24.8683 93.8298C24.7642 94.5887 24.5108 95.3206 24.2997 96.0511C23.75 97.9673 23.4764 99.9522 23.4872 101.946C23.3234 101.463 22.756 101.268 22.2577 101.16C18.0766 100.252 13.7143 100.718 9.81904 102.489C9.13514 100.571 9.26389 98.4733 9.07281 96.4451C8.80205 93.5542 7.86865 90.7529 7.59276 87.8668C7.49129 86.792 7.47907 85.7119 7.46879 84.6318C7.43122 83.8386 7.48116 83.0437 7.61772 82.2614C7.80224 81.4023 8.19058 80.6012 8.59274 79.8219C9.70443 77.6557 10.9396 75.5552 12.292 73.5308C12.9727 72.512 13.6827 71.5132 14.422 70.5344C14.7966 70.0381 15.1788 69.5478 15.5688 69.0633C15.9467 68.5931 16.1105 68.1851 16.7097 68.4669C17.8439 68.9983 18.9808 70.0431 19.8053 70.9706Z" fill="var(--fill-0, #70A5FF)"/>
<path id="Vector_43" d="M18.3973 93.9945C18.9969 94.0162 19.5972 93.9972 20.1942 93.9376C20.6369 93.8943 21.0891 93.8291 21.5212 93.9376C21.7091 93.9849 21.8849 94.0712 22.0373 94.191C22.0937 94.2413 22.1343 94.3069 22.1541 94.38C22.1738 94.453 22.1718 94.5301 22.1484 94.6021C22.125 94.674 22.0811 94.7375 22.0222 94.7848C21.9633 94.8322 21.8918 94.8613 21.8166 94.8686L21.3535 94.9092C21.0598 94.9349 20.7538 94.9648 20.5248 95.1802C20.4308 95.2649 20.3711 95.3811 20.3569 95.5068C20.3286 95.8225 20.602 95.9948 20.8471 96.1261C21.1956 96.2899 17.5622 97.9382 16.667 97.5166C15.5932 97.0178 14.8579 95.9444 14.5615 94.7979C14.4577 94.4636 14.4394 94.1085 14.5084 93.7653C14.7074 92.9941 15.658 92.8167 16.2686 93.1893C17.0175 93.6644 17.452 93.964 18.3973 93.9945Z" fill="var(--fill-0, #ED9DA0)"/>
<path id="Vector_44" opacity="0.1" d="M17.7456 79.4823C17.0111 80.6177 15.7359 81.2574 14.6415 82.0548C14.3748 82.2286 14.1422 82.4501 13.9553 82.7081C13.6793 83.1345 13.6403 83.6765 13.6972 84.1791C13.7929 84.839 13.9591 85.4867 14.193 86.111L14.6516 87.4818C14.9424 88.3515 14.9854 89.4733 15.5385 90.2042C15.6801 90.3901 16.8599 92.4566 16.8535 92.6896C16.8413 92.8244 16.7951 92.9538 16.7193 93.0657C16.3617 93.6506 15.0246 91.9617 14.357 92.1106C14.1588 92.1611 13.9511 92.1611 13.7529 92.1106C13.4776 91.9991 13.2378 91.8147 13.0593 91.5771C12.1147 90.534 11.1704 89.4765 10.4881 88.2519C9.82169 87.0575 9.62406 85.8541 9.25679 84.5405C9.10558 84.0568 9.00023 83.5599 8.94212 83.0563C8.89013 82.1069 9.08841 81.1604 9.5171 80.3118C9.92209 79.4579 10.2786 78.5617 10.8521 77.8108C11.3939 77.0731 11.996 76.3817 12.652 75.7436C13.7938 74.6754 15.1907 74.0475 16.7187 74.6534C17.7977 75.082 18.2016 75.976 18.2981 77.1208C18.3803 77.9473 18.1863 78.7778 17.7465 79.4821L17.7456 79.4823Z" fill="var(--fill-0, black)"/>
<path id="Vector_45" d="M18.8554 78.4527C17.9075 79.9178 16.261 80.7432 14.8512 81.7719C14.5081 81.9985 14.2094 82.286 13.9697 82.6203C13.6138 83.1698 13.5635 83.8686 13.6366 84.518C13.7603 85.3698 13.9751 86.2059 14.2771 87.0118L14.8689 88.7735C15.244 89.8956 15.6314 91.0395 16.3454 91.9842C16.5268 92.224 16.7395 92.4789 16.7313 92.7818C16.7164 92.9554 16.6566 93.1221 16.5579 93.2656C16.3299 93.6388 16.0292 93.9622 15.6738 94.2167C15.3183 94.4712 14.9154 94.6515 14.4889 94.747C14.2332 94.8119 13.9654 94.8119 13.7097 94.747C13.3441 94.6407 13.0706 94.3404 12.8148 94.0599C11.5961 92.7128 10.3774 91.3493 9.49728 89.7707C8.63736 88.2298 9.2251 77.2656 9.96567 76.2964C10.6672 75.3496 11.4457 74.4625 12.2934 73.6442C13.7653 72.2671 15.5677 71.4555 17.5392 72.2387C18.9317 72.7917 19.4517 73.9436 19.5785 75.4223C19.6779 76.4848 19.4243 77.5504 18.857 78.454L18.8554 78.4527Z" fill="var(--fill-0, #70A5FF)"/>
</g>
<path id="Vector_46" d="M82.9308 40.644L79.2947 39.1718C79.1762 39.1235 79.0816 39.0303 79.0317 38.9124C78.9817 38.7944 78.9805 38.6615 79.0283 38.5427L80.7641 34.2481C80.8123 34.1294 80.9055 34.0348 81.0233 33.9848C81.1411 33.9348 81.2739 33.9336 81.3926 33.9814L85.0286 35.4536C85.1471 35.5019 85.2416 35.5952 85.2915 35.713C85.3413 35.8309 85.3425 35.9637 85.2948 36.0825L83.5591 40.377C83.5109 40.4957 83.4177 40.5905 83.2999 40.6405C83.182 40.6906 83.0492 40.6918 82.9304 40.644L82.9308 40.644Z" fill="var(--fill-0, #70A5FF)"/>
<path id="Vector_47" d="M45.3901 112.251C45.3884 112.331 45.4071 112.411 45.4445 112.482C45.4561 112.508 45.4744 112.53 45.4976 112.547C45.5208 112.564 45.548 112.574 45.5764 112.576H89.4708C89.5737 112.576 89.6571 112.431 89.6571 112.252C89.6571 112.072 89.5737 111.927 89.4708 111.927H45.5761C45.5476 111.93 45.5204 111.94 45.4972 111.956C45.4741 111.973 45.4557 111.996 45.4441 112.022C45.4067 112.093 45.388 112.172 45.3898 112.252L45.3901 112.251Z" fill="var(--fill-0, #E6E6E6)"/>
<g id="Group_5">
<path id="Vector_48" d="M132.615 127.024V92.0517H118.582V127.024H117.653V92.0517H110.995V91.1216H137.076V92.0517H133.544V127.024H132.615Z" fill="var(--fill-0, #E6E6E6)"/>
</g>
<path id="Vector_49" d="M159.312 89.382L159.762 87.233C158.682 86.8675 157.759 86.1451 157.144 85.1847C156.529 84.2243 156.259 83.083 156.378 81.9485C156.497 80.8141 156.999 79.754 157.8 78.9428C158.601 78.1315 159.655 77.6173 160.787 77.4848C161.919 77.3523 163.062 77.6094 164.029 78.2137C164.995 78.818 165.728 79.7336 166.105 80.8099C166.483 81.8862 166.483 83.059 166.106 84.1356C165.729 85.2121 164.998 86.1282 164.031 86.7332L164.223 89.382H159.312Z" fill="var(--fill-0, #ED9DA0)"/>
<g id="Group_6">
<path id="Vector_50" d="M147.106 94.2483C147.106 94.2483 142.819 94.7642 143.542 91.372C144.265 87.9798 148.365 81.7143 148.365 81.7143L150.691 83.0202L148.021 89.3393L149.17 90.2471L147.106 94.2483Z" fill="var(--fill-0, #ED9DA0)"/>
<path id="Vector_51" d="M161.153 90.1188L160.549 95.091L145.413 95.0168L148.453 89.729L161.153 90.1188Z" fill="var(--fill-0, #70A5FF)"/>
<path id="Vector_52" d="M152.159 81.9784C153.085 80.6836 153.159 79.1491 152.324 78.5511C151.489 77.953 150.062 78.5179 149.136 79.8127C148.21 81.1075 148.136 82.642 148.97 83.2401C149.805 83.8381 151.232 83.2733 152.159 81.9784Z" fill="var(--fill-0, #ED9DA0)"/>
</g>
<g id="Group_7">
<path id="Vector_53" d="M128.42 91.4309L128.514 87.3533L116.055 88.3129L115.991 91.0755L128.42 91.4309Z" fill="var(--fill-0, #ED9DA0)"/>
<path id="Vector_54" d="M119.988 87.8256L119.392 89.2613L118.536 89.2888C118.536 89.2888 119.538 89.5959 119.816 91.4183L118.994 91.665C118.994 91.665 118.204 92.4025 116.727 92.3309L112.769 91.9996L112.755 90.6179L115.491 90.3015C115.491 90.3015 116.1 89.9002 113.083 88.25C113.083 88.25 112.083 87.6381 112.982 84.6166C113.04 84.4133 113.162 84.2339 113.329 84.1041C113.496 83.9742 113.7 83.9006 113.911 83.8938C114.033 83.8793 114.156 83.9096 114.258 83.9791C114.359 84.0485 114.432 84.1524 114.463 84.2715C114.69 85.0272 114.46 85.7807 115.085 86.2525C115.71 86.7243 119.987 87.8255 119.987 87.8255L119.988 87.8256Z" fill="var(--fill-0, #090814)"/>
</g>
<path id="Vector_55" d="M158.617 103.589C158.617 103.589 154.88 109.951 146.424 108.805C145.431 108.669 144.482 108.307 143.651 107.747C142.82 107.186 142.129 106.441 141.632 105.57C139.683 102.161 136.722 96.1904 137.682 92.8091L123.38 90.0778L122.253 86.6013L137.731 84.5884C138.401 84.5013 139.081 84.6153 139.686 84.9157C140.29 85.2161 140.792 85.6895 141.128 86.2759L148.667 99.4557L150.915 99.7014L158.617 103.589H158.617Z" fill="var(--fill-0, #090814)"/>
<path id="Vector_56" d="M128.511 92.3553L128.307 88.8161L117.578 90.5193L117.716 92.9177L128.511 92.3553Z" fill="var(--fill-0, #ED9DA0)"/>
<path id="Vector_57" opacity="0.046" d="M128.511 92.3555L128.307 88.8162L117.578 90.5195L117.716 92.9179L128.511 92.3555Z" fill="var(--fill-0, #090814)"/>
<path id="Vector_58" d="M120.145 89.3526L119.667 90.8311L118.817 90.9273C118.817 90.9273 119.84 91.1528 120.264 92.947L119.464 93.2593C119.464 93.2593 118.736 94.0583 117.259 94.1054L113.288 94.0939L113.162 92.7185L115.861 92.1825C115.861 92.1825 116.437 91.7334 113.296 90.3316C113.296 90.3316 112.252 89.8022 112.904 86.7186C112.946 86.5114 113.053 86.3228 113.209 86.18C113.365 86.0371 113.562 85.9473 113.772 85.9234C113.892 85.899 114.018 85.9193 114.124 85.9803C114.231 86.0413 114.312 86.1391 114.352 86.2553C114.64 86.99 114.471 87.7599 115.132 88.1798C115.792 88.5997 120.144 89.3529 120.144 89.3529L120.145 89.3526Z" fill="var(--fill-0, #090814)"/>
<path id="Vector_59" d="M159.791 103.038C159.791 103.038 156.578 109.68 148.057 109.218C147.056 109.163 146.081 108.879 145.208 108.387C144.335 107.895 143.587 107.208 143.021 106.38C140.804 103.138 137.373 97.4262 138.058 93.9794L123.582 92.4078L122.181 89.0334L137.446 85.7808C138.106 85.6402 138.794 85.6989 139.42 85.9497C140.047 86.2005 140.586 86.6319 140.967 87.1894L149.542 99.7187L151.802 99.7831L159.791 103.038Z" fill="var(--fill-0, #090814)"/>
<path id="Vector_60" d="M149.786 76.2612L149.042 76.8193L152.946 82.2141L153.689 82.028L149.786 76.2612Z" fill="var(--fill-0, #3F3D56)"/>
<path id="Vector_61" d="M162.291 88.9426C163.924 89.6829 163.16 94.0767 163.16 94.0767C163.16 94.0767 158.489 108.788 153.843 108.229V106.37C153.843 105.625 149.94 103.765 149.94 103.765L149.01 100.603L151.798 96.3244C152.715 94.0527 154.435 92.1984 156.631 91.1157C157.461 90.3424 158.405 89.702 159.431 89.217C160.381 88.7911 161.64 88.6473 162.291 88.9426Z" fill="var(--fill-0, #70A5FF)"/>
<path id="Vector_62" d="M144.137 86.5277L140.167 88.1082L147.957 98.4334L150.694 96.3262L144.137 86.5277Z" fill="var(--fill-0, #E6E6E6)"/>
<g id="Group_8">
<path id="Vector_63" d="M153.471 106.911C150.683 104.851 146.676 98.5258 146.676 98.5258L146.704 98.5047C146.1 98.1558 145.602 97.6485 145.264 97.0375C144.468 95.6586 144.544 94.1238 145.433 93.6104C146.322 93.0969 147.688 93.7983 148.483 95.1774C148.845 95.7787 149.035 96.4679 149.032 97.1699L153.471 101.989L154.772 101.316L157.56 104.85C157.56 104.85 156.727 107.487 154.966 107.487C154.527 107.487 154.029 107.323 153.471 106.911Z" fill="var(--fill-0, #ED9DA0)"/>
<path id="Vector_64" d="M159.605 90.3405L163.879 92.9449L157.56 106.711L153.471 101.13L159.605 90.3405Z" fill="var(--fill-0, #70A5FF)"/>
</g>
<path id="Vector_65" d="M159.698 127.024V108.708C158.817 109.186 157.667 109.541 156.167 109.683V127.024H155.237V109.741C155.056 109.747 154.87 109.75 154.68 109.75C151.82 109.734 148.964 109.537 146.13 109.159V127.025H145.2V109.034C144.265 108.902 143.385 108.761 142.573 108.62V127.024H141.644V108.454C138.934 107.954 137.208 107.5 137.208 107.5L141.855 106.682L152.422 107.512C154.836 107.702 156.871 105.429 156.548 102.789C156.537 102.701 156.524 102.613 156.51 102.524C155.98 99.3175 161.919 90.061 161.919 90.061C163.028 86.0596 164.979 84.4843 164.979 84.4843C165.342 84.5853 165.697 84.7121 166.042 84.8638C167.148 85.5648 167.481 87.1598 166.833 88.37C165.181 91.4539 161.776 98.5206 162.486 103.204C162.486 103.204 162.987 106.148 160.626 108.087V127.024H159.698Z" fill="var(--fill-0, #E6E6E6)"/>
<path id="Vector_66" d="M110.671 126.923C110.669 127.006 110.695 127.086 110.744 127.153C110.764 127.182 110.79 127.205 110.821 127.222C110.852 127.238 110.886 127.247 110.921 127.248H169.75C169.821 127.228 169.884 127.186 169.928 127.127C169.973 127.069 169.997 126.997 169.997 126.923C169.997 126.85 169.973 126.778 169.928 126.719C169.884 126.661 169.821 126.618 169.75 126.599H110.92C110.885 126.6 110.851 126.609 110.82 126.625C110.79 126.642 110.763 126.665 110.743 126.693C110.694 126.76 110.669 126.841 110.67 126.924L110.671 126.923Z" fill="var(--fill-0, #E6E6E6)"/>
<path id="Vector_67" d="M167.11 87.4969C167.11 87.4969 166.898 89.1053 164.936 89.1578L160.955 89.2641C160.955 89.2641 164.32 81.0672 162.937 81.9908C161.554 82.9144 157.864 79.0438 157.864 79.0438L156.774 81.0868C156.774 81.0868 154.173 80.1439 157.056 77.8354C157.056 77.8354 160.496 75.1738 164.147 76.772C167.799 78.3701 167.111 87.4965 167.111 87.4965L167.11 87.4969Z" fill="var(--fill-0, #090814)"/>
</g>
</svg>
