<svg preserveAspectRatio="none" width="100%" height="100%" overflow="visible" style="display: block;" viewBox="0 0 176.001 117" fill="none" xmlns="http://www.w3.org/2000/svg">
<g id="Group">
<path id="Vector" d="M94.8748 115.084C94.8748 115.228 94.9469 115.344 95.0367 115.344H175.839C175.93 115.344 176.001 115.229 176.001 115.084C176.001 114.94 175.929 114.825 175.839 114.825H95.0367C94.9469 114.825 94.8748 114.941 94.8748 115.084Z" fill="var(--fill-0, #F2F2F2)"/>
<path id="Vector_2" d="M126.205 0H1.76C0.787979 0 0 0.791695 0 1.7683V70.5512C0 71.5278 0.787979 72.3195 1.76 72.3195H126.205C127.177 72.3195 127.965 71.5278 127.965 70.5512V1.7683C127.965 0.791695 127.177 0 126.205 0Z" fill="var(--fill-0, white)"/>
<path id="Vector_3" d="M1.59962 0.401846C1.28156 0.402197 0.976622 0.529298 0.751718 0.755263C0.526814 0.981228 0.400309 1.2876 0.39996 1.60716V70.7123C0.400309 71.0319 0.526814 71.3383 0.751718 71.5642C0.976622 71.7902 1.28156 71.9173 1.59962 71.9176H126.365C126.683 71.9173 126.988 71.7902 127.213 71.5642C127.438 71.3383 127.564 71.0319 127.565 70.7123V1.60716C127.564 1.2876 127.438 0.981228 127.213 0.755263C126.988 0.529298 126.683 0.402197 126.365 0.401846H1.59962ZM1.59962 0H126.365C126.789 0 127.196 0.169326 127.496 0.470727C127.796 0.772129 127.965 1.18092 127.965 1.60716V70.7123C127.965 71.1386 127.796 71.5473 127.496 71.8488C127.196 72.1502 126.789 72.3195 126.365 72.3195H1.59962C1.17537 72.3195 0.768505 72.1502 0.468518 71.8488C0.168531 71.5473 0 71.1386 0 70.7123V1.60716C0 1.18092 0.168531 0.772129 0.468518 0.470727C0.768505 0.169326 1.17537 0 1.59962 0Z" fill="var(--fill-0, #090814)"/>
<path id="Vector_4" d="M2.64 0H125.325C126.025 0 126.696 0.279454 127.191 0.776885C127.686 1.27432 127.965 1.94898 127.965 2.65245V6.42843H0V2.65245C0 1.94898 0.278142 1.27432 0.773238 0.776885C1.26833 0.279454 1.93983 0 2.64 0Z" fill="var(--fill-0, #090814)"/>
<path id="Vector_5" d="M4.3989 2.00879C4.63617 2.00879 4.86811 2.07948 5.06539 2.21192C5.26268 2.34437 5.41644 2.53261 5.50724 2.75285C5.59804 2.9731 5.6218 3.21545 5.57551 3.44925C5.52922 3.68306 5.41496 3.89783 5.24719 4.0664C5.07941 4.23496 4.86565 4.34976 4.63294 4.39627C4.40023 4.44277 4.15902 4.4189 3.93981 4.32768C3.7206 4.23645 3.53324 4.08196 3.40142 3.88375C3.2696 3.68553 3.19924 3.4525 3.19924 3.21411C3.19924 2.89444 3.32563 2.58786 3.55061 2.36182C3.77559 2.13578 4.08073 2.00879 4.3989 2.00879Z" fill="var(--fill-0, white)"/>
<path id="Vector_6" d="M7.99767 2.00879C8.23494 2.00879 8.46688 2.07948 8.66416 2.21192C8.86144 2.34437 9.01521 2.53261 9.10601 2.75285C9.19681 2.9731 9.22056 3.21545 9.17427 3.44925C9.12798 3.68306 9.01373 3.89783 8.84595 4.0664C8.67818 4.23496 8.46442 4.34976 8.23171 4.39627C7.999 4.44277 7.75778 4.4189 7.53858 4.32768C7.31937 4.23645 7.132 4.08196 7.00018 3.88375C6.86836 3.68553 6.79801 3.4525 6.79801 3.21411C6.79801 2.89444 6.9244 2.58786 7.14938 2.36182C7.37436 2.13578 7.6795 2.00879 7.99767 2.00879Z" fill="var(--fill-0, white)"/>
<path id="Vector_7" d="M11.5969 2.00879C11.8341 2.00879 12.0661 2.07948 12.2634 2.21192C12.4606 2.34437 12.6144 2.53261 12.7052 2.75285C12.796 2.9731 12.8198 3.21545 12.7735 3.44925C12.7272 3.68306 12.6129 3.89783 12.4451 4.0664C12.2774 4.23496 12.0636 4.34976 11.8309 4.39627C11.5982 4.44277 11.357 4.4189 11.1378 4.32768C10.9186 4.23645 10.7312 4.08196 10.5994 3.88375C10.4676 3.68553 10.3972 3.4525 10.3972 3.21411C10.3972 2.89444 10.5236 2.58786 10.7486 2.36182C10.9736 2.13578 11.2787 2.00879 11.5969 2.00879Z" fill="var(--fill-0, white)"/>
<path id="Vector_8" d="M0.199979 6.42843H32.1911V71.9176H1.51998C1.16989 71.9176 0.834146 71.7779 0.586598 71.5292C0.33905 71.2805 0.199979 70.9432 0.199979 70.5914L0.199979 6.42843Z" fill="var(--fill-0, #F2F2F2)"/>
<g id="Group_2">
<path id="Vector_9" d="M24.935 22.3391C24.9342 24.4634 24.1605 26.514 22.7595 28.1049C21.3585 29.6958 19.4269 30.7172 17.3285 30.9768C15.2301 31.2364 13.1096 30.7162 11.3664 29.5142C9.62319 28.3122 8.37749 26.5114 7.86388 24.4508C7.35027 22.3902 7.60419 20.2121 8.57783 18.3265C9.55147 16.4409 11.1776 14.978 13.1501 14.2133C15.1226 13.4486 17.3054 13.4348 19.2873 14.1745C21.2692 14.9143 22.9135 16.3565 23.9107 18.2296C24.0942 18.5726 24.2543 18.9278 24.3899 19.2926C24.4086 19.3434 24.427 19.3943 24.4449 19.4455C24.5244 19.671 24.5943 19.9007 24.6547 20.1345C24.8415 20.8544 24.9357 21.5953 24.935 22.3391Z" fill="var(--fill-0, #D6D6E3)"/>
<path id="Vector_10" d="M15.3182 16.4631C14.9286 16.2514 14.4961 16.1319 14.0536 16.1137C13.6111 16.0956 13.1703 16.1791 12.7648 16.3581C12.5581 16.435 12.3727 16.5607 12.2243 16.7246C12.0759 16.8885 11.9688 17.0858 11.9121 17.2999C12.3937 17.0144 13.0174 17.4655 13.1413 18.1896L13.1122 18.1976C13.0773 18.4369 13.0915 18.6809 13.154 18.9145C13.2166 19.1482 13.3261 19.3664 13.4759 19.5558C13.4969 19.4156 13.5488 19.2817 13.6277 19.1641C13.7066 19.0464 13.8106 18.9479 13.9322 18.8757C14.1621 18.7623 14.3654 18.601 14.5286 18.4027C14.7167 18.1229 14.7644 17.7139 14.8392 17.3417C14.914 16.9695 15.0566 16.567 15.3182 16.4631Z" fill="var(--fill-0, white)"/>
<path id="Vector_11" d="M12.6218 20.7298C12.4829 20.9083 12.3248 21.0708 12.1504 21.2145C11.9657 21.3832 11.8446 21.6107 11.8074 21.8586C11.7872 22.0337 11.8184 22.2123 11.8142 22.3891C11.81 22.5659 11.7511 22.7649 11.6312 22.8091C11.442 22.8778 11.2974 22.5246 11.1032 22.4996C10.9492 22.4802 10.8095 22.7246 10.8541 22.9366C10.8988 23.1486 11.1093 23.2423 11.2303 23.1039C11.3403 23.2883 11.2627 23.6227 11.0983 23.6786C11.081 23.7947 11.0636 23.9105 11.0469 24.0265C10.6064 23.7443 10.2066 23.4026 9.85886 23.0109C9.46629 22.5397 9.22283 21.9614 9.15971 21.3502C9.11395 20.8591 9.1817 20.2974 8.95752 19.9195C8.87732 19.793 8.76237 19.6926 8.62657 19.6305C8.49078 19.5683 8.33996 19.547 8.19237 19.5691C8.14177 19.5724 8.09072 19.5784 8.04012 19.5846C8.20373 19.0909 8.41153 18.6131 8.66097 18.1571C8.7174 18.1328 8.76985 18.1 8.81651 18.0599C9.07457 17.8388 9.18918 17.3941 9.39884 17.0858C9.41233 17.0659 9.42627 17.0465 9.44064 17.0276C9.65113 16.7801 9.91842 16.5878 10.2194 16.4673C10.8335 16.1678 11.4653 15.8643 12.1134 15.9061L11.9291 15.924C11.7138 16.5298 11.4983 17.1356 11.2827 17.7413C11.25 17.8342 11.2169 17.9272 11.1835 18.0205C11.036 18.3675 10.9579 18.7403 10.9538 19.1175C10.9483 19.2218 10.9672 19.3259 11.0089 19.4215C11.0506 19.5171 11.114 19.6015 11.194 19.6681C11.3342 19.7406 11.4873 19.6518 11.6226 19.5636C11.68 19.5269 11.7368 19.49 11.794 19.4531C11.9997 19.3204 12.2274 19.1836 12.4445 19.2727C12.5562 19.3396 12.6491 19.434 12.7145 19.5469C12.7799 19.6598 12.8157 19.7875 12.8185 19.9181C12.8443 20.2031 12.7752 20.4886 12.6218 20.7298Z" fill="var(--fill-0, white)"/>
<path id="Vector_12" d="M13.8448 24.8656L12.043 23.7509L12.0531 23.7246C11.6791 23.8674 11.5251 24.5345 11.5863 25.0798C11.6475 25.6251 11.8573 26.1127 11.9629 26.6441C12.1055 27.3713 12.0517 28.1236 11.8072 28.8228C12.5969 27.9325 13.2958 26.9649 13.8934 25.9345C13.9769 25.8048 14.0405 25.6633 14.0822 25.5146C14.1263 25.356 14.1106 25.1866 14.0382 25.0389C13.989 24.9661 13.9226 24.9067 13.8448 24.866V24.8656Z" fill="var(--fill-0, white)"/>
<path id="Vector_13" d="M11.4745 18.1065C11.4038 18.259 11.3929 18.4326 11.4442 18.5928C11.5034 18.7215 11.6109 18.8216 11.7432 18.8711L12.0749 19.0364C12.1241 19.0709 12.18 19.0946 12.2389 19.106C12.2977 19.1175 12.3584 19.1163 12.4168 19.1027C12.4933 19.0542 12.5536 18.9838 12.5902 18.9007C12.6268 18.8176 12.638 18.7254 12.6223 18.6359C12.5864 18.4481 12.4872 18.2784 12.3413 18.1556L11.8268 17.6361L11.7302 17.7551C11.6259 17.8569 11.5394 17.9757 11.4745 18.1065Z" fill="var(--fill-0, white)"/>
<path id="Vector_14" d="M23.1561 20.3644L23.604 20.4703C23.5781 20.9769 23.3282 21.4457 22.9929 21.6155C22.8416 21.6623 22.7018 21.7402 22.5821 21.8442C22.4798 21.9898 22.4096 22.1556 22.376 22.3305L22.1203 23.2653C22.0288 23.601 21.9113 23.9742 21.6735 24.0951C21.4694 24.1992 21.2357 24.0719 21.0795 23.8586C20.9259 23.6175 20.8093 23.3545 20.7337 23.0785C20.743 23.2158 20.7171 23.3531 20.6584 23.4774C20.5997 23.6017 20.5101 23.7087 20.3984 23.7883C20.3457 23.8116 20.2889 23.8243 20.2313 23.8256C20.1737 23.8269 20.1164 23.8167 20.0627 23.7957C20.009 23.7746 19.9599 23.7432 19.9184 23.7031C19.8768 23.6629 19.8435 23.615 19.8205 23.5619C19.7241 23.3922 19.6841 23.168 19.5899 22.9959C19.4957 22.8237 19.2975 22.7249 19.1939 22.8864C19.1436 23.0174 19.1123 23.155 19.1008 23.2949C19.0839 23.3855 19.0392 23.4685 18.9731 23.5324C18.907 23.5963 18.8227 23.6379 18.7319 23.6514C18.6485 23.6495 18.5663 23.6305 18.4904 23.5956C18.4145 23.5608 18.3465 23.5108 18.2904 23.4488C17.9955 23.1457 17.8035 22.7567 17.7419 22.3374C17.7001 22.1364 17.7054 21.9284 17.7573 21.7297C17.8165 21.5414 17.9595 21.3964 18.1016 21.4322C18.1951 21.2333 18.0105 20.9707 17.8444 20.9939C17.6783 21.0171 17.5472 21.1966 17.4106 21.3345C17.274 21.4725 17.0837 21.5726 16.9464 21.4358C16.948 21.4618 16.9442 21.4879 16.9352 21.5124C16.9263 21.5369 16.9124 21.5593 16.8945 21.5781C16.8765 21.597 16.8549 21.6119 16.8309 21.6219C16.8069 21.632 16.7812 21.6369 16.7552 21.6365C16.6639 21.6102 16.5791 21.565 16.5062 21.5038C16.1918 21.3069 15.7925 21.4375 15.569 21.8102C15.7087 21.2134 15.9133 20.5282 16.3425 20.3876C16.5185 20.3301 16.709 20.3774 16.8747 20.2771C17.1679 20.1003 17.2267 19.4332 16.9739 19.158C17.0273 19.4106 16.9883 19.6742 16.8639 19.9002C16.8298 19.9392 16.7839 19.9659 16.7333 19.976C16.6827 19.9861 16.6301 19.9791 16.5838 19.9562C16.5375 19.9332 16.5 19.8956 16.4772 19.8491C16.4544 19.8025 16.4475 19.7497 16.4575 19.6989C16.4533 19.7357 16.4377 19.7702 16.4129 19.7977C16.3881 19.8251 16.3553 19.844 16.3192 19.8517C16.2831 19.8594 16.2456 19.8555 16.2118 19.8405C16.178 19.8256 16.1498 19.8004 16.1311 19.7685C16.0895 19.6863 16.0663 19.5959 16.0631 19.5038C16.0598 19.4116 16.0767 19.3198 16.1124 19.2349C16.1789 19.0841 16.2742 18.9479 16.3931 18.8342C16.6032 18.584 16.8477 18.365 17.1191 18.1839C17.2411 18.1003 17.3832 18.0513 17.5306 18.0419C17.678 18.0325 17.8251 18.0631 17.9566 18.1306C18.0968 18.2119 18.2206 18.3474 18.3632 18.4179C18.3975 18.4393 18.4356 18.4536 18.4755 18.4598C18.5153 18.4661 18.556 18.4643 18.5952 18.4544C18.6343 18.4446 18.6711 18.427 18.7033 18.4026C18.7355 18.3782 18.7625 18.3476 18.7827 18.3125C18.8892 18.1248 18.839 17.8461 18.8786 17.6114C18.9495 17.1967 19.3626 17.0026 19.591 17.2765C19.4201 17.2323 19.2432 17.4356 19.2221 17.6819C19.208 17.7926 19.2257 17.9051 19.2731 18.006C19.3206 18.1069 19.3957 18.1921 19.4898 18.2515C19.7681 18.3753 20.0398 18.0638 20.2512 17.7754C20.4712 17.4734 20.6912 17.1714 20.9112 16.8691C20.9464 16.8178 20.9858 16.7696 21.0291 16.725C21.0981 16.6575 21.1901 16.6188 21.2864 16.6168C21.3828 16.6148 21.4762 16.6497 21.5479 16.7144C21.7703 16.8968 21.8748 17.2708 22.0574 17.5283C22.3214 17.9023 22.7187 17.9924 23.0875 18.0658C23.3625 18.1195 23.6376 18.1735 23.9129 18.2278C24.0964 18.5709 24.2565 18.926 24.3921 19.2908C23.8862 19.5223 23.4572 19.8949 23.1561 20.3644Z" fill="var(--fill-0, white)"/>
<path id="Vector_15" d="M24.0451 26.1863C23.8388 26.6072 23.5988 27.0106 23.3275 27.3925C23.1541 27.318 22.9678 27.4511 22.8054 27.576C22.6358 27.7066 22.4314 27.8339 22.2583 27.7148C22.0805 27.5928 22.0233 27.2517 22.0796 26.9812C22.1444 26.7317 22.2577 26.4975 22.4129 26.2922C22.5286 26.0743 22.7015 25.8924 22.9128 25.7663C22.9679 25.7464 23.0269 25.7392 23.0852 25.7454C23.1435 25.7515 23.1997 25.7708 23.2495 25.8017C23.2994 25.8327 23.3417 25.8746 23.3732 25.9243C23.4047 25.9739 23.4246 26.0301 23.4315 26.0886L23.5741 26.0837C23.4942 25.9732 23.536 25.7451 23.6434 25.7049C23.7673 25.658 23.8746 25.8287 23.9477 25.9796C23.9807 26.0479 24.0139 26.1167 24.0451 26.1863Z" fill="var(--fill-0, white)"/>
<path id="Vector_16" d="M18.5854 24.1426C18.2789 24.162 18.0354 23.783 17.875 23.4101C17.7146 23.0372 17.567 22.6108 17.29 22.4212C17.1306 22.3355 16.9586 22.2758 16.7805 22.2443C16.6833 22.2197 16.5934 22.1721 16.5182 22.1055C16.443 22.039 16.3846 21.9554 16.348 21.8617L16.1537 21.7828C15.8819 21.9194 15.6329 22.0978 15.4158 22.3115C15.1677 22.5763 15.0131 22.9157 14.9758 23.2775C14.9387 23.6682 15.0757 24.1041 15.332 24.25C15.5344 24.3661 15.77 24.2929 15.9751 24.3992C16.2312 24.5318 16.3834 24.9173 16.4408 25.298C16.4983 25.6786 16.4848 26.0742 16.5251 26.4591C16.5653 26.8439 16.6791 27.2446 16.9147 27.4418C17.2086 27.6887 17.6407 27.4836 17.7727 27.0342C17.8374 26.8132 17.8352 26.5652 17.8827 26.3362C17.9941 25.9681 18.162 25.6197 18.3804 25.3037C18.5973 24.9585 18.6709 24.5417 18.5854 24.1426Z" fill="var(--fill-0, white)"/>
<path id="Vector_17" d="M15.558 20.1829C15.5866 20.2094 15.6132 20.2378 15.6378 20.268C15.6632 20.312 15.6762 20.3622 15.6754 20.413C15.6745 20.4639 15.6599 20.5136 15.633 20.5567C15.6699 20.5546 15.7059 20.5448 15.7389 20.528C15.7718 20.5112 15.8009 20.4877 15.8244 20.459C15.8803 20.395 15.9295 20.3254 15.9711 20.2512C15.9908 20.2259 16.005 20.1966 16.0126 20.1654C16.0201 20.1341 16.021 20.1016 16.0151 20.07C16.0006 20.0284 15.9665 20.0107 15.9425 19.9796C15.9093 19.9185 15.8866 19.8522 15.8754 19.7835C15.8621 19.7192 15.8312 19.6598 15.7861 19.6122C15.7411 19.5645 15.6837 19.5304 15.6204 19.5136L15.6358 19.5165C15.6097 19.5321 15.5891 19.5555 15.5769 19.5834C15.5646 19.6114 15.5614 19.6425 15.5676 19.6723C15.5769 19.7327 15.6156 19.7828 15.6116 19.8445C15.6061 19.9329 15.5181 19.9747 15.5126 20.0631C15.5115 20.1075 15.5278 20.1505 15.558 20.1829Z" fill="var(--fill-0, white)"/>
<path id="Vector_18" d="M15.0328 18.6792H15.0341C15.0436 18.6706 15.0523 18.6612 15.0603 18.6511L15.0328 18.6792Z" fill="var(--fill-0, #E6E6E6)"/>
<path id="Vector_19" d="M15.1248 19.093C15.1614 19.0606 15.1885 19.0188 15.2032 18.972C15.2179 18.9253 15.2195 18.8754 15.2079 18.8277C15.1859 18.727 15.107 18.6593 15.0341 18.6779C15.0131 18.6994 14.987 18.7152 14.9582 18.7237C14.9294 18.7322 14.8989 18.7332 14.8696 18.7265C14.8256 18.7148 14.7754 18.685 14.7365 18.719C14.7143 18.7442 14.6987 18.7746 14.6912 18.8074L14.6472 18.94C14.6403 18.956 14.6386 18.9737 14.6421 18.9907C14.6449 18.9975 14.6494 19.0034 14.6551 19.008C14.6608 19.0126 14.6677 19.0156 14.6749 19.0167L14.9345 19.0937C14.9643 19.1076 14.9968 19.1148 15.0297 19.1147C15.0626 19.1145 15.0951 19.1071 15.1248 19.093Z" fill="var(--fill-0, white)"/>
<path id="Vector_20" d="M21.657 24.8325L21.5371 24.6351C21.4977 24.5591 21.444 24.4915 21.3789 24.4361C21.3646 24.4241 21.348 24.415 21.3302 24.4095C21.3123 24.404 21.2935 24.4021 21.275 24.404C21.2564 24.4058 21.2383 24.4114 21.2219 24.4204C21.2055 24.4294 21.1911 24.4416 21.1794 24.4562L21.1842 24.4938C21.2913 24.6092 21.3643 24.7522 21.395 24.9069C21.404 24.9733 21.401 25.0438 21.4089 25.1114C21.4097 25.1427 21.4167 25.1735 21.4294 25.2021C21.4421 25.2307 21.4604 25.2565 21.483 25.2781C21.5459 25.3203 21.6198 25.2579 21.6647 25.1819C21.7048 25.1194 21.7227 25.0452 21.7158 24.9713C21.7059 24.9214 21.6859 24.8742 21.657 24.8325Z" fill="var(--fill-0, white)"/>
<path id="Vector_21" d="M23.4373 22.3188L23.472 22.0903C23.4908 22.0066 23.4931 21.92 23.4788 21.8354C23.4756 21.8169 23.4687 21.7993 23.4586 21.7835C23.4485 21.7678 23.4353 21.7542 23.4199 21.7436C23.4045 21.733 23.3871 21.7257 23.3689 21.7219C23.3506 21.7182 23.3317 21.7181 23.3134 21.7218L23.2929 21.7536C23.3009 21.9112 23.2651 22.0679 23.1893 22.2061C23.1532 22.2633 23.1062 22.3146 23.069 22.3714C23.0495 22.3959 23.0351 22.424 23.0265 22.4542C23.0179 22.4843 23.0153 22.5158 23.0188 22.5469C23.0408 22.6201 23.1365 22.6201 23.2195 22.5911C23.2901 22.5692 23.3514 22.524 23.3935 22.4629C23.4178 22.4185 23.4328 22.3695 23.4375 22.319L23.4373 22.3188Z" fill="var(--fill-0, #E6E6E6)"/>
<path id="Vector_22" d="M22.2845 24.918C22.292 24.8564 22.287 24.7939 22.2697 24.7343C22.2669 24.6537 22.2882 24.5741 22.3309 24.5058C22.3733 24.4413 22.4054 24.3706 22.4261 24.2962C22.4348 24.2623 22.4332 24.2266 22.4215 24.1936C22.4083 24.1638 22.3762 24.1494 22.3577 24.1738L22.3971 24.1992C22.344 24.1896 22.2894 24.1923 22.2374 24.2069C22.2078 24.2183 22.1813 24.2368 22.1602 24.2606C22.1392 24.2845 22.1241 24.313 22.1164 24.344C22.1099 24.3922 22.0993 24.4399 22.0847 24.4863C22.0612 24.5347 22.0158 24.5508 21.9872 24.5935C21.9678 24.6312 21.958 24.6731 21.9587 24.7156C21.9594 24.758 21.9705 24.7996 21.9912 24.8367C22.0271 24.8973 22.0841 24.9423 22.1511 24.9631C22.1991 24.9805 22.2625 24.9814 22.2845 24.918Z" fill="var(--fill-0, white)"/>
<path id="Vector_23" d="M23.4021 25.2566C23.4195 25.3021 23.4428 25.345 23.4714 25.3844C23.5248 25.4385 23.5976 25.4052 23.6625 25.3921C23.7214 25.3827 23.7818 25.3895 23.8371 25.4118C23.8925 25.4341 23.9408 25.4711 23.9769 25.5188C23.9518 25.3927 23.8969 25.2745 23.8168 25.1742C23.7368 25.0738 23.6339 24.9942 23.5169 24.9421C23.3648 24.8892 23.2046 24.8641 23.0437 24.8678L23.0162 24.8749C23.0859 25.0796 23.3057 25.0749 23.4021 25.2566Z" fill="var(--fill-0, white)"/>
<g id="Vector_24">
</g>
<path id="Vector_25" d="M18.4998 26.0053C18.4628 26.0727 18.4311 26.1429 18.4048 26.2153C18.3699 26.3324 18.3468 26.4527 18.3359 26.5744C18.3273 26.6436 18.3247 26.732 18.3678 26.7659C18.3802 26.7741 18.3951 26.7776 18.4099 26.7756C18.4246 26.7736 18.4381 26.7663 18.4479 26.755C18.4719 26.7296 18.4915 26.7003 18.506 26.6684C18.5908 26.5216 18.6567 26.3646 18.702 26.2011C18.7492 26.0277 18.738 25.8434 18.6699 25.677L18.4998 26.0053Z" fill="var(--fill-0, white)"/>
<path id="Vector_26" d="M16.8645 17.2226C16.8915 17.249 16.9255 17.267 16.9624 17.2743C16.9994 17.2815 17.0376 17.2778 17.0724 17.2635C17.1446 17.2317 17.2107 17.1878 17.268 17.1335C17.3155 17.0982 17.3557 17.0541 17.3866 17.0035C17.4036 16.9733 17.4145 16.94 17.4187 16.9055C17.4228 16.871 17.4201 16.836 17.4108 16.8026C17.3976 16.7706 17.3766 16.7426 17.3496 16.721C17.3227 16.6995 17.2908 16.6852 17.2568 16.6795L16.9686 16.5937L17.0381 16.5307C16.9666 16.4923 16.8877 16.5637 16.843 16.6523C16.8144 16.7101 16.7944 16.7719 16.7838 16.8355C16.7685 16.9021 16.7678 16.9712 16.7817 17.038C16.7957 17.1048 16.8239 17.1678 16.8645 17.2226Z" fill="var(--fill-0, #E6E6E6)"/>
<path id="Vector_27" d="M18.5603 16.6507C18.5874 16.6807 18.6248 16.6993 18.665 16.7026C18.7051 16.7058 18.745 16.6936 18.7766 16.6684C18.8037 16.6479 18.8263 16.6219 18.8427 16.5921C18.8592 16.5623 18.8693 16.5293 18.8723 16.4954C18.8791 16.4195 18.8417 16.3351 18.7884 16.3285L18.8008 16.2573C18.698 16.2387 18.5715 16.2352 18.5165 16.3603C18.4979 16.4083 18.4921 16.4604 18.4998 16.5114C18.5075 16.5624 18.5283 16.6104 18.5603 16.6507Z" fill="var(--fill-0, #E6E6E6)"/>
<path id="Vector_28" d="M18.8461 10.6034C18.0553 10.5138 17.2614 10.7435 16.6392 11.242C16.0169 11.7404 15.6173 12.4668 15.528 13.2614C15.3424 14.9158 16.21 18.5088 17.7916 19.9962C18.5363 17.1465 21.1462 15.4563 21.4916 13.9371C21.8601 12.3138 20.4934 10.7899 18.8461 10.6034Z" fill="var(--fill-0, #70A5FF)"/>
<path id="Vector_29" d="M18.2996 14.2814C18.84 14.2814 19.2782 13.8413 19.2782 13.2983C19.2782 12.7553 18.84 12.3151 18.2996 12.3151C17.7592 12.3151 17.321 12.7553 17.321 13.2983C17.321 13.8413 17.7592 14.2814 18.2996 14.2814Z" fill="var(--fill-0, white)"/>
<path id="Vector_30" d="M17.2709 21.4139C17.6249 21.4139 17.912 21.1255 17.912 20.7698C17.912 20.4141 17.6249 20.1257 17.2709 20.1257C16.9168 20.1257 16.6298 20.4141 16.6298 20.7698C16.6298 21.1255 16.9168 21.4139 17.2709 21.4139Z" fill="var(--fill-0, #70A5FF)"/>
<path id="Vector_31" opacity="0.2" d="M19.1094 12.5936C19.2196 12.6601 19.3156 12.7478 19.3921 12.8516C19.4685 12.9553 19.5239 13.0733 19.555 13.1985C19.5861 13.3238 19.5923 13.454 19.5733 13.5817C19.5543 13.7094 19.5105 13.8321 19.4443 13.9428C19.3781 14.0535 19.2908 14.15 19.1875 14.2268C19.0842 14.3036 18.9669 14.3592 18.8422 14.3905C18.7175 14.4217 18.5879 14.428 18.4608 14.4089C18.3337 14.3898 18.2116 14.3457 18.1014 14.2792C18.3282 14.3299 18.5656 14.2978 18.771 14.1887C18.9765 14.0796 19.1365 13.9007 19.2226 13.6838C19.3088 13.467 19.3152 13.2264 19.241 13.0052C19.1667 12.784 19.0165 12.5966 18.8173 12.4765C18.9204 12.4994 19.0189 12.539 19.1094 12.5936Z" fill="var(--fill-0, #231F20)"/>
<path id="Vector_32" opacity="0.2" d="M21.496 13.9402C21.1506 15.4594 18.5407 17.1496 17.796 19.9992C17.6473 19.8581 17.5091 19.706 17.3826 19.5443C18.2186 16.8658 20.667 15.2381 21.0005 13.7704C21.2991 12.4568 20.4602 11.2081 19.2566 10.6807C20.7139 11.0488 21.8337 12.4526 21.496 13.9402Z" fill="var(--fill-0, #231F20)"/>
</g>
<path id="Vector_33" d="M12.9965 34.5526H19.3948C19.6064 34.5501 19.8164 34.5898 20.0126 34.6694C20.2089 34.7491 20.3874 34.8671 20.538 35.0165C20.6885 35.166 20.808 35.344 20.8896 35.5402C20.9711 35.7365 21.0131 35.947 21.0131 36.1596C21.0131 36.3723 20.9711 36.5828 20.8896 36.779C20.808 36.9752 20.6885 37.1532 20.538 37.3027C20.3874 37.4522 20.2089 37.5702 20.0126 37.6498C19.8164 37.7294 19.6064 37.7692 19.3948 37.7667H12.9965C12.5755 37.7617 12.1735 37.5902 11.8775 37.2894C11.5816 36.9885 11.4156 36.5826 11.4156 36.1596C11.4156 35.7366 11.5816 35.3307 11.8775 35.0299C12.1735 34.729 12.5755 34.5575 12.9965 34.5526Z" fill="var(--fill-0, #70A5FF)"/>
<g id="Group_3">
<path id="Vector_34" d="M116.441 85.4062L116.003 85.9146C116.003 85.9146 110.673 86.423 110.888 87.285C111.103 88.1471 117.307 86.1275 117.307 86.1275L116.441 85.4062Z" fill="var(--fill-0, #ED9DA0)"/>
<path id="Vector_35" d="M126.103 84.9712C126.103 84.9712 120.405 87.0063 117.307 86.1312L118.748 89.0288C118.748 89.0288 126.103 88.81 127.402 87.5025C128.701 86.1951 126.103 84.9712 126.103 84.9712Z" fill="var(--fill-0, #70A5FF)"/>
<path id="Vector_36" d="M122.244 69.4301C124.354 69.4301 126.065 67.7114 126.065 65.5913C126.065 63.4712 124.354 61.7526 122.244 61.7526C120.134 61.7526 118.424 63.4712 118.424 65.5913C118.424 67.7114 120.134 69.4301 122.244 69.4301Z" fill="var(--fill-0, #FFC1C7)"/>
<path id="Vector_37" d="M125.511 69.1962C125.646 69.4491 125.816 69.6812 126.017 69.8856C126.54 70.4579 127.165 70.9272 127.86 71.2696C125.69 71.7136 123.499 72.0414 121.295 72.2516C121.528 71.4274 121.221 70.5472 120.811 69.7992C120.4 69.0512 119.874 68.3516 119.616 67.5351L122.198 67.6063C122.667 67.6063 123.138 67.6317 123.606 67.6063C123.958 67.5884 124.54 67.3773 124.872 67.4562C125.541 67.6165 125.202 68.5804 125.511 69.1962Z" fill="var(--fill-0, #FFC1C7)"/>
<path id="Vector_38" d="M134.18 87.2179L136.343 89.8261C136.343 89.8261 139.943 98.3024 132.094 99.1625C124.245 100.023 118.393 98.5087 118.393 98.5087C118.393 98.5087 115.221 96.9822 115.147 98.1475C115.074 99.3128 114.788 102.566 113.056 105.754L111.536 109.231C111.304 109.481 111.132 109.781 111.032 110.107C110.933 110.434 110.908 110.779 110.961 111.116C111.177 112.203 106.128 112.564 106.201 111.116C106.201 111.116 106.923 109.885 106.923 109.16C106.923 108.435 108.075 106.697 108.075 106.697L110.167 96.2673C110.167 96.2673 110.022 90.9047 114.927 91.9198C119.831 92.9348 126.827 91.7009 126.827 91.7009L128.411 86.1246L134.18 87.2179Z" fill="var(--fill-0, #D6D6E3)"/>
<path id="Vector_39" opacity="0.018" d="M134.18 87.2165L136.343 89.8248C136.343 89.8248 139.943 98.3011 132.094 99.1612C124.245 100.021 118.393 98.5073 118.393 98.5073C118.393 98.5073 115.221 96.9808 115.147 98.1462C115.074 99.3115 114.788 102.565 113.056 105.753L111.536 109.23C111.304 109.48 111.132 109.779 111.032 110.106C110.933 110.433 110.908 110.778 110.961 111.115C111.177 112.201 106.128 112.563 106.201 111.115C106.201 111.115 106.923 109.884 106.923 109.159C106.923 108.433 108.075 106.696 108.075 106.696L110.167 96.266C110.167 96.266 110.022 90.9034 114.927 91.9184C119.831 92.9334 126.827 91.6996 126.827 91.6996L128.411 86.1233L134.18 87.2165Z" fill="var(--fill-0, #090814)"/>
<path id="Vector_40" d="M143.949 96.0552V98.2302C143.949 98.2636 143.942 98.2967 143.93 98.3275C143.917 98.3584 143.898 98.3864 143.875 98.4101C143.851 98.4337 143.823 98.4524 143.793 98.4652C143.762 98.478 143.729 98.4846 143.696 98.4846C143.629 98.4846 143.564 98.4578 143.517 98.4101C143.469 98.3624 143.442 98.2976 143.442 98.2302V96.419C143.442 96.3515 143.416 96.2868 143.368 96.2391C143.321 96.1914 143.256 96.1646 143.189 96.1646H138.424C138.391 96.1646 138.358 96.1712 138.327 96.1839C138.296 96.1967 138.268 96.2155 138.245 96.2391C138.221 96.2627 138.203 96.2908 138.19 96.3216C138.177 96.3525 138.171 96.3856 138.171 96.419V98.2302C138.171 98.2976 138.144 98.3624 138.097 98.4101C138.049 98.4578 137.985 98.4846 137.918 98.4846C137.85 98.4846 137.786 98.4578 137.739 98.4101C137.691 98.3624 137.664 98.2976 137.664 98.2302V96.0552C137.664 95.9877 137.691 95.923 137.739 95.8753C137.786 95.8275 137.85 95.8007 137.918 95.8007H143.686C143.72 95.7993 143.754 95.8048 143.786 95.8169C143.818 95.829 143.847 95.8476 143.872 95.8713C143.896 95.8951 143.916 95.9236 143.929 95.9552C143.943 95.9868 143.95 96.0208 143.95 96.0552H143.949Z" fill="var(--fill-0, #E6E6E6)"/>
<path id="Vector_41" d="M121.753 114.626C121.738 114.999 121.863 115.363 122.105 115.647C122.346 115.93 122.686 116.111 123.055 116.152L157.207 116.999C157.221 117.001 157.236 116.999 157.25 116.994C157.264 116.989 157.277 116.981 157.287 116.971C157.303 116.959 157.313 116.94 157.315 116.92L157.769 114.804C157.793 114.683 157.804 114.56 157.802 114.437L157.072 99.0796C157.065 98.8275 156.991 98.5818 156.86 98.3672L156.354 97.5124C156.337 97.4853 156.315 97.4613 156.29 97.4413C156.246 97.4078 156.192 97.39 156.136 97.3904L123.98 97.8712C123.606 97.8766 123.248 98.0252 122.979 98.2866C122.71 98.5481 122.551 98.9027 122.534 99.2781L121.753 114.626Z" fill="var(--fill-0, #E6E6E6)"/>
<path id="Vector_42" opacity="0.1" d="M156.282 97.4492L157.294 116.982L157.322 116.931L157.775 114.814C157.8 114.694 157.811 114.571 157.808 114.448L157.079 99.09C157.072 98.8379 156.998 98.5922 156.866 98.3776L156.36 97.5228C156.339 97.4934 156.312 97.4683 156.282 97.449L156.282 97.4492Z" fill="var(--fill-0, black)"/>
<path id="Vector_43" d="M126.068 87.0266C126.068 87.0266 132.666 84.5362 136.342 89.825C136.342 89.825 137.279 98.0113 133.529 98.3727C129.779 98.7341 124.877 98.6627 123.723 97.4315C122.568 96.2004 115.286 92.7226 115.286 92.7226C115.286 92.7226 111.66 90.8658 110.952 93.2798C110.244 95.6937 110.167 96.274 110.167 96.274C110.167 96.274 106.417 99.0266 104.903 99.5327C104.903 99.5327 103.891 100.983 103.319 100.983C102.747 100.983 99.2094 101.778 99.5689 99.0977L105.41 93.7376L111.249 88.0127C111.249 88.0127 112.908 85.5501 117.164 86.8527C119.987 87.6976 122.851 88.3989 125.744 88.9541L126.068 87.0266Z" fill="var(--fill-0, #D6D6E3)"/>
<path id="Vector_44" d="M110.744 110.981C110.744 110.981 112.114 114.458 110.962 114.893C109.81 115.328 107.356 115.038 107.356 115.038C107.356 115.038 104.47 114.674 103.751 114.748C103.032 114.822 100.072 114.24 100.505 113.082C100.938 111.924 103.173 112.212 103.173 112.212L105.198 111.271C105.198 111.271 105.416 110.546 105.92 110.836C106.423 111.126 107.86 112.212 110.744 110.981Z" fill="var(--fill-0, #090814)"/>
<path id="Vector_45" d="M103.244 100.688C103.244 100.688 104.764 104.092 102.307 103.802C99.8514 103.511 97.9803 103.006 97.2611 102.934C96.5419 102.862 94.6051 102.191 94.9071 100.851C94.9232 100.767 94.93 100.681 94.9274 100.596C94.9274 100.416 95.1806 100.065 97.1175 100.118C97.1175 100.118 98.5582 100.118 99.143 99.101C99.1349 99.098 101.298 101.85 103.244 100.688Z" fill="var(--fill-0, #090814)"/>
<path id="Vector_46" d="M119.614 71.7121C119.614 71.7121 124.804 68.4533 129.132 71.7121C133.459 74.9708 136.343 89.825 136.343 89.825L126.319 87.5786C126.319 87.5786 125.888 85.841 125.307 85.5435C124.725 85.246 124.656 84.017 124.656 84.017C124.656 84.017 121.557 83.0758 121.772 79.4533C121.987 75.8307 119.614 71.7121 119.614 71.7121Z" fill="var(--fill-0, #70A5FF)"/>
<path id="Vector_47" d="M122.282 71.8571H119.614C119.614 71.8571 118.026 73.6683 117.811 78.2322L116.945 81.8626C116.945 81.8626 115.142 86.2101 116.224 86.9351C117.305 87.6602 119.399 87.5863 119.829 86.1394C120.26 84.6925 123.232 76.2792 123.232 76.2792L122.282 71.8571Z" fill="var(--fill-0, #70A5FF)"/>
<path id="Vector_48" d="M121.518 60.5952C122.179 60.3241 122.902 60.2424 123.607 60.3591C124.312 60.4758 124.971 60.7865 125.511 61.2566C126.897 62.4981 127.174 64.5255 127.536 66.3444C127.898 68.1633 128.592 70.2137 130.321 70.9234C129.547 71.0278 128.761 71.0046 127.994 70.8547L130.59 73.1926L126.218 71.7603C124.845 71.31 123.405 70.854 121.984 71.1091C119.63 71.5291 117.989 73.7547 115.728 74.5352L115.981 73.3013H114.461C114.823 73.0328 115.12 72.6852 115.329 72.2846C115.259 72.1968 115.171 72.1244 115.071 72.0719C114.971 72.0194 114.862 71.9879 114.75 71.9793C114.117 68.0132 116.461 64.0931 119.512 61.5059C120.115 60.9975 120.778 60.5086 121.553 60.3815C122.328 60.2544 123.234 60.6025 123.505 61.343" fill="var(--fill-0, #090814)"/>
</g>
<g id="Group_4">
<path id="Vector_49" d="M173.933 109.68C176.006 109.105 176.89 112.266 174.823 112.86C172.75 113.435 171.866 110.273 173.933 109.68Z" fill="var(--fill-0, #3F3D56)"/>
<path id="Vector_50" d="M162.442 113.75C164.514 113.175 165.399 116.336 163.332 116.93C161.259 117.506 160.374 114.343 162.442 113.75Z" fill="var(--fill-0, #3F3D56)"/>
<path id="Vector_51" d="M157.791 80.3991L157.823 80.39L163.162 94.9519L163.866 94.753L158.489 80.0865C158.477 79.8603 158.389 79.6448 158.239 79.476C158.089 79.3071 157.886 79.1949 157.663 79.1582C154.993 78.734 153.911 81.115 153.911 81.115L153.922 81.1309L159.38 96.0189L160.084 95.82L154.786 81.3716C156.399 79.768 157.791 80.3991 157.791 80.3991Z" fill="var(--fill-0, #3F3D56)"/>
<path id="Vector_52" d="M163.962 114.568C167.108 114.52 171 112.812 173.653 111.531C174.356 111.192 174.917 110.615 175.238 109.902C175.558 109.188 175.618 108.383 175.406 107.63L171.967 95.3388C171.813 94.7941 171.551 94.2864 171.197 93.8467C170.842 93.4069 170.402 93.0442 169.903 92.7807C169.419 92.5222 168.887 92.3669 168.341 92.3245C167.795 92.282 167.245 92.3535 166.728 92.5342C166.605 92.5897 163.265 93.5289 161.054 94.1507C159.754 94.5163 158.814 94.7806 158.751 94.8019C158.699 94.8191 156.362 95.6259 156.777 98.4627C157.095 100.641 159.499 108.67 160.518 112.02C160.74 112.753 161.188 113.395 161.798 113.853C162.408 114.312 163.148 114.562 163.909 114.569L163.962 114.568Z" fill="var(--fill-0, #70A5FF)"/>
<path id="Vector_53" d="M173.729 109.504L169.271 94.3434L158.788 97.3201L158.726 97.0976L169.428 94.0587L169.46 94.1693L173.95 109.439L173.729 109.504Z" fill="var(--fill-0, #3F3D56)"/>
</g>
<g id="Group_5">
<g id="Group_6">
<path id="Vector_54" d="M64.3823 35.356H112.369C112.79 35.361 113.192 35.5325 113.488 35.8333C113.784 36.1342 113.95 36.5401 113.95 36.9631C113.95 37.3861 113.784 37.792 113.488 38.0929C113.192 38.3937 112.79 38.5652 112.369 38.5702H64.3823C63.9614 38.5652 63.5593 38.3937 63.2634 38.0929C62.9674 37.792 62.8015 37.3861 62.8015 36.9631C62.8015 36.5401 62.9674 36.1342 63.2634 35.8333C63.5593 35.5325 63.9614 35.361 64.3823 35.356Z" fill="var(--fill-0, #70A5FF)"/>
<path id="Vector_55" d="M105.971 40.1773H112.369C112.581 40.1748 112.791 40.2146 112.987 40.2942C113.183 40.3738 113.362 40.4918 113.512 40.6413C113.663 40.7908 113.782 40.9688 113.864 41.165C113.945 41.3612 113.987 41.5717 113.987 41.7844C113.987 41.997 113.945 42.2075 113.864 42.4038C113.782 42.6 113.663 42.778 113.512 42.9275C113.362 43.0769 113.183 43.1949 112.987 43.2745C112.791 43.3542 112.581 43.3939 112.369 43.3914H105.971C105.55 43.3865 105.148 43.215 104.852 42.9141C104.556 42.6133 104.39 42.2074 104.39 41.7844C104.39 41.3614 104.556 40.9555 104.852 40.6546C105.148 40.3538 105.55 40.1823 105.971 40.1773Z" fill="var(--fill-0, #70A5FF)"/>
<path id="Vector_56" d="M64.3823 40.1773H93.1742C93.5951 40.1823 93.9972 40.3538 94.2931 40.6546C94.5891 40.9555 94.755 41.3614 94.755 41.7844C94.755 42.2074 94.5891 42.6133 94.2931 42.9141C93.9972 43.215 93.5951 43.3865 93.1742 43.3914H64.3823C63.9614 43.3865 63.5593 43.215 63.2634 42.9141C62.9674 42.6133 62.8015 42.2074 62.8015 41.7844C62.8015 41.3614 62.9674 40.9555 63.2634 40.6546C63.5593 40.3538 63.9614 40.1823 64.3823 40.1773Z" fill="var(--fill-0, #E6E6E6)"/>
</g>
<g id="Group_7">
<path id="Vector_57" d="M64.3823 14.4638H112.369C112.79 14.4688 113.192 14.6403 113.488 14.9411C113.784 15.242 113.95 15.6479 113.95 16.0709C113.95 16.4938 113.784 16.8998 113.488 17.2006C113.192 17.5015 112.79 17.673 112.369 17.6779H64.3823C63.9614 17.673 63.5593 17.5015 63.2634 17.2006C62.9674 16.8998 62.8015 16.4938 62.8015 16.0709C62.8015 15.6479 62.9674 15.242 63.2634 14.9411C63.5593 14.6403 63.9614 14.4688 64.3823 14.4638Z" fill="var(--fill-0, #70A5FF)"/>
<path id="Vector_58" d="M105.971 19.2851H112.369C112.581 19.2826 112.791 19.3223 112.987 19.402C113.183 19.4816 113.362 19.5996 113.512 19.7491C113.663 19.8985 113.782 20.0765 113.864 20.2727C113.945 20.469 113.987 20.6795 113.987 20.8921C113.987 21.1048 113.945 21.3153 113.864 21.5115C113.782 21.7077 113.663 21.8857 113.512 22.0352C113.362 22.1847 113.183 22.3027 112.987 22.3823C112.791 22.462 112.581 22.5017 112.369 22.4992H105.971C105.55 22.4942 105.148 22.3227 104.852 22.0219C104.556 21.721 104.39 21.3151 104.39 20.8921C104.39 20.4691 104.556 20.0632 104.852 19.7624C105.148 19.4615 105.55 19.29 105.971 19.2851Z" fill="var(--fill-0, #70A5FF)"/>
<path id="Vector_59" d="M64.3823 19.2851H93.1742C93.5951 19.29 93.9972 19.4615 94.2931 19.7624C94.5891 20.0632 94.755 20.4691 94.755 20.8921C94.755 21.3151 94.5891 21.721 94.2931 22.0219C93.9972 22.3227 93.5951 22.4942 93.1742 22.4992H64.3823C63.9614 22.4942 63.5593 22.3227 63.2634 22.0219C62.9674 21.721 62.8015 21.3151 62.8015 20.8921C62.8015 20.4691 62.9674 20.0632 63.2634 19.7624C63.5593 19.4615 63.9614 19.29 64.3823 19.2851Z" fill="var(--fill-0, #E6E6E6)"/>
</g>
<g id="Group_8">
<path id="Vector_60" d="M64.3823 56.2483H112.369C112.79 56.2532 113.192 56.4247 113.488 56.7256C113.784 57.0264 113.95 57.4324 113.95 57.8553C113.95 58.2783 113.784 58.6843 113.488 58.9851C113.192 59.2859 112.79 59.4574 112.369 59.4624H64.3823C63.9614 59.4574 63.5593 59.2859 63.2634 58.9851C62.9674 58.6843 62.8015 58.2783 62.8015 57.8553C62.8015 57.4324 62.9674 57.0264 63.2634 56.7256C63.5593 56.4247 63.9614 56.2532 64.3823 56.2483Z" fill="var(--fill-0, #70A5FF)"/>
<path id="Vector_61" d="M105.971 61.0696H112.369C112.581 61.0671 112.791 61.1068 112.987 61.1864C113.183 61.2661 113.362 61.3841 113.512 61.5335C113.663 61.683 113.782 61.861 113.864 62.0572C113.945 62.2534 113.987 62.464 113.987 62.6766C113.987 62.8893 113.945 63.0998 113.864 63.296C113.782 63.4922 113.663 63.6702 113.512 63.8197C113.362 63.9692 113.183 64.0871 112.987 64.1668C112.791 64.2464 112.581 64.2862 112.369 64.2837H105.971C105.55 64.2787 105.148 64.1072 104.852 63.8064C104.556 63.5055 104.39 63.0996 104.39 62.6766C104.39 62.2536 104.556 61.8477 104.852 61.5469C105.148 61.246 105.55 61.0745 105.971 61.0696Z" fill="var(--fill-0, #70A5FF)"/>
<path id="Vector_62" d="M64.3823 61.0696H93.1742C93.5951 61.0745 93.9972 61.246 94.2931 61.5469C94.5891 61.8477 94.755 62.2536 94.755 62.6766C94.755 63.0996 94.5891 63.5055 94.2931 63.8064C93.9972 64.1072 93.5951 64.2787 93.1742 64.2837H64.3823C63.9614 64.2787 63.5593 64.1072 63.2634 63.8064C62.9674 63.5055 62.8015 63.0996 62.8015 62.6766C62.8015 62.2536 62.9674 61.8477 63.2634 61.5469C63.5593 61.246 63.9614 61.0745 64.3823 61.0696Z" fill="var(--fill-0, #E6E6E6)"/>
</g>
<path id="Vector_63" d="M49.6268 15.2956L50.6729 15.2588C50.7108 15.2571 50.7485 15.2653 50.7823 15.2825C50.8161 15.2998 50.8448 15.3255 50.8658 15.3572L52.2755 17.5406L53.5436 17.4959C53.7802 17.4822 54.0127 17.5633 54.1899 17.7214C54.3672 17.8795 54.4748 18.1018 54.4893 18.3395C54.4914 18.5776 54.3995 18.8069 54.2337 18.9771C54.0679 19.1473 53.8417 19.2445 53.6047 19.2475L52.3365 19.2921L51.0824 21.5692C51.0637 21.6023 51.0368 21.63 51.0043 21.6496C50.9718 21.6692 50.9348 21.68 50.8969 21.681L49.8507 21.7178C49.8174 21.7192 49.7841 21.713 49.7535 21.6997C49.7229 21.6864 49.6956 21.6663 49.6738 21.6409C49.6527 21.6163 49.6378 21.587 49.6305 21.5553C49.6232 21.5237 49.6236 21.4908 49.6318 21.4593L50.1774 19.3685L48.578 19.4273L47.9689 20.0525C47.9286 20.0934 47.8744 20.1172 47.8172 20.1191L46.7708 20.1559C46.7342 20.1575 46.6977 20.1499 46.6647 20.1338C46.6318 20.1177 46.6034 20.0935 46.5821 20.0635C46.5614 20.0344 46.5488 20.0003 46.5457 19.9647C46.5426 19.929 46.5491 19.8932 46.5644 19.861L47.1697 18.5969L46.4779 17.3788C46.4602 17.3476 46.4512 17.3123 46.4518 17.2764C46.4525 17.2406 46.4626 17.2055 46.4813 17.175C46.5005 17.1436 46.5272 17.1175 46.5589 17.0991C46.5907 17.0807 46.6265 17.0705 46.6632 17.0696L47.7091 17.0327C47.7663 17.0306 47.8221 17.0506 47.8651 17.0885L48.5196 17.6723L50.117 17.6161L49.4263 15.568C49.416 15.5372 49.4133 15.5044 49.4184 15.4723C49.4235 15.4402 49.4362 15.4099 49.4556 15.3839C49.4757 15.3572 49.5015 15.3354 49.5312 15.3201C49.5608 15.3048 49.5935 15.2965 49.6268 15.2956ZM50.5609 15.6801L49.9301 15.7023L50.6203 17.7501C50.6306 17.7808 50.6333 17.8137 50.6282 17.8457C50.6232 17.8778 50.6104 17.9081 50.5911 17.9342C50.571 17.961 50.5453 17.983 50.5156 17.9984C50.486 18.0138 50.4533 18.0223 50.4199 18.0233L48.4443 18.0929C48.3871 18.095 48.3313 18.075 48.2883 18.0371L47.6335 17.4533L47.0313 17.4745L47.6069 18.4882C47.6231 18.5164 47.6322 18.5482 47.6333 18.5807C47.6345 18.6132 47.6276 18.6456 47.6134 18.6748L47.1099 19.7263L47.7121 19.7052L48.3214 19.0799C48.3616 19.039 48.4159 19.0152 48.4731 19.0133L50.451 18.9406C50.4844 18.9392 50.5176 18.9453 50.5483 18.9586C50.579 18.9719 50.6063 18.9919 50.6282 19.0173C50.6493 19.0419 50.6642 19.0713 50.6715 19.103C50.6788 19.1347 50.6783 19.1676 50.6702 19.1991L50.1243 21.2903L50.7548 21.2681L52.0089 18.991C52.0277 18.9579 52.0546 18.9302 52.0871 18.9106C52.1196 18.891 52.1566 18.8802 52.1945 18.8792L53.589 18.8302C53.651 18.831 53.7124 18.8192 53.7697 18.7955C53.827 18.7718 53.8789 18.7366 53.9223 18.6922C53.9656 18.6477 53.9995 18.5948 54.0219 18.5368C54.0443 18.4787 54.0547 18.4167 54.0526 18.3545C54.0504 18.2923 54.0357 18.2312 54.0093 18.1749C53.9829 18.1186 53.9454 18.0682 53.8991 18.0269C53.8527 17.9856 53.7985 17.9541 53.7397 17.9345C53.6809 17.9149 53.6188 17.9074 53.557 17.9127L52.1632 17.9617C52.1253 17.9634 52.0876 17.9552 52.0538 17.938C52.02 17.9207 51.9913 17.895 51.9703 17.8633L50.5609 15.6801Z" fill="var(--fill-0, black)"/>
<g id="Group_9">
<path id="Vector_64" d="M53.3806 39.6165H52.6647C52.6329 39.6165 52.6015 39.6103 52.5721 39.598C52.5427 39.5858 52.5161 39.5679 52.4936 39.5453C52.4711 39.5228 52.4533 39.496 52.4411 39.4665C52.429 39.437 52.4227 39.4053 52.4227 39.3734C52.4227 39.3415 52.429 39.3099 52.4411 39.2804C52.4533 39.2509 52.4711 39.2241 52.4936 39.2015C52.5161 39.1789 52.5427 39.161 52.5721 39.1488C52.6015 39.1366 52.6329 39.1303 52.6647 39.1303H52.7967L50.1593 36.4805L47.5211 39.1309H47.6531C47.7173 39.1309 47.7788 39.1565 47.8242 39.2021C47.8696 39.2477 47.8951 39.3096 47.8951 39.3741C47.8951 39.4386 47.8696 39.5004 47.8242 39.546C47.7788 39.5916 47.7173 39.6172 47.6531 39.6172H46.9383C46.8906 39.6171 46.844 39.6027 46.8044 39.576C46.7647 39.5493 46.7338 39.5114 46.7156 39.4672C46.6973 39.4229 46.6925 39.3741 46.7017 39.3271C46.7109 39.28 46.7338 39.2368 46.7674 39.2028L49.9884 35.9657C50.0338 35.9203 50.0952 35.8947 50.1592 35.8947C50.2233 35.8947 50.2847 35.9203 50.3301 35.9657L53.5515 39.2021C53.5851 39.2361 53.608 39.2794 53.6172 39.3264C53.6264 39.3735 53.6216 39.4222 53.6034 39.4665C53.5851 39.5108 53.5542 39.5487 53.5146 39.5754C53.4749 39.6021 53.4283 39.6164 53.3806 39.6165Z" fill="var(--fill-0, black)"/>
<path id="Vector_65" d="M51.949 42.853H48.3696C48.1158 42.8527 47.8724 42.7512 47.693 42.5709C47.5135 42.3906 47.4125 42.1461 47.4122 41.891V39.3741C47.4122 39.3096 47.4377 39.2477 47.4831 39.2021C47.5285 39.1565 47.59 39.1309 47.6542 39.1309C47.7184 39.1309 47.7799 39.1565 47.8253 39.2021C47.8707 39.2477 47.8962 39.3096 47.8962 39.3741V41.891C47.8963 42.0174 47.9463 42.1385 48.0353 42.2279C48.1242 42.3172 48.2448 42.3675 48.3705 42.3676H51.949C52.0748 42.3675 52.1954 42.3172 52.2843 42.2279C52.3732 42.1385 52.4232 42.0174 52.4234 41.891V39.3741C52.4234 39.3096 52.4489 39.2477 52.4942 39.2021C52.5396 39.1565 52.6012 39.1309 52.6654 39.1309C52.7295 39.1309 52.7911 39.1565 52.8365 39.2021C52.8819 39.2477 52.9074 39.3096 52.9074 39.3741V41.891C52.9071 42.1462 52.806 42.3909 52.6263 42.5712C52.4466 42.7516 52.203 42.8529 51.949 42.853Z" fill="var(--fill-0, black)"/>
<path id="Vector_66" d="M51.2332 42.853C51.2014 42.853 51.1699 42.8467 51.1406 42.8345C51.1112 42.8222 51.0845 42.8043 51.062 42.7818C51.0396 42.7592 51.0217 42.7324 51.0096 42.7029C50.9974 42.6734 50.9912 42.6418 50.9912 42.6098V40.4525C50.9908 40.3264 50.9408 40.2055 50.852 40.1164C50.7631 40.0272 50.6428 39.9771 50.5173 39.9768H49.8014C49.6759 39.9772 49.5557 40.0274 49.467 40.1165C49.3783 40.2057 49.3283 40.3265 49.328 40.4525V42.6103C49.328 42.6422 49.3217 42.6738 49.3095 42.7033C49.2974 42.7328 49.2796 42.7596 49.2571 42.7822C49.2346 42.8048 49.2079 42.8227 49.1786 42.8349C49.1492 42.8471 49.1177 42.8534 49.086 42.8534C49.0542 42.8534 49.0227 42.8471 48.9934 42.8349C48.964 42.8227 48.9373 42.8048 48.9148 42.7822C48.8924 42.7596 48.8745 42.7328 48.8624 42.7033C48.8502 42.6738 48.844 42.6422 48.844 42.6103V40.4525C48.8443 40.1975 48.9452 39.953 49.1247 39.7726C49.3042 39.5923 49.5476 39.4908 49.8014 39.4906H50.5173C50.7711 39.4908 51.0145 39.5923 51.194 39.7726C51.3735 39.953 51.4744 40.1975 51.4747 40.4525V42.6103C51.4746 42.6746 51.4491 42.7363 51.4038 42.7818C51.3586 42.8273 51.2972 42.8529 51.2332 42.853Z" fill="var(--fill-0, black)"/>
</g>
<g id="Group_10">
<path id="Vector_67" d="M50.4957 64.2839H48.7331C48.6593 64.2818 48.5893 64.2509 48.5378 64.1978C48.4864 64.1446 48.4576 64.0734 48.4576 63.9993C48.4576 63.9252 48.4864 63.854 48.5378 63.8008C48.5893 63.7477 48.6593 63.7168 48.7331 63.7147H50.4957C50.5695 63.7168 50.6395 63.7477 50.691 63.8008C50.7424 63.854 50.7712 63.9252 50.7712 63.9993C50.7712 64.0734 50.7424 64.1446 50.691 64.1978C50.6395 64.2509 50.5695 64.2818 50.4957 64.2839Z" fill="var(--fill-0, black)"/>
<path id="Vector_68" d="M49.6142 64.283C49.5392 64.283 49.4672 64.2531 49.4141 64.1999C49.361 64.1467 49.3311 64.0745 49.3308 63.9992V59.5723C49.3329 59.4982 49.3636 59.4278 49.4165 59.3761C49.4694 59.3244 49.5403 59.2955 49.6141 59.2955C49.6879 59.2955 49.7587 59.3244 49.8116 59.3761C49.8645 59.4278 49.8953 59.4982 49.8973 59.5723V63.9992C49.8971 64.0745 49.8672 64.1467 49.8141 64.1999C49.761 64.253 49.6891 64.2829 49.6142 64.283Z" fill="var(--fill-0, black)"/>
<path id="Vector_69" d="M49.6142 57.6433C49.5392 57.6433 49.4673 57.6134 49.4142 57.5603C49.3611 57.5071 49.3311 57.435 49.3308 57.3597V56.0308C49.3329 55.9567 49.3636 55.8863 49.4165 55.8346C49.4694 55.7829 49.5403 55.754 49.6141 55.754C49.6879 55.754 49.7587 55.7829 49.8116 55.8346C49.8645 55.8863 49.8953 55.9567 49.8973 56.0308V57.3597C49.897 57.4349 49.8671 57.507 49.814 57.5602C49.761 57.6133 49.6891 57.6432 49.6142 57.6433Z" fill="var(--fill-0, black)"/>
<path id="Vector_70" d="M47.8518 57.0741H52.2579C52.3004 57.0741 52.3423 57.0837 52.3806 57.1022C52.4188 57.1206 52.4525 57.1475 52.479 57.1809L53.3603 58.2876C53.4006 58.338 53.4225 58.4008 53.4225 58.4654C53.4225 58.5301 53.4006 58.5928 53.3603 58.6432L52.479 59.75C52.4525 59.7833 52.4188 59.8102 52.3806 59.8287C52.3423 59.8471 52.3004 59.8567 52.2579 59.8567H47.8518C47.8145 59.8567 47.7777 59.8494 47.7433 59.835C47.7089 59.8207 47.6776 59.7997 47.6513 59.7733C47.625 59.7468 47.6041 59.7154 47.5899 59.6808C47.5757 59.6463 47.5684 59.6092 47.5684 59.5718V57.3588C47.5684 57.2833 47.5983 57.2109 47.6514 57.1575C47.7045 57.1041 47.7766 57.0741 47.8518 57.0741ZM52.1224 57.6433H48.1349V59.2876H52.1224L52.7771 58.4653L52.1224 57.6433Z" fill="var(--fill-0, black)"/>
</g>
</g>
</g>
</svg>
