<svg preserveAspectRatio="none" width="100%" height="100%" overflow="visible" style="display: block;" viewBox="0 0 188 119" fill="none" xmlns="http://www.w3.org/2000/svg">
<g id="Group">
<path id="Vector" d="M152.018 70.1576C150.29 70.7944 147.256 71.3179 143.744 71.7389C134.195 72.885 121.109 73.2919 121.109 73.2919C121.109 73.2919 53.8396 78.8723 3.4225 58.1177C3.4225 58.1177 -3.91079 54.2725 2.892 49.0971C3.93954 48.3237 5.05319 47.6443 6.22002 47.0665L6.30313 46.9834C7.07691 46.2681 7.91314 45.6235 8.80179 45.0572C11.4136 43.3681 15.8239 41.3659 21.1925 42.2732L153.609 63.6946C153.609 63.6946 158.446 67.7822 152.018 70.1576Z" fill="var(--fill-0, #3F3D56)"/>
<path id="Vector_2" d="M125.634 60.4489L153.355 40.7769L165.572 42.8905L153.609 63.6946C153.609 63.6946 125.952 63.9157 125.634 60.4489Z" fill="var(--fill-0, #3F3D56)"/>
<path id="Vector_3" d="M55.8449 48.4975L111.061 33.0085L119.961 34.8692L95.0189 46.092L87.2241 54.8155L55.8449 48.4975Z" fill="var(--fill-0, #3F3D56)"/>
<path id="Vector_4" d="M143.744 71.7389C134.195 72.885 121.109 73.2919 121.109 73.2919C121.109 73.2919 53.8396 78.8723 3.4225 58.1177C3.4225 58.1177 -3.91079 54.2725 2.892 49.0971L2.91499 49.1926C2.91499 49.1926 13.7938 56.5471 65.7723 62.6864L143.744 71.7389Z" fill="var(--fill-0, #70A5FF)"/>
<path id="Vector_5" d="M134.868 71.3144L159.554 81.3963L165.756 80.7083L150.99 69.6075C150.99 69.6075 133.13 65.7959 134.868 71.3144Z" fill="var(--fill-0, #3F3D56)"/>
<path id="Vector_6" d="M11.8663 50.2698C10.6886 50.2892 7.99013 48.3135 6.31197 46.9834C7.08576 46.2681 7.92198 45.6235 8.81063 45.0572C10.1634 46.0955 12.5701 47.7758 13.9088 47.7104C15.8415 47.6308 13.64 50.2379 11.8663 50.2698Z" fill="var(--fill-0, #70A5FF)"/>
<path id="Vector_7" d="M124.016 106.164L108.166 106.994L63.6044 76.939L55.3321 71.3586L51.3144 68.6471C58.8528 62.2796 89.6095 71.0615 89.6095 71.0615C90.1984 71.5585 90.3859 72.3845 90.3593 73.2972C90.308 75.0058 89.5052 77.0116 89.1958 77.7332C89.1215 77.9101 89.0755 78.0038 89.0755 78.0038L124.016 106.164Z" fill="var(--fill-0, #3F3D56)"/>
<path id="Vector_8" d="M71.8183 90.5814L69.0685 92.3219L70.7343 89.292C70.2626 88.9156 69.679 88.7071 69.0756 88.6995H69.0314C68.8407 88.7032 68.65 88.689 68.462 88.657L67.5318 89.2478L67.9297 88.5226C67.2708 88.2913 66.7015 87.858 66.3028 87.2845L64.6388 88.3457L65.6892 86.4319C64.7167 85.2628 63.4045 84.5465 61.9598 84.5465C60.2286 84.5465 58.6866 85.5759 57.691 87.1819C57.3958 87.6628 56.9785 88.057 56.4815 88.3242C55.9845 88.5913 55.4256 88.7221 54.8617 88.703H54.7697C52.8582 88.703 51.3091 90.8698 51.3091 93.5441C51.3091 96.2185 52.8582 98.3852 54.7697 98.3852C55.1898 98.3839 55.6031 98.28 55.974 98.0827C56.6248 97.7669 57.3364 97.5961 58.0597 97.582C58.7829 97.568 59.5006 97.7111 60.1632 98.0014C60.7235 98.2515 61.3303 98.3808 61.9439 98.3808C62.5575 98.3808 63.1643 98.2515 63.7246 98.0014C64.3817 97.7165 65.0924 97.5762 65.8084 97.5899C66.5244 97.6036 67.2292 97.7711 67.8749 98.081C68.2435 98.2733 68.6528 98.3746 69.0685 98.3763C70.9801 98.3763 72.5292 96.2096 72.5292 93.5353C72.5429 92.5067 72.2985 91.4911 71.8183 90.5814Z" fill="var(--fill-0, #E6E6E6)"/>
<path id="Vector_9" d="M149.448 88.2821L146.699 90.0225L148.364 86.9926C147.893 86.6162 147.309 86.4077 146.706 86.4001H146.661C146.471 86.4038 146.28 86.3896 146.092 86.3577L145.162 86.9484L145.56 86.2232C144.901 85.9919 144.332 85.5586 143.933 84.9851L142.269 86.0464L143.319 84.1326C142.347 82.9634 141.035 82.2471 139.59 82.2471C137.859 82.2471 136.317 83.2765 135.321 84.8825C135.026 85.3635 134.609 85.7576 134.112 86.0248C133.615 86.292 133.056 86.4227 132.492 86.4037H132.4C130.488 86.4037 128.939 88.5704 128.939 91.2447C128.939 93.9191 130.488 96.0858 132.4 96.0858C132.82 96.0845 133.233 95.9806 133.604 95.7833C134.255 95.4675 134.966 95.2967 135.69 95.2827C136.413 95.2686 137.131 95.4117 137.793 95.702C138.354 95.9521 138.96 96.0814 139.574 96.0814C140.188 96.0814 140.794 95.9521 141.355 95.702C142.012 95.4171 142.722 95.2768 143.438 95.2905C144.155 95.3043 144.859 95.4717 145.505 95.7816C145.874 95.974 146.283 96.0753 146.699 96.077C148.61 96.077 150.159 93.9102 150.159 91.2359C150.173 90.2073 149.929 89.1917 149.448 88.2821Z" fill="var(--fill-0, #E6E6E6)"/>
<path id="Vector_10" d="M149.448 30.2669L146.699 32.0074L148.364 28.9775C147.893 28.6011 147.309 28.3926 146.706 28.385H146.661C146.471 28.3887 146.28 28.3745 146.092 28.3425L145.162 28.9333L145.56 28.2081C144.901 27.9767 144.332 27.5435 143.933 26.97L142.269 28.0312L143.319 26.1174C142.347 24.9483 141.035 24.2319 139.59 24.2319C137.859 24.2319 136.317 25.2613 135.321 26.8674C135.026 27.3483 134.609 27.7424 134.112 28.0096C133.615 28.2768 133.056 28.4076 132.492 28.3885H132.4C130.488 28.3885 128.939 30.5552 128.939 33.2296C128.939 35.9039 130.488 38.0707 132.4 38.0707C132.82 38.0693 133.233 37.9655 133.604 37.7682C134.255 37.4524 134.966 37.2816 135.69 37.2675C136.413 37.2535 137.131 37.3965 137.793 37.6868C138.353 37.9384 138.959 38.0691 139.573 38.0707C140.187 38.0722 140.794 37.9444 141.355 37.6957C142.012 37.4108 142.722 37.2705 143.438 37.2842C144.155 37.298 144.859 37.4654 145.505 37.7753C145.874 37.9677 146.283 38.069 146.699 38.0707C148.61 38.0707 150.159 35.9039 150.159 33.2296C150.174 32.198 149.93 31.1792 149.448 30.2669Z" fill="var(--fill-0, #E6E6E6)"/>
<path id="Vector_11" d="M35.9175 24.0073L34.547 24.8758L35.3781 23.3652C35.1433 23.1764 34.8519 23.0718 34.5506 23.0681H34.5293C34.434 23.0691 34.3388 23.062 34.2446 23.0469L33.7813 23.3405L33.9794 22.9867C33.6506 22.8715 33.3666 22.6555 33.1677 22.3694L32.3384 22.9001L32.8689 21.9467C32.6483 21.6613 32.3668 21.4288 32.045 21.266C31.7232 21.1032 31.3691 21.0143 31.0086 21.0057C30.1456 21.0057 29.3764 21.5187 28.8866 22.3199C28.7392 22.5604 28.5305 22.7574 28.2819 22.8908C28.0333 23.0241 27.7538 23.089 27.4719 23.0787H27.4259C26.4728 23.0787 25.7 24.1612 25.7 25.4948C25.7 26.8285 26.4728 27.9092 27.4259 27.9092C27.6356 27.9085 27.8419 27.8569 28.0272 27.7588C28.3518 27.6008 28.7068 27.5153 29.0678 27.5083C29.4287 27.5012 29.7868 27.5728 30.1173 27.7181C30.3957 27.8419 30.6969 27.9058 31.0015 27.9058C31.3061 27.9058 31.6073 27.8419 31.8857 27.7181C32.2135 27.5759 32.5682 27.5059 32.9255 27.5129C33.2828 27.5199 33.6344 27.6038 33.9564 27.7588C34.1401 27.8539 34.3437 27.9042 34.5506 27.9056C35.5037 27.9056 36.2765 26.8249 36.2765 25.4913C36.2832 24.9743 36.1597 24.464 35.9175 24.0073Z" fill="var(--fill-0, #E6E6E6)"/>
<path id="Vector_12" d="M156.562 111.368L157.393 109.857C157.159 109.668 156.867 109.564 156.566 109.56H156.545C156.449 109.561 156.354 109.554 156.26 109.539L155.797 109.833L155.995 109.479C155.666 109.364 155.382 109.148 155.183 108.862L154.354 109.392L154.884 108.439C154.664 108.153 154.382 107.921 154.06 107.758C153.739 107.595 153.384 107.506 153.024 107.498C152.161 107.498 151.392 108.011 150.902 108.812C150.755 109.053 150.546 109.25 150.297 109.383C150.049 109.516 149.769 109.581 149.487 109.571H149.441C148.488 109.571 147.715 110.653 147.715 111.987C147.715 113.321 148.488 114.401 149.441 114.401C149.651 114.401 149.857 114.349 150.043 114.251C150.367 114.093 150.722 114.007 151.083 114C151.444 113.993 151.802 114.065 152.133 114.21C152.411 114.334 152.712 114.398 153.017 114.398C153.321 114.398 153.623 114.334 153.901 114.21C154.229 114.068 154.584 113.998 154.941 114.005C155.298 114.012 155.65 114.096 155.972 114.251C156.155 114.346 156.359 114.396 156.566 114.398C157.519 114.398 158.292 113.317 158.292 111.983L156.562 111.368Z" fill="var(--fill-0, #E6E6E6)"/>
<path id="Vector_13" d="M30.6125 115.098L29.242 115.967L30.0731 114.456C29.8382 114.267 29.5469 114.163 29.2455 114.159H29.2243C29.129 114.16 29.0338 114.153 28.9396 114.138L28.4763 114.431L28.6744 114.078C28.3456 113.962 28.0616 113.746 27.8627 113.46L27.0334 113.991L27.5639 113.038C27.3433 112.752 27.0618 112.52 26.74 112.357C26.4182 112.194 26.0641 112.105 25.7036 112.097C24.8406 112.097 24.0714 112.61 23.5816 113.411C23.4341 113.651 23.2255 113.848 22.9769 113.982C22.7283 114.115 22.4488 114.18 22.1669 114.17H22.1209C21.1678 114.17 20.395 115.252 20.395 116.586C20.395 117.919 21.1678 119 22.1209 119C22.3305 118.999 22.5369 118.948 22.7221 118.85C23.0467 118.692 23.4018 118.606 23.7628 118.599C24.1237 118.592 24.4818 118.664 24.8123 118.809C25.0907 118.933 25.3919 118.997 25.6965 118.997C26.0011 118.997 26.3023 118.933 26.5807 118.809C26.9085 118.667 27.2631 118.597 27.6205 118.604C27.9778 118.611 28.3294 118.695 28.6514 118.85C28.8351 118.945 29.0387 118.995 29.2455 118.996C30.1987 118.996 30.9714 117.916 30.9714 116.582C30.9782 116.065 30.8547 115.555 30.6125 115.098Z" fill="var(--fill-0, #E6E6E6)"/>
<path id="Vector_14" d="M93.9225 6.03499L91.1727 7.77544L92.8385 4.74557C92.3668 4.36913 91.7832 4.16064 91.1798 4.15303H91.1356C90.9449 4.15676 90.7543 4.14255 90.5662 4.11059L89.6361 4.70135L90.0339 3.97616C89.375 3.74481 88.8057 3.31157 88.4071 2.73803L86.7431 3.79928L87.7935 1.88549C86.8209 0.716346 85.5088 0 84.064 0C82.3328 0 80.7908 1.02941 79.7953 2.63544C79.5 3.11638 79.0827 3.51051 78.5857 3.7777C78.0887 4.04489 77.5298 4.17562 76.9659 4.15657H76.874C74.9624 4.15657 73.4133 6.32329 73.4133 8.99765C73.4133 11.672 74.9624 13.8387 76.874 13.8387C77.294 13.8374 77.7074 13.7336 78.0782 13.5363C78.729 13.2205 79.4406 13.0496 80.1639 13.0356C80.8871 13.0215 81.6048 13.1646 82.2674 13.4549C82.8271 13.7064 83.4335 13.8372 84.0472 13.8387C84.6608 13.8403 85.2679 13.7125 85.8288 13.4638C86.486 13.1789 87.1966 13.0386 87.9126 13.0523C88.6287 13.066 89.3334 13.2335 89.9791 13.5434C90.3477 13.7357 90.757 13.837 91.1727 13.8387C93.0843 13.8387 94.6334 11.672 94.6334 8.99765C94.6486 7.96609 94.4042 6.94727 93.9225 6.03499Z" fill="var(--fill-0, #E6E6E6)"/>
<path id="Vector_15" d="M187.641 36.3886L186.27 37.257L187.102 35.7465C186.867 35.5577 186.575 35.4531 186.274 35.4494H186.253C186.157 35.4504 186.062 35.4433 185.968 35.4281L185.505 35.7218L185.703 35.368C185.374 35.2528 185.09 35.0368 184.891 34.7507L184.062 35.2813L184.592 34.328C184.372 34.0426 184.09 33.8101 183.768 33.6473C183.447 33.4845 183.093 33.3956 182.732 33.387C181.869 33.387 181.1 33.8999 180.61 34.7012C180.463 34.9417 180.254 35.1387 180.005 35.2721C179.757 35.4054 179.477 35.4702 179.195 35.46H179.149C178.196 35.46 177.423 36.5425 177.423 37.8761C177.423 39.2097 178.196 40.2904 179.149 40.2904C179.359 40.2898 179.565 40.2382 179.751 40.1401C180.075 39.9821 180.43 39.8966 180.791 39.8895C181.152 39.8825 181.51 39.9541 181.841 40.0994C182.119 40.2232 182.42 40.2871 182.725 40.2871C183.03 40.2871 183.331 40.2232 183.609 40.0994C183.937 39.9572 184.292 39.8872 184.649 39.8942C185.006 39.9012 185.358 39.9851 185.68 40.1401C185.864 40.2352 186.067 40.2855 186.274 40.2869C187.227 40.2869 188 39.2062 188 37.8726C188.007 37.3556 187.883 36.8453 187.641 36.3886Z" fill="var(--fill-0, #E6E6E6)"/>
</g>
</svg>
