<svg preserveAspectRatio="none" width="100%" height="100%" overflow="visible" style="display: block;" viewBox="0 0 154 149.001" fill="none" xmlns="http://www.w3.org/2000/svg">
<g id="Group">
<g id="Group_2">
<path id="Vector" d="M79.9489 127.451L75.3447 135.348L80.0115 137.532L84.6346 130.36L79.9489 127.451Z" fill="var(--fill-0, #E8989B)"/>
<path id="Vector_2" d="M71.1461 137.38C71.0808 137.13 71.0692 136.868 71.112 136.613C71.1548 136.358 71.251 136.114 71.3944 135.899C71.7133 135.465 72.2881 135.196 73.1036 135.094C73.225 134.971 74.7351 133.449 75.2778 133.404C75.3268 133.296 75.6644 132.59 76.2292 132.42C76.3688 132.383 76.5152 132.378 76.657 132.406C76.7988 132.434 76.9321 132.494 77.0466 132.582L77.0585 132.59L77.0558 132.604C77.052 132.624 76.7087 134.49 77.7009 135.508C78.2699 136.091 79.165 136.289 80.3622 136.095C80.428 136.061 81.318 135.351 81.9056 134.878L81.9289 134.858L85.2025 142.934L87.8471 146.787C87.997 147.01 88.0758 147.272 88.0731 147.54C88.0704 147.808 87.9863 148.069 87.832 148.289C87.6776 148.509 87.4602 148.677 87.2081 148.771C86.9561 148.866 86.6813 148.882 86.4197 148.819L84.0592 148.232C83.0687 147.984 82.1473 147.516 81.3639 146.864L72.272 139.269C71.6899 138.787 71.2928 138.12 71.1478 137.38H71.1461Z" fill="var(--fill-0, #090814)"/>
</g>
<path id="Vector_3" d="M119.864 135.035L121.436 144.032L126.421 142.719L125.332 134.265L119.864 135.035Z" fill="var(--fill-0, #E8989B)"/>
<path id="Vector_4" d="M119.532 148.274C119.32 148.124 119.142 147.931 119.011 147.708C118.879 147.485 118.795 147.237 118.766 146.98C118.731 146.444 118.997 145.869 119.557 145.271C119.57 145.099 119.744 142.966 120.131 142.585C120.099 142.47 119.901 141.714 120.225 141.222C120.307 141.104 120.416 141.006 120.542 140.937C120.669 140.868 120.81 140.828 120.954 140.822L120.969 140.821L120.976 140.833C120.985 140.85 121.928 142.5 123.345 142.645C124.157 142.728 124.971 142.307 125.762 141.392C125.791 141.324 126.015 140.211 126.159 139.472L126.165 139.443L133.886 143.534L138.4 144.793C138.658 144.868 138.888 145.019 139.059 145.226C139.23 145.433 139.335 145.687 139.358 145.954C139.382 146.221 139.324 146.489 139.192 146.722C139.06 146.956 138.86 147.145 138.619 147.263L136.431 148.323C135.512 148.767 134.504 148.999 133.483 149.001H121.615C120.858 149.005 120.122 148.748 119.532 148.274L119.532 148.274Z" fill="var(--fill-0, #090814)"/>
<path id="Vector_5" d="M90.7955 22.2577L89.8025 17.191C88.6581 16.0274 87.9133 14.533 87.6749 12.9219C87.4364 11.3108 87.7166 9.666 88.4751 8.22326C89.2337 6.78051 90.4317 5.61399 91.8974 4.891C93.3631 4.16801 95.0211 3.92568 96.6336 4.19878C98.2462 4.47188 99.7304 5.24637 100.874 6.41118C102.017 7.57598 102.76 9.07127 102.997 10.6826C103.233 12.2939 102.951 13.9384 102.191 15.3804C101.431 16.8223 100.232 17.9875 98.7653 18.709V22.2577H90.7955Z" fill="var(--fill-0, #ED9DA0)"/>
<path id="Vector_6" d="M132.11 77.0181C133.119 77.2974 134.197 77.1983 135.138 76.7394C136.079 76.2806 136.819 75.494 137.216 74.5287C137.614 73.5634 137.642 72.4864 137.295 71.5019C136.948 70.5174 136.251 69.6937 135.335 69.187L126.249 58.9247L118.564 60.5776L129.372 71.1175C129.107 71.6779 128.968 72.2894 128.965 72.9091C128.962 73.5287 129.096 74.1414 129.357 74.704C129.618 75.2666 130 75.7653 130.476 76.1651C130.951 76.565 131.509 76.8561 132.11 77.0181Z" fill="var(--fill-0, #ED9DA0)"/>
<path id="Vector_7" d="M78.3555 86.0218L82.4514 64.9532C82.4514 64.9532 95.5499 21.6375 99.761 21.0515C101.347 20.8314 103.3 22.3552 105.117 24.3412L105.148 24.168L105.639 24.928C108.419 28.1388 110.755 32.166 110.755 32.166C112.277 34.0997 113.807 36.7818 115.297 39.8973L131.766 65.4234L125.519 68.2791C127.439 74.8181 128.618 79.5218 128.618 79.5218C128.618 79.5218 113.5 80.4641 102.449 86.3172C98.8864 88.2044 95.1149 88.8436 91.642 88.8441C84.3421 88.8453 78.3555 86.0218 78.3555 86.0218Z" fill="var(--fill-0, #3F3D56)"/>
<path id="Vector_8" d="M48.8462 148.944C50.2179 148.944 51.3299 147.837 51.3299 146.471C51.3299 145.105 50.2179 143.998 48.8462 143.998C47.4744 143.998 46.3624 145.105 46.3624 146.471C46.3624 147.837 47.4744 148.944 48.8462 148.944Z" fill="var(--fill-0, #3F3D56)"/>
<path id="Vector_9" d="M50.6527 96.6781C50.6527 96.6781 56.5236 78.919 56.9752 77.6827C57.4267 76.4463 62.1691 78.4693 63.4106 78.8069C64.6521 79.1446 64.3139 80.3806 64.3139 80.3806L57.9914 98.5889L59.9107 99.4881L65.7816 81.1671C69.1686 77.6827 66.6849 77.4578 66.6849 77.4578C66.6849 77.4578 59.4593 74.9858 56.7495 74.7602C54.0397 74.5347 55.0559 77.7951 55.0559 77.7951L48.5081 95.1045L50.6527 96.6781Z" fill="var(--fill-0, #3F3D56)"/>
<path id="Vector_10" d="M64.7652 100.949L64.7641 100.948C63.931 99.759 62.7481 98.8562 61.3782 98.3642C61.3297 98.3463 61.273 98.326 61.2082 98.3034C58.0977 97.221 36.4264 91.3952 36.4264 91.3952C36.4264 91.3952 32.137 89.8218 30.2177 94.0933C28.2984 98.3649 16.8953 133.77 16.8953 133.77C16.8953 133.77 39.1976 145.644 45.6998 146.936C46.1013 147.033 46.5154 147.065 46.9271 147.033C48.0323 146.88 49.1202 146.622 50.1755 146.261C51.3423 145.882 52.4521 145.348 53.4749 144.673L66.1202 107.019C66.1202 107.019 67.9266 102.86 64.7652 100.949Z" fill="var(--fill-0, #70A5FF)"/>
<path id="Vector_11" d="M64.7652 100.949L64.7641 100.948C63.931 99.7588 62.748 98.856 61.3781 98.364C61.3295 98.346 61.2728 98.3258 61.208 98.3034C62.231 100.088 62.6196 102.86 62.6196 102.86C62.6196 102.86 50.2012 139.614 49.072 143.099C48.2118 145.755 46.4764 146.657 45.6997 146.936C46.1011 147.032 46.5153 147.065 46.9269 147.033C48.0322 146.88 49.1201 146.622 50.1753 146.261C50.4839 145.908 50.7573 145.527 50.9917 145.122C50.9917 145.122 63.6366 107.468 64.7656 105.67C65.8945 103.871 64.7652 100.949 64.7652 100.949Z" fill="var(--fill-0, #3F3D56)"/>
<path id="Vector_12" d="M41.2253 149C42.5971 149 43.7091 147.893 43.7091 146.527C43.7091 145.161 42.5971 144.054 41.2253 144.054C39.8536 144.054 38.7416 145.161 38.7416 146.527C38.7416 147.893 39.8536 149 41.2253 149Z" fill="var(--fill-0, #3F3D56)"/>
<path id="Vector_13" d="M17.1212 138.603C18.4929 138.603 19.6049 137.496 19.6049 136.13C19.6049 134.764 18.4929 133.657 17.1212 133.657C15.7494 133.657 14.6374 134.764 14.6374 136.13C14.6374 137.496 15.7494 138.603 17.1212 138.603Z" fill="var(--fill-0, #3F3D56)"/>
<path id="Vector_14" d="M60.9022 79.1877C59.9031 79.5028 58.8226 79.442 57.8655 79.0169C56.9084 78.5918 56.1412 77.8319 55.7094 76.8813C55.2775 75.9306 55.2109 74.8553 55.5223 73.859C55.8336 72.8628 56.5013 72.0149 57.3987 71.476L66.1117 60.898L73.8509 62.2772L63.4254 73.1937C63.711 73.7443 63.8718 74.3505 63.8966 74.9697C63.9214 75.5888 63.8095 76.2059 63.5689 76.7773C63.3282 77.3488 62.9646 77.8608 62.5037 78.2772C62.0428 78.6936 61.4958 79.0044 60.9012 79.1876L60.9022 79.1877Z" fill="var(--fill-0, #ED9DA0)"/>
<path id="Vector_15" opacity="0.1" d="M82.4512 64.9528C82.4512 64.9528 95.551 21.6372 99.761 21.0518C103.971 20.4665 109.031 32.2849 109.031 32.2849C113.413 50.3176 128.617 79.5233 128.617 79.5233C128.617 79.5233 113.499 80.4646 102.448 86.3179C91.3969 92.1712 78.3553 86.0216 78.3553 86.0216L82.4512 64.9528Z" fill="var(--fill-0, black)"/>
<path id="Vector_16" d="M93.1987 51.9932V73.759L90.6256 105.288L77.7711 129.138L83.9062 133.501L101.435 110.815L108.368 88.2886L119.256 138.155L127.437 137.573L121.756 68.4345L110.975 48.9736L93.1987 51.9932Z" fill="var(--fill-0, #2F2E41)"/>
<path id="Vector_17" d="M108.213 32.1525C112.675 36.7241 108.532 41.6208 108.532 41.6208L113.631 53.3745L93.5528 58.9247L86.5362 26.8051L91.3166 21.5813C100.878 21.2548 100.061 20.9128 100.061 20.9128C101.735 22.5921 108.213 32.1525 108.213 32.1525Z" fill="var(--fill-0, #E6E6E6)"/>
<path id="Vector_18" d="M78.3601 85.9098C76.299 85.2136 73.3189 81.7414 72.7798 78.6813C72.5861 77.5858 72.6327 76.0608 73.9479 75.0128C77.7271 72.0039 84.5116 62.6342 86.6275 50.3009C86.8938 48.7376 86.9943 47.1509 86.9274 45.5667L67.8427 70.4961L60.8309 67.5879L82.6228 31.0098C82.3544 29.5654 82.4999 28.075 83.0429 26.7093C83.5859 25.3435 84.5042 24.1576 85.6928 23.2873L85.7948 23.2132C86.6307 22.5988 87.5807 22.1556 88.5898 21.9093C89.5989 21.6631 90.647 21.6186 91.6735 21.7785C92.7 21.9384 93.6844 22.2995 94.5697 22.8409C95.455 23.3823 96.2236 24.0932 96.8309 24.9324C101.458 31.3465 105.737 41.7032 99.8412 54.6203C90.376 75.3605 82.1393 85.9782 78.7907 85.9767H78.7781C78.6361 85.9767 78.495 85.9542 78.3601 85.9098Z" fill="var(--fill-0, #3F3D56)"/>
<path id="Vector_19" d="M0 148.709C0 148.548 0.0811256 148.418 0.181129 148.418H153.819C153.919 148.418 154 148.548 154 148.709C154 148.87 153.919 149 153.819 149H0.181129C0.0811256 149 0 148.87 0 148.709Z" fill="var(--fill-0, #CBCBCB)"/>
<path id="Vector_20" d="M82.2277 21.9594C82.2277 21.9594 82.6442 25.1043 86.5003 25.206L94.3223 25.4143C94.3223 25.4143 87.7097 9.39359 90.4302 11.1984C93.1507 13.0031 100.462 6.48708 100.462 6.48708L102.539 9.43101C102.539 9.43101 107.649 7.58781 101.986 3.0765C101.986 3.0765 95.2268 -2.12462 88.0522 0.998627C80.8777 4.12187 82.2277 21.9594 82.2277 21.9594Z" fill="var(--fill-0, #090814)"/>
</g>
</svg>
